<svg width="100" height="80" viewBox="0 0 100 80" fill="none" xmlns="http://www.w3.org/2000/svg">
<path fill-rule="evenodd" clip-rule="evenodd" d="M0 0.707874C9.87424 0.707874 19.7668 0.669271 29.639 0.707874C32.3838 0.718033 34.952 1.01264 36.7561 3.32881C37.6826 4.51738 37.7456 3.4304 38.8305 2.44704C41.2666 0.240575 45.2854 0.707874 48.4244 0.707874H100V79.0394C90.3716 79.0394 80.727 79.0922 71.1047 79.074C67.5796 79.0679 63.7518 79.1816 60.2674 79.0577C57.7582 78.9703 56.7769 78.6554 54.739 77.4648C53.8329 76.9345 53.7089 77.3267 52.7967 77.8387C50.0091 79.4072 46.0087 79.0232 42.8493 79.0232C28.7064 79.0232 14.5635 79.0232 0.422601 79.0232H0V0.707874Z" fill="#1D1D1B"/>
<path fill-rule="evenodd" clip-rule="evenodd" d="M7.54382 73.2429V60.124H15.1771C17.1986 60.124 18.6859 60.4207 19.6428 61.0139C20.5998 61.6072 21.0772 62.5276 21.0772 63.775C21.0772 64.5126 20.872 65.1424 20.4657 65.6666C20.0593 66.1928 19.4254 66.6337 18.566 66.9893C19.2649 67.2087 19.7606 67.5073 20.0492 67.8832C20.3377 68.2611 20.5043 68.9235 20.5469 69.8743C20.5693 70.1405 20.5896 70.5001 20.6119 70.9511C20.6627 72.0076 20.8822 72.6212 21.2723 72.7878V73.2429H16.9955C16.7862 72.7797 16.6683 72.1438 16.6379 71.3372C16.6094 70.5306 16.579 70.0206 16.5505 69.8134C16.4855 69.3034 16.2762 68.9296 15.9227 68.6918C15.5692 68.4521 15.0389 68.3343 14.3319 68.3343H11.6053V73.2429H7.54382ZM11.6053 65.7438H14.6468C15.4696 65.7438 16.0751 65.6199 16.4591 65.37C16.8451 65.1201 17.0381 64.7218 17.0381 64.1753C17.0381 63.6958 16.8512 63.3362 16.4753 63.1025C16.1015 62.8689 15.5265 62.7511 14.7545 62.7511H11.6053V65.7438Z" fill="#E20613"/>
<path fill-rule="evenodd" clip-rule="evenodd" d="M23.7307 60.124H27.7475V68.318C27.7475 69.2221 27.9547 69.8642 28.3712 70.2461C28.7857 70.6301 29.4744 70.8191 30.4334 70.8191C31.3782 70.8191 32.0568 70.6301 32.4692 70.2461C32.8816 69.8642 33.0869 69.2221 33.0869 68.318V60.124H37.1483V67.9178C37.1483 69.0149 37.0183 69.8906 36.7562 70.5448C36.4981 71.199 36.0674 71.7496 35.4681 72.2007C34.8382 72.67 34.1088 73.0215 33.2758 73.2551C32.4408 73.4888 31.5021 73.6066 30.4558 73.6066C29.4094 73.6066 28.4687 73.4888 27.6357 73.2551C26.8027 73.0194 26.0713 72.668 25.4435 72.2007C24.838 71.7435 24.4012 71.1868 24.133 70.5306C23.8668 69.8743 23.7327 69.0047 23.7327 67.9178V60.124H23.7307Z" fill="#E20613"/>
<path fill-rule="evenodd" clip-rule="evenodd" d="M39.4095 68.8887H43.3288C43.3552 69.6364 43.6234 70.1992 44.1293 70.575C44.6352 70.9509 45.3747 71.1399 46.35 71.1399C47.1809 71.1399 47.8209 71.0281 48.2781 70.8006C48.7332 70.5771 48.9587 70.2581 48.9587 69.8477C48.9587 69.6404 48.9059 69.4555 48.7982 69.291C48.6905 69.1264 48.5381 69.0025 48.3431 68.9192C48.0465 68.7891 47.3211 68.5839 46.1651 68.3056C45.011 68.0272 44.0358 67.757 43.2434 67.4949C42.0955 67.1211 41.2239 66.6274 40.6266 66.0118C40.0333 65.3982 39.7346 64.681 39.7346 63.8601C39.7346 62.6066 40.3076 61.611 41.4514 60.8735C42.5953 60.1339 44.1455 59.7642 46.1021 59.7642C48.02 59.7642 49.5438 60.1522 50.6694 60.9304C51.795 61.7085 52.3578 62.761 52.3578 64.0836H48.5137C48.4264 63.4721 48.1663 63.021 47.7295 62.7305C47.2906 62.44 46.6628 62.2937 45.84 62.2937C45.1817 62.2937 44.6494 62.4054 44.2369 62.6289C43.8265 62.8524 43.6193 63.1348 43.6193 63.4802C43.6193 64.0613 44.5966 64.6099 46.5531 65.1279C46.9066 65.2214 47.1769 65.2925 47.3638 65.3413L47.5263 65.3839C49.5459 65.9244 50.8096 66.3612 51.3155 66.6944C51.8275 67.0378 52.2196 67.4441 52.4858 67.9094C52.754 68.3767 52.886 68.8948 52.886 69.4637C52.886 70.768 52.2786 71.7859 51.0636 72.5133C49.8466 73.2386 48.1419 73.6023 45.9477 73.6023C43.8773 73.6023 42.2987 73.2143 41.2158 72.43C40.1349 71.6559 39.5314 70.4734 39.4095 68.8887Z" fill="#E20613"/>
<path fill-rule="evenodd" clip-rule="evenodd" d="M54.9442 68.8887H58.8634C58.8919 69.6364 59.158 70.1992 59.6639 70.575C60.1698 70.9509 60.9094 71.1399 61.8826 71.1399C62.7136 71.1399 63.3556 71.0281 63.8107 70.8006C64.2658 70.5771 64.4934 70.2581 64.4934 69.8477C64.4934 69.6404 64.4385 69.4555 64.3308 69.291C64.2211 69.1264 64.0708 69.0025 63.8757 68.9192C63.5791 68.7891 62.8538 68.5839 61.6997 68.3056C60.5437 68.0272 59.5705 67.757 58.7761 67.4949C57.6281 67.1211 56.7565 66.6274 56.1612 66.0118C55.5659 65.3982 55.2673 64.681 55.2673 63.8601C55.2673 62.6066 55.8402 61.611 56.9841 60.8735C58.1279 60.1339 59.6782 59.7642 61.6347 59.7642C63.5547 59.7642 65.0785 60.1522 66.2041 60.9304C67.3297 61.7085 67.8925 62.761 67.8925 64.0836H64.0464C63.9611 63.4721 63.699 63.021 63.2621 62.7305C62.8253 62.44 62.1955 62.2937 61.3726 62.2937C60.7164 62.2937 60.182 62.4054 59.7696 62.6289C59.3592 62.8524 59.1519 63.1348 59.1519 63.4802C59.1519 64.0613 60.1312 64.6099 62.0858 65.1279C62.4393 65.2214 62.7095 65.2925 62.8985 65.3413L63.059 65.3839C65.0805 65.9244 66.3423 66.3612 66.8482 66.6944C67.3602 67.0378 67.7523 67.4441 68.0184 67.9094C68.2866 68.3767 68.4207 68.8948 68.4207 69.4637C68.4207 70.768 67.8132 71.7859 66.5962 72.5133C65.3792 73.2386 63.6746 73.6023 61.4803 73.6023C59.41 73.6023 57.8333 73.2143 56.7504 72.43C55.6716 71.6559 55.0681 70.4734 54.9442 68.8887Z" fill="#E20613"/>
<path d="M75.0076 60.1235H70.936V73.2424H75.0076V60.1235Z" fill="#E20613"/>
<path fill-rule="evenodd" clip-rule="evenodd" d="M82.4113 60.1235H86.873L92.5029 73.2424H88.1184L87.1452 70.8369H81.818L80.9098 73.2424H76.6777L82.4113 60.1235ZM82.7933 68.1225H86.2777L84.504 63.5958L82.7933 68.1225Z" fill="#E20613"/>
<path fill-rule="evenodd" clip-rule="evenodd" d="M36.1039 44.878C36.1039 48.653 35.2181 51.2333 33.4464 52.625C31.6748 54.0127 28.0847 54.7096 22.6762 54.7096H7.43616V7.45752H22.1358C27.5463 7.45752 31.1445 8.16863 32.9385 9.58881C34.7305 11.009 35.6285 13.5974 35.6285 17.3521V21.4887C35.6285 24.0974 35.0535 26.0662 33.9097 27.3909C32.7638 28.7156 30.8438 29.6116 28.1497 30.0789C30.8214 30.2048 32.8146 31.05 34.1311 32.6084C35.4457 34.1667 36.1039 36.4727 36.1039 39.5305V44.878ZM18.3181 26.8037H21.3718C22.729 26.8037 23.6311 26.5701 24.0761 26.1028C24.521 25.6355 24.7445 24.7456 24.7445 23.429V19.1989C24.7445 17.8844 24.521 16.9884 24.0761 16.5109C23.6311 16.0335 22.729 15.7958 21.3718 15.7958H18.3181V26.8037ZM18.3181 34.122V46.4364H21.6278C22.985 46.4364 23.8912 46.1966 24.3483 45.7192C24.8034 45.2437 25.031 44.3477 25.031 43.0312V37.5577C25.031 36.2432 24.7973 35.3411 24.3321 34.8534C23.8648 34.3658 22.9627 34.122 21.6278 34.122H18.3181Z" fill="white"/>
<path fill-rule="evenodd" clip-rule="evenodd" d="M50.1981 38.9268V43.5083C50.1981 44.7396 50.4419 45.6092 50.9295 46.1171C51.4192 46.6271 52.2461 46.881 53.4123 46.881C54.6842 46.881 55.5456 46.6372 55.9906 46.1496C56.4355 45.66 56.659 44.7396 56.659 43.3824V40.0402C56.659 39.0202 56.5961 38.2685 56.4681 37.7809C56.3421 37.2933 56.1288 36.8585 55.8321 36.4765C55.1088 35.6069 53.4469 34.8877 50.8381 34.3127C49.6496 34.0587 48.7271 33.8373 48.0709 33.6443C45.0152 32.7747 42.9143 31.5597 41.7705 30.0014C40.6246 28.443 40.0516 25.9867 40.0516 22.6343V18.2742C40.0516 14.0319 40.8745 11.0737 42.5182 9.39753C44.1618 7.72135 47.0103 6.88428 51.0616 6.88428H54.3063C56.8521 6.88428 58.9407 7.10167 60.5762 7.53646C62.2097 7.97126 63.4918 8.66611 64.4243 9.62103C65.1659 10.3626 65.686 11.3074 65.9827 12.4533C66.2793 13.5992 66.4276 15.4338 66.4276 17.9593V21.6184H56.6611V18.6562C56.6611 17.171 56.464 16.1856 56.0719 15.6979C55.6797 15.2103 54.8792 14.9665 53.6704 14.9665C52.5021 14.9665 51.7138 15.1941 51.2993 15.6512C50.8869 16.1084 50.6796 16.9617 50.6796 18.2112V21.2669C50.6796 23.5791 52.6504 25.2329 56.5981 26.2305C57.7216 26.5291 58.6136 26.7709 59.2698 26.9639C62.3012 27.8112 64.3878 28.9997 65.5215 30.5276C66.6572 32.0534 67.2261 34.4732 67.2261 37.7809V44.1443C67.2261 48.0899 66.2874 50.9323 64.4081 52.6715C62.5308 54.4106 59.471 55.2802 55.2287 55.2802H52.301C47.6341 55.2802 44.426 54.4858 42.6766 52.8929C40.9253 51.3021 40.0516 48.3662 40.0516 44.0793V38.9247H50.1981V38.9268Z" fill="white"/>
<path fill-rule="evenodd" clip-rule="evenodd" d="M70.6881 54.7076V7.45752H91.4667V15.9217H81.6981V26.3588H90.8612V34.504H81.6981V46.2434H92.387V54.7076H70.6881Z" fill="white"/>
</svg>
