<svg width="350" height="350" viewBox="0 0 350 350" fill="none" xmlns="http://www.w3.org/2000/svg">
<g filter="url(#filter0_b_0_4107)">
<circle cx="175.139" cy="175" r="110" fill="url(#paint0_radial_0_4107)" fill-opacity="0.7"/>
</g>
<g filter="url(#filter1_f_0_4107)">
<circle cx="175.139" cy="175" r="109.861" stroke="url(#paint1_linear_0_4107)" stroke-width="10"/>
</g>
<g filter="url(#filter2_f_0_4107)">
<circle cx="175.139" cy="175" r="109.861" stroke="url(#paint2_linear_0_4107)" stroke-width="6"/>
</g>
<circle cx="175.139" cy="175" r="109.861" stroke="url(#paint3_linear_0_4107)" stroke-width="3"/>
<circle cx="175.139" cy="175" r="109.861" stroke="white"/>
<g filter="url(#filter3_f_0_4107)">
<circle cx="175.139" cy="175" r="67" stroke="url(#paint4_linear_0_4107)" stroke-width="10"/>
</g>
<g filter="url(#filter4_f_0_4107)">
<circle cx="175.139" cy="175" r="67" stroke="url(#paint5_linear_0_4107)" stroke-width="6"/>
</g>
<circle cx="175.139" cy="175" r="67" stroke="url(#paint6_linear_0_4107)" stroke-width="3"/>
<circle cx="175.139" cy="175" r="67" stroke="white"/>
<path d="M174.508 93.216C173.34 93.216 172.292 92.968 171.364 92.472C170.436 91.96 169.708 91.256 169.18 90.36L170.476 89.568C170.876 90.272 171.42 90.816 172.108 91.2C172.796 91.584 173.588 91.776 174.484 91.776C175.7 91.776 176.66 91.464 177.364 90.84C178.084 90.2 178.444 89.352 178.444 88.296C178.444 87.624 178.292 87.032 177.988 86.52C177.7 85.992 177.284 85.584 176.74 85.296C176.196 85.008 175.54 84.864 174.772 84.864H173.14V83.52H174.796C175.388 83.52 175.908 83.384 176.356 83.112C176.804 82.824 177.156 82.448 177.412 81.984C177.668 81.52 177.796 81 177.796 80.424C177.796 79.8 177.652 79.256 177.364 78.792C177.092 78.328 176.7 77.96 176.188 77.688C175.692 77.416 175.108 77.28 174.436 77.28C173.62 77.28 172.9 77.464 172.276 77.832C171.652 78.2 171.156 78.712 170.788 79.368L169.564 78.552C170.06 77.672 170.716 76.984 171.532 76.488C172.364 75.992 173.356 75.744 174.508 75.744C175.484 75.744 176.332 75.936 177.052 76.32C177.788 76.688 178.364 77.208 178.78 77.88C179.212 78.536 179.428 79.312 179.428 80.208C179.428 81.072 179.212 81.856 178.78 82.56C178.364 83.248 177.756 83.768 176.956 84.12C177.964 84.392 178.74 84.92 179.284 85.704C179.844 86.488 180.124 87.4 180.124 88.44C180.124 89.432 179.884 90.288 179.404 91.008C178.924 91.712 178.26 92.256 177.412 92.64C176.58 93.024 175.612 93.216 174.508 93.216Z" fill="white"/>
<path d="M198.617 78.7583L199.989 79.1105L202.609 97.3759L200.888 96.9342L200.075 91.2245L192.659 89.3205L189.219 93.938L187.476 93.4903L198.617 78.7583ZM200.031 89.8504L198.802 80.8376L193.336 88.1315L200.031 89.8504Z" fill="white"/>
<path d="M208.542 99.9097L216.751 84.9774L228.024 91.1747L219.815 106.107L218.342 105.298L225.835 91.6693L217.506 87.0907L210.014 100.719L208.542 99.9097Z" fill="white"/>
<path d="M225.799 110.385L237.464 97.9634L238.671 99.097L228.584 109.839L246.369 106.326L247.506 107.394L235.842 119.815L234.634 118.682L244.541 108.132L227.024 111.535L225.799 110.385Z" fill="white"/>
<path d="M247.357 120.224C248.235 119.666 249.187 119.27 250.213 119.036C251.262 118.807 252.314 118.764 253.372 118.908C254.443 119.043 255.451 119.407 256.397 120.001C257.356 120.586 258.178 121.419 258.864 122.5C259.678 123.783 260.076 125.066 260.056 126.349C260.058 127.636 259.737 128.787 259.092 129.802L257.696 129.125C258.134 128.412 258.385 127.703 258.45 126.998C258.528 126.285 258.477 125.607 258.296 124.964C258.124 124.334 257.87 123.756 257.536 123.229C256.987 122.365 256.327 121.713 255.556 121.274C254.798 120.826 253.983 120.557 253.111 120.466C252.26 120.381 251.404 120.45 250.543 120.675C249.694 120.891 248.905 121.231 248.176 121.693C247.379 122.199 246.701 122.819 246.143 123.552C245.585 124.285 245.177 125.075 244.918 125.921C244.673 126.759 244.587 127.609 244.661 128.472C244.757 129.34 245.049 130.159 245.538 130.929C245.881 131.469 246.327 131.963 246.876 132.41C247.425 132.858 248.05 133.2 248.75 133.438C249.459 133.689 250.219 133.766 251.029 133.669L251.167 135.23C250.262 135.387 249.363 135.314 248.469 135.01C247.574 134.705 246.755 134.25 246.009 133.643C245.273 133.049 244.673 132.387 244.21 131.658C243.584 130.672 243.219 129.634 243.115 128.544C243.024 127.445 243.137 126.369 243.454 125.316C243.792 124.267 244.298 123.302 244.97 122.42C245.656 121.53 246.452 120.798 247.357 120.224Z" fill="white"/>
<path d="M268.68 143.635L269.117 144.982L255.099 156.981L254.55 155.292L258.935 151.545L256.569 144.264L250.827 143.833L250.271 142.121L268.68 143.635ZM260.072 150.772L267.023 144.905L257.936 144.198L260.072 150.772Z" fill="white"/>
<path d="M272.498 175.683L272.117 169.623L256.595 170.6L256.49 168.923L272.011 167.946L271.63 161.886L273.115 161.793L273.983 175.59L272.498 175.683Z" fill="white"/>
<path d="M256.113 185.779L272.851 188.972L272.536 190.622L266.029 189.381L265.22 193.624C264.989 194.834 264.585 195.8 264.008 196.52C263.431 197.241 262.719 197.724 261.874 197.97C261.026 198.232 260.091 198.265 259.07 198.07C258.143 197.894 257.323 197.534 256.613 196.991C255.902 196.448 255.393 195.74 255.087 194.867C254.782 193.995 254.741 192.969 254.966 191.79L256.113 185.779ZM257.189 187.694L256.397 191.843C256.22 192.771 256.251 193.55 256.489 194.182C256.742 194.817 257.128 195.314 257.646 195.673C258.176 196.051 258.756 196.3 259.385 196.42C260.045 196.546 260.68 196.545 261.291 196.417C261.902 196.29 262.434 195.976 262.888 195.476C263.341 194.976 263.663 194.231 263.851 193.241L264.638 189.115L257.189 187.694Z" fill="white"/>
<path d="M259.786 207.005C260.727 207.448 261.571 208.04 262.319 208.781C263.074 209.543 263.675 210.409 264.12 211.379C264.58 212.355 264.812 213.402 264.818 214.519C264.837 215.642 264.574 216.783 264.029 217.941C263.382 219.316 262.512 220.339 261.419 221.009C260.333 221.701 259.189 222.046 257.986 222.046L257.81 220.505C258.647 220.492 259.38 220.324 260.01 220.001C260.653 219.685 261.198 219.279 261.645 218.781C262.084 218.298 262.437 217.775 262.702 217.21C263.138 216.284 263.335 215.377 263.292 214.49C263.264 213.611 263.055 212.778 262.664 211.993C262.281 211.229 261.763 210.544 261.112 209.937C260.475 209.336 259.765 208.852 258.984 208.484C258.129 208.082 257.243 207.842 256.325 207.764C255.407 207.686 254.522 207.764 253.668 207.999C252.83 208.241 252.066 208.624 251.377 209.149C250.695 209.695 250.161 210.38 249.772 211.205C249.5 211.784 249.322 212.426 249.238 213.129C249.155 213.832 249.201 214.544 249.375 215.262C249.543 215.996 249.885 216.678 250.401 217.31L249.157 218.263C248.539 217.583 248.12 216.785 247.897 215.867C247.675 214.949 247.62 214.012 247.734 213.058C247.84 212.117 248.077 211.256 248.445 210.475C248.942 209.418 249.623 208.553 250.488 207.881C251.366 207.216 252.336 206.735 253.395 206.438C254.462 206.162 255.548 206.072 256.652 206.167C257.771 206.269 258.816 206.549 259.786 207.005Z" fill="white"/>
<path d="M241.749 222.541L244.408 230.659C245.415 229.894 246.472 229.532 247.579 229.575C248.675 229.631 249.691 230.046 250.628 230.821C251.331 231.403 251.823 232.1 252.105 232.915C252.388 233.752 252.431 234.628 252.234 235.545C252.049 236.471 251.589 237.379 250.855 238.266L247.489 242.334L234.36 231.473L235.415 230.197L240.815 234.664L242.758 232.315C242.819 232.241 242.885 232.161 242.957 232.075C243.018 232.001 243.079 231.927 243.14 231.853L240.525 224.02L241.749 222.541ZM244.207 232.86L241.943 235.597L247.417 240.125L249.62 237.462C250.119 236.858 250.457 236.224 250.633 235.56C250.809 234.895 250.807 234.271 250.626 233.685C250.446 233.1 250.085 232.583 249.542 232.134C249 231.686 248.422 231.405 247.809 231.292C247.196 231.18 246.583 231.243 245.969 231.483C245.345 231.735 244.758 232.194 244.207 232.86Z" fill="white"/>
<path d="M204.88 269.532L198.608 253.689L200.147 253.079L203.08 260.488L212.475 256.768L209.542 249.36L211.104 248.741L217.377 264.585L215.815 265.203L213.023 258.152L203.628 261.871L206.42 268.923L204.88 269.532Z" fill="white"/>
<path d="M187.752 273.151L186.347 273.328L177.187 257.31L178.949 257.087L181.808 262.097L189.403 261.137L190.902 255.577L192.688 255.352L187.752 273.151ZM182.354 263.358L186.815 271.285L189.211 262.492L182.354 263.358Z" fill="white"/>
<path d="M132.287 263.134L137.933 265.369L143.658 250.909L145.22 251.527L139.495 265.987L145.14 268.223L144.592 269.606L131.739 264.517L132.287 263.134Z" fill="white"/>
<path d="M120.461 238.825L121.336 237.621L130.597 244.35L120.581 258.135L111.494 251.533L112.369 250.33L120.097 255.944L123.708 250.974L116.971 246.078L117.803 244.933L124.54 249.828L128.363 244.566L120.461 238.825Z" fill="white"/>
<path d="M109.359 238.295C108.557 238.958 107.662 239.47 106.674 239.831C105.662 240.19 104.623 240.365 103.556 240.355C102.476 240.355 101.43 240.12 100.418 239.649C99.3931 239.189 98.4728 238.465 97.6569 237.479C96.688 236.308 96.1332 235.085 95.9923 233.81C95.8289 232.533 96.0032 231.351 96.5151 230.263L97.9853 230.76C97.6404 231.523 97.48 232.257 97.5041 232.964C97.5159 233.681 97.6518 234.348 97.9118 234.963C98.1616 235.566 98.4854 236.108 98.8831 236.589C99.5359 237.378 100.272 237.942 101.093 238.281C101.901 238.63 102.743 238.795 103.62 238.776C104.474 238.754 105.315 238.578 106.142 238.247C106.956 237.926 107.696 237.49 108.362 236.94C109.089 236.338 109.684 235.638 110.145 234.841C110.607 234.044 110.913 233.209 111.064 232.337C111.202 231.475 111.181 230.621 110.999 229.774C110.796 228.925 110.403 228.149 109.822 227.447C109.414 226.953 108.909 226.519 108.308 226.144C107.707 225.769 107.045 225.508 106.32 225.36C105.585 225.199 104.822 225.218 104.03 225.416L103.698 223.885C104.576 223.615 105.477 223.576 106.402 223.765C107.328 223.955 108.198 224.304 109.014 224.813C109.819 225.31 110.497 225.891 111.048 226.557C111.792 227.457 112.285 228.441 112.525 229.509C112.752 230.587 112.775 231.669 112.593 232.754C112.388 233.837 112.008 234.858 111.451 235.817C110.882 236.786 110.185 237.612 109.359 238.295Z" fill="white"/>
<path d="M83.3794 210.229L85.9647 215.723L100.037 209.102L100.752 210.622L86.68 217.244L89.2653 222.738L87.919 223.371L82.033 210.863L83.3794 210.229Z" fill="white"/>
<path d="M88.9002 194.24L87.415 194.523L86.1018 187.639L87.587 187.356L88.9002 194.24Z" fill="white"/>
<path d="M95.5319 177.442L90.7893 177.143L90.8345 176.425C90.8626 175.978 90.7036 175.575 90.3574 175.217C90.0123 174.842 89.44 174.51 88.6407 174.219C87.8264 173.911 86.7292 173.642 85.349 173.41C83.9697 173.163 82.2522 172.943 80.1963 172.75L75.5091 172.335L76.1496 162.155L91.6709 163.131L91.799 161.095L96.5416 161.394L96.4482 162.879L93.1906 162.674L92.3678 175.752L95.6253 175.957L95.5319 177.442ZM90.9852 174.03L91.5654 164.808L77.5291 163.925L77.0906 170.895L80.4859 171.205C82.6386 171.388 84.436 171.614 85.8781 171.881C87.3052 172.131 88.4323 172.434 89.2596 172.791C90.0708 173.146 90.6461 173.559 90.9852 174.03Z" fill="white"/>
<path d="M95.1344 154.067L78.9283 148.801L81.1088 142.09C81.3362 141.391 81.6884 140.798 82.1654 140.314C82.6474 139.815 83.2087 139.433 83.8492 139.17C84.4746 138.903 85.1312 138.746 85.819 138.7C86.4916 138.649 87.1398 138.725 87.7637 138.928C88.6463 139.215 89.4189 139.685 90.0817 140.337C90.7341 140.97 91.1901 141.715 91.4496 142.574C91.7091 143.432 91.6856 144.333 91.379 145.276L89.6733 150.526L95.6535 152.469L95.1344 154.067ZM88.2581 150.066L89.9416 144.885C90.1493 144.246 90.1547 143.633 89.958 143.048C89.7613 142.462 89.4235 141.949 88.9445 141.507C88.4655 141.066 87.8989 140.739 87.2445 140.526C86.575 140.308 85.9093 140.26 85.2474 140.382C84.5854 140.503 84.0131 140.763 83.5304 141.161C83.0374 141.54 82.6945 142.025 82.5017 142.619L80.8627 147.663L88.2581 150.066Z" fill="white"/>
<path d="M90.5982 122.403L91.3569 121.207L109.538 124.36L108.586 125.86L102.905 124.869L98.8023 131.333L102.131 136.032L101.166 137.552L90.5982 122.403ZM101.584 124.486L92.6328 122.87L97.8807 130.322L101.584 124.486Z" fill="white"/>
<path d="M113.45 119.811L101.785 107.39L102.992 106.256L113.08 116.998L110.69 99.0272L111.828 97.9593L123.492 110.381L122.285 111.514L112.378 100.965L114.675 118.661L113.45 119.811ZM105.838 101.608C105.267 102.145 104.706 102.518 104.156 102.727C103.607 102.913 103.096 102.954 102.624 102.849C102.141 102.732 101.729 102.504 101.389 102.165L102.351 101.261C102.648 101.553 103.028 101.712 103.491 101.738C103.966 101.753 104.518 101.465 105.148 100.873C105.755 100.304 106.076 99.7934 106.113 99.3417C106.139 98.8785 105.999 98.4722 105.693 98.123L106.655 97.2194C106.972 97.5803 107.174 98.0054 107.26 98.4949C107.336 98.9727 107.263 99.4798 107.043 100.016C106.823 100.53 106.421 101.061 105.838 101.608Z" fill="white"/>
<path d="M139.611 95.5217C140.019 96.2648 140.196 97.0349 140.141 97.8319C140.079 98.6149 139.817 99.3519 139.358 100.043C138.904 100.712 138.298 101.255 137.541 101.671L130.496 105.545L122.287 90.6124L129.479 86.6581C130.181 86.2727 130.887 86.1306 131.6 86.2316C132.32 86.311 132.974 86.5719 133.564 87.0143C134.161 87.435 134.632 87.9608 134.979 88.5917C135.388 89.3348 135.576 90.1259 135.545 90.965C135.513 91.804 135.245 92.5628 134.742 93.2412C135.736 93.0234 136.667 93.1231 137.536 93.5404C138.418 93.9499 139.11 94.6104 139.611 95.5217ZM138 96.0787C137.722 95.5739 137.356 95.1729 136.9 94.8756C136.437 94.5643 135.936 94.3834 135.397 94.3328C134.872 94.2745 134.364 94.3803 133.873 94.65L128.153 97.7949L131.263 103.452L136.836 100.388C137.341 100.111 137.723 99.7272 137.983 99.2373C138.244 98.7473 138.377 98.2265 138.384 97.6749C138.398 97.1015 138.27 96.5694 138 96.0787ZM124.464 91.0859L127.494 96.5961L132.625 93.775C133.116 93.5052 133.481 93.1401 133.721 92.6796C133.953 92.2051 134.066 91.6958 134.059 91.1519C134.052 90.6079 133.917 90.0976 133.655 89.6209C133.378 89.1161 133.022 88.7182 132.588 88.4273C132.147 88.1223 131.674 87.9438 131.171 87.8918C130.668 87.8398 130.185 87.941 129.722 88.1954L124.464 91.0859Z" fill="white"/>
<path d="M203.73 175L204.699 175.969L205.668 175L204.699 174.032L203.73 175ZM182.787 155.993L202.762 175.969L204.699 174.032L184.724 154.056L182.787 155.993ZM202.762 174.032L182.787 194.007L184.724 195.944L204.699 175.969L202.762 174.032ZM203.731 173.631H146.658V176.37H203.731V173.631Z" fill="white"/>
<defs>
<filter id="filter0_b_0_4107" x="24.0466" y="23.9079" width="302.184" height="302.184" filterUnits="userSpaceOnUse" color-interpolation-filters="sRGB">
<feFlood flood-opacity="0" result="BackgroundImageFix"/>
<feGaussianBlur in="BackgroundImageFix" stdDeviation="20.546"/>
<feComposite in2="SourceAlpha" operator="in" result="effect1_backgroundBlur_0_4107"/>
<feBlend mode="normal" in="SourceGraphic" in2="effect1_backgroundBlur_0_4107" result="shape"/>
</filter>
<filter id="filter1_f_0_4107" x="0.277344" y="0.138672" width="349.723" height="349.723" filterUnits="userSpaceOnUse" color-interpolation-filters="sRGB">
<feFlood flood-opacity="0" result="BackgroundImageFix"/>
<feBlend mode="normal" in="SourceGraphic" in2="BackgroundImageFix" result="shape"/>
<feGaussianBlur stdDeviation="30" result="effect1_foregroundBlur_0_4107"/>
</filter>
<filter id="filter2_f_0_4107" x="47.2773" y="47.1387" width="255.723" height="255.723" filterUnits="userSpaceOnUse" color-interpolation-filters="sRGB">
<feFlood flood-opacity="0" result="BackgroundImageFix"/>
<feBlend mode="normal" in="SourceGraphic" in2="BackgroundImageFix" result="shape"/>
<feGaussianBlur stdDeviation="7.5" result="effect1_foregroundBlur_0_4107"/>
</filter>
<filter id="filter3_f_0_4107" x="43.1387" y="43" width="264" height="264" filterUnits="userSpaceOnUse" color-interpolation-filters="sRGB">
<feFlood flood-opacity="0" result="BackgroundImageFix"/>
<feBlend mode="normal" in="SourceGraphic" in2="BackgroundImageFix" result="shape"/>
<feGaussianBlur stdDeviation="30" result="effect1_foregroundBlur_0_4107"/>
</filter>
<filter id="filter4_f_0_4107" x="90.1387" y="90" width="170" height="170" filterUnits="userSpaceOnUse" color-interpolation-filters="sRGB">
<feFlood flood-opacity="0" result="BackgroundImageFix"/>
<feBlend mode="normal" in="SourceGraphic" in2="BackgroundImageFix" result="shape"/>
<feGaussianBlur stdDeviation="7.5" result="effect1_foregroundBlur_0_4107"/>
</filter>
<radialGradient id="paint0_radial_0_4107" cx="0" cy="0" r="1" gradientUnits="userSpaceOnUse" gradientTransform="translate(175.139 175) rotate(90) scale(110)">
<stop offset="0.341058"/>
<stop offset="1" stop-opacity="0"/>
</radialGradient>
<linearGradient id="paint1_linear_0_4107" x1="65.2773" y1="65.1387" x2="292.339" y2="73.0042" gradientUnits="userSpaceOnUse">
<stop stop-color="#BC000B"/>
<stop offset="1" stop-color="#BD6600"/>
</linearGradient>
<linearGradient id="paint2_linear_0_4107" x1="65.2773" y1="65.1387" x2="292.339" y2="73.0042" gradientUnits="userSpaceOnUse">
<stop stop-color="#BC000B"/>
<stop offset="1" stop-color="#BD6600"/>
</linearGradient>
<linearGradient id="paint3_linear_0_4107" x1="65.2773" y1="65.1387" x2="292.339" y2="73.0042" gradientUnits="userSpaceOnUse">
<stop stop-color="#BC000B"/>
<stop offset="1" stop-color="#BD6600"/>
</linearGradient>
<linearGradient id="paint4_linear_0_4107" x1="108.139" y1="108" x2="246.614" y2="112.797" gradientUnits="userSpaceOnUse">
<stop stop-color="#BC000B"/>
<stop offset="1" stop-color="#BD6600"/>
</linearGradient>
<linearGradient id="paint5_linear_0_4107" x1="108.139" y1="108" x2="246.614" y2="112.797" gradientUnits="userSpaceOnUse">
<stop stop-color="#BC000B"/>
<stop offset="1" stop-color="#BD6600"/>
</linearGradient>
<linearGradient id="paint6_linear_0_4107" x1="108.139" y1="108" x2="246.614" y2="112.797" gradientUnits="userSpaceOnUse">
<stop stop-color="#BC000B"/>
<stop offset="1" stop-color="#BD6600"/>
</linearGradient>
</defs>
</svg>
