<svg width="264" height="264" viewBox="0 0 264 264" fill="none" xmlns="http://www.w3.org/2000/svg">
<g filter="url(#filter0_b_0_104)">
<circle cx="132" cy="132" r="110" fill="url(#paint0_radial_0_104)" fill-opacity="0.7"/>
</g>
<path d="M241.134 132C241.134 192.243 192.298 241.079 132.055 241.079C71.8128 241.079 22.9765 192.243 22.9765 132C22.9765 71.7576 71.8128 22.9214 132.055 22.9214C192.298 22.9214 241.134 71.7576 241.134 132Z" stroke="white" stroke-opacity="0.5"/>
<g filter="url(#filter1_f_0_104)">
<circle cx="132" cy="132" r="67" stroke="url(#paint1_linear_0_104)" stroke-width="10"/>
</g>
<g filter="url(#filter2_f_0_104)">
<circle cx="132" cy="132" r="67" stroke="url(#paint2_linear_0_104)" stroke-width="6"/>
</g>
<circle cx="132" cy="132" r="67" stroke="url(#paint3_linear_0_104)" stroke-width="3"/>
<circle cx="132" cy="132" r="67" stroke="white"/>
<path d="M131.369 50.216C130.201 50.216 129.153 49.968 128.225 49.472C127.297 48.96 126.569 48.256 126.041 47.36L127.337 46.568C127.737 47.272 128.281 47.816 128.969 48.2C129.657 48.584 130.449 48.776 131.345 48.776C132.561 48.776 133.521 48.464 134.225 47.84C134.945 47.2 135.305 46.352 135.305 45.296C135.305 44.624 135.153 44.032 134.849 43.52C134.561 42.992 134.145 42.584 133.601 42.296C133.057 42.008 132.401 41.864 131.633 41.864H130.001V40.52H131.657C132.249 40.52 132.769 40.384 133.217 40.112C133.665 39.824 134.017 39.448 134.273 38.984C134.529 38.52 134.657 38 134.657 37.424C134.657 36.8 134.513 36.256 134.225 35.792C133.953 35.328 133.561 34.96 133.049 34.688C132.553 34.416 131.969 34.28 131.297 34.28C130.481 34.28 129.761 34.464 129.137 34.832C128.513 35.2 128.017 35.712 127.649 36.368L126.425 35.552C126.921 34.672 127.577 33.984 128.393 33.488C129.225 32.992 130.217 32.744 131.369 32.744C132.345 32.744 133.193 32.936 133.913 33.32C134.649 33.688 135.225 34.208 135.641 34.88C136.073 35.536 136.289 36.312 136.289 37.208C136.289 38.072 136.073 38.856 135.641 39.56C135.225 40.248 134.617 40.768 133.817 41.12C134.825 41.392 135.601 41.92 136.145 42.704C136.705 43.488 136.985 44.4 136.985 45.44C136.985 46.432 136.745 47.288 136.265 48.008C135.785 48.712 135.121 49.256 134.273 49.64C133.441 50.024 132.473 50.216 131.369 50.216Z" fill="white"/>
<path d="M155.478 35.7583L156.85 36.1105L159.47 54.3759L157.75 53.9342L156.936 48.2245L149.521 46.3205L146.08 50.938L144.337 50.4903L155.478 35.7583ZM156.892 46.8504L155.663 37.8376L150.198 45.1315L156.892 46.8504Z" fill="white"/>
<path d="M165.403 56.9097L173.612 41.9774L184.885 48.1747L176.676 63.1069L175.204 62.2976L182.696 48.6693L174.367 44.0907L166.875 57.719L165.403 56.9097Z" fill="white"/>
<path d="M182.66 67.385L194.325 54.9634L195.532 56.097L185.445 66.839L203.23 63.3258L204.367 64.3937L192.702 76.8153L191.495 75.6817L201.402 65.1321L183.885 68.535L182.66 67.385Z" fill="white"/>
<path d="M204.218 77.2235C205.096 76.6663 206.048 76.2705 207.075 76.0362C208.123 75.8068 209.176 75.7639 210.233 75.9075C211.305 76.0426 212.313 76.4071 213.258 77.001C214.217 77.5863 215.039 78.4193 215.725 79.5001C216.54 80.7835 216.937 82.0663 216.917 83.3487C216.919 84.6359 216.598 85.7872 215.954 86.8025L214.557 86.1252C214.995 85.4116 215.246 84.7026 215.311 83.9983C215.389 83.2854 215.338 82.6073 215.157 81.9641C214.985 81.3344 214.732 80.7561 214.397 80.2292C213.849 79.3646 213.189 78.7128 212.417 78.2737C211.659 77.8261 210.844 77.557 209.972 77.4663C209.122 77.3806 208.266 77.4501 207.404 77.6748C206.556 77.891 205.767 78.2305 205.037 78.6935C204.24 79.1993 203.563 79.8188 203.005 80.5519C202.447 81.285 202.038 82.0748 201.779 82.9212C201.534 83.7591 201.449 84.6094 201.522 85.4721C201.618 86.3398 201.91 87.1587 202.399 87.9287C202.742 88.4691 203.188 88.963 203.737 89.4103C204.287 89.8577 204.911 90.2002 205.612 90.4379C206.321 90.6892 207.08 90.7662 207.89 90.669L208.028 92.2301C207.124 92.3873 206.224 92.3138 205.33 92.0096C204.436 91.7054 203.616 91.2497 202.871 90.6425C202.134 90.0489 201.534 89.3874 201.071 88.6579C200.445 87.6717 200.08 86.6337 199.976 85.5438C199.885 84.4454 199.998 83.3694 200.315 82.3156C200.654 81.2669 201.159 80.3017 201.832 79.4202C202.518 78.5302 203.313 77.798 204.218 77.2235Z" fill="white"/>
<path d="M225.541 100.635L225.979 101.982L211.96 113.981L211.412 112.292L215.797 108.545L213.431 101.264L207.689 100.833L207.132 99.1213L225.541 100.635ZM216.933 107.772L223.884 101.905L214.797 101.198L216.933 107.772Z" fill="white"/>
<path d="M229.359 132.683L228.978 126.623L213.456 127.6L213.351 125.923L228.872 124.946L228.491 118.886L229.976 118.793L230.844 132.59L229.359 132.683Z" fill="white"/>
<path d="M212.974 142.779L229.712 145.972L229.397 147.622L222.89 146.381L222.081 150.624C221.85 151.834 221.446 152.8 220.869 153.52C220.291 154.241 219.58 154.724 218.735 154.97C217.887 155.232 216.952 155.265 215.931 155.07C215.003 154.894 214.184 154.534 213.474 153.991C212.763 153.448 212.254 152.74 211.948 151.867C211.643 150.995 211.602 149.969 211.827 148.79L212.974 142.779ZM214.05 144.694L213.258 148.843C213.081 149.771 213.112 150.55 213.35 151.182C213.603 151.817 213.989 152.314 214.507 152.673C215.037 153.051 215.617 153.3 216.246 153.42C216.906 153.546 217.541 153.545 218.152 153.417C218.763 153.29 219.295 152.976 219.749 152.476C220.202 151.976 220.524 151.231 220.712 150.241L221.499 146.115L214.05 144.694Z" fill="white"/>
<path d="M216.647 164.005C217.588 164.448 218.432 165.04 219.18 165.781C219.935 166.543 220.536 167.409 220.981 168.379C221.441 169.355 221.674 170.402 221.679 171.519C221.698 172.642 221.436 173.783 220.891 174.941C220.243 176.316 219.373 177.339 218.28 178.009C217.194 178.701 216.05 179.046 214.847 179.046L214.671 177.505C215.508 177.492 216.241 177.324 216.871 177.001C217.514 176.685 218.059 176.279 218.506 175.781C218.945 175.298 219.298 174.775 219.563 174.21C219.999 173.284 220.196 172.377 220.153 171.49C220.125 170.611 219.916 169.778 219.525 168.993C219.142 168.229 218.624 167.544 217.973 166.937C217.336 166.336 216.626 165.852 215.845 165.484C214.991 165.082 214.104 164.842 213.186 164.764C212.268 164.686 211.383 164.764 210.529 164.999C209.691 165.241 208.927 165.624 208.238 166.149C207.557 166.695 207.022 167.38 206.633 168.205C206.361 168.784 206.183 169.426 206.1 170.129C206.016 170.832 206.062 171.544 206.236 172.262C206.404 172.996 206.746 173.678 207.262 174.31L206.018 175.263C205.4 174.583 204.981 173.785 204.758 172.867C204.536 171.949 204.482 171.012 204.595 170.058C204.701 169.117 204.938 168.256 205.306 167.475C205.804 166.418 206.484 165.553 207.349 164.881C208.228 164.216 209.197 163.735 210.256 163.438C211.323 163.162 212.409 163.072 213.513 163.167C214.632 163.269 215.677 163.549 216.647 164.005Z" fill="white"/>
<path d="M198.61 179.541L201.269 187.659C202.277 186.894 203.333 186.532 204.44 186.575C205.536 186.631 206.553 187.046 207.489 187.821C208.192 188.403 208.684 189.1 208.966 189.915C209.249 190.752 209.293 191.628 209.095 192.545C208.91 193.471 208.45 194.379 207.716 195.266L204.35 199.334L191.221 188.473L192.276 187.197L197.676 191.664L199.619 189.315C199.68 189.241 199.746 189.161 199.818 189.075C199.879 189.001 199.94 188.927 200.001 188.853L197.386 181.02L198.61 179.541ZM201.068 189.86L198.804 192.597L204.278 197.125L206.481 194.462C206.981 193.858 207.318 193.224 207.494 192.56C207.67 191.895 207.668 191.271 207.487 190.685C207.307 190.1 206.946 189.583 206.403 189.134C205.861 188.686 205.283 188.405 204.67 188.292C204.057 188.18 203.444 188.243 202.83 188.483C202.206 188.735 201.619 189.194 201.068 189.86Z" fill="white"/>
<path d="M161.741 226.532L155.468 210.689L157.008 210.079L159.941 217.488L169.336 213.768L166.403 206.36L167.965 205.741L174.238 221.585L172.675 222.203L169.884 215.152L160.489 218.871L163.281 225.923L161.741 226.532Z" fill="white"/>
<path d="M144.613 230.151L143.208 230.328L134.049 214.31L135.811 214.087L138.669 219.097L146.265 218.137L147.764 212.577L149.549 212.352L144.613 230.151ZM139.215 220.358L143.676 228.285L146.073 219.492L139.215 220.358Z" fill="white"/>
<path d="M89.1484 220.134L94.794 222.369L100.519 207.909L102.081 208.527L96.356 222.987L102.002 225.223L101.454 226.606L88.6006 221.517L89.1484 220.134Z" fill="white"/>
<path d="M77.322 195.825L78.1966 194.621L87.4582 201.35L77.4424 215.135L68.3555 208.533L69.2301 207.33L76.9579 212.944L80.5692 207.974L73.8317 203.078L74.664 201.933L81.4015 206.828L85.2245 201.566L77.322 195.825Z" fill="white"/>
<path d="M66.2198 195.295C65.4184 195.958 64.5234 196.47 63.5347 196.831C62.5234 197.19 61.4842 197.365 60.4169 197.355C59.3373 197.355 58.2913 197.12 57.2789 196.649C56.2542 196.189 55.3339 195.465 54.518 194.479C53.5491 193.308 52.9942 192.085 52.8534 190.81C52.69 189.533 52.8642 188.351 53.3762 187.263L54.8463 187.76C54.5015 188.523 54.3411 189.257 54.3652 189.964C54.377 190.681 54.5129 191.348 54.7729 191.963C55.0227 192.566 55.3465 193.108 55.7442 193.589C56.3969 194.378 57.1334 194.942 57.9537 195.281C58.7617 195.63 59.6041 195.795 60.4809 195.776C61.3353 195.754 62.1758 195.578 63.0026 195.247C63.8171 194.926 64.5572 194.49 65.2229 193.94C65.9502 193.338 66.5448 192.638 67.0065 191.841C67.4683 191.044 67.7745 190.209 67.9251 189.337C68.0634 188.475 68.0419 187.621 67.8606 186.774C67.6567 185.925 67.2641 185.149 66.6828 184.447C66.2748 183.953 65.7704 183.519 65.1694 183.144C64.5685 182.769 63.9057 182.508 63.181 182.36C62.4461 182.199 61.683 182.218 60.8915 182.416L60.559 180.885C61.4367 180.615 62.3383 180.576 63.2635 180.765C64.1888 180.955 65.0593 181.304 65.8748 181.813C66.6802 182.31 67.3582 182.891 67.909 183.557C68.6535 184.457 69.1457 185.441 69.3857 186.509C69.6133 187.587 69.636 188.669 69.4539 189.754C69.2493 190.837 68.8687 191.858 68.3121 192.817C67.7432 193.786 67.0458 194.612 66.2198 195.295Z" fill="white"/>
<path d="M40.2407 167.229L42.826 172.723L56.8979 166.102L57.6132 167.622L43.5413 174.244L46.1267 179.738L44.7803 180.371L38.8943 167.863L40.2407 167.229Z" fill="white"/>
<path d="M45.7614 151.24L44.2762 151.523L42.963 144.639L44.4482 144.356L45.7614 151.24Z" fill="white"/>
<path d="M52.3931 134.442L47.6505 134.143L47.6957 133.425C47.7238 132.978 47.5648 132.575 47.2186 132.217C46.8735 131.842 46.3012 131.51 45.5019 131.219C44.6876 130.911 43.5904 130.642 42.2102 130.41C40.831 130.163 39.1134 129.943 37.0575 129.75L32.3703 129.335L33.0108 119.155L48.5321 120.131L48.6602 118.095L53.4028 118.394L53.3094 119.879L50.0518 119.674L49.229 132.752L52.4866 132.957L52.3931 134.442ZM47.8464 131.03L48.4266 121.808L34.3903 120.925L33.9518 127.895L37.3471 128.205C39.4998 128.388 41.2972 128.614 42.7393 128.881C44.1664 129.131 45.2935 129.434 46.1208 129.791C46.9321 130.146 47.5073 130.559 47.8464 131.03Z" fill="white"/>
<path d="M51.9958 111.067L35.7898 105.801L37.9702 99.0905C38.1977 98.3905 38.5499 97.7984 39.0269 97.3141C39.5088 96.8146 40.0701 96.4333 40.7107 96.1704C41.3361 95.9026 41.9927 95.7458 42.6804 95.7001C43.353 95.6495 44.0012 95.7255 44.6251 95.9282C45.5077 96.215 46.2804 96.6847 46.9431 97.3375C47.5956 97.9701 48.0515 98.7154 48.311 99.5736C48.5705 100.432 48.547 101.333 48.2405 102.276L46.5347 107.526L52.515 109.469L51.9958 111.067ZM45.1195 107.066L46.8031 101.885C47.0107 101.246 47.0162 100.633 46.8195 100.048C46.6228 99.4625 46.2849 98.949 45.8059 98.5073C45.327 98.0657 44.7603 97.7386 44.106 97.526C43.4364 97.3084 42.7707 97.2604 42.1088 97.3818C41.4469 97.5032 40.8746 97.763 40.3919 98.1614C39.8989 98.5395 39.556 99.0253 39.3631 99.6188L37.7241 104.663L45.1195 107.066Z" fill="white"/>
<path d="M47.4594 79.403L48.2181 78.2074L66.3991 81.36L65.4475 82.8596L59.7658 81.869L55.6635 88.3331L58.9919 93.032L58.0274 94.5518L47.4594 79.403ZM58.4456 81.4859L49.494 79.8698L54.7419 87.3219L58.4456 81.4859Z" fill="white"/>
<path d="M70.3111 76.8112L58.6464 64.3896L59.8536 63.256L69.9411 73.9981L67.5515 56.0272L68.6887 54.9593L80.3534 67.3809L79.1462 68.5145L69.2395 57.9649L71.5358 75.6612L70.3111 76.8112ZM62.6993 58.6083C62.1278 59.145 61.5671 59.5179 61.0172 59.727C60.468 59.9135 59.9574 59.954 59.4853 59.8486C59.0022 59.7316 58.5906 59.5036 58.2503 59.1646L59.2126 58.261C59.509 58.5533 59.8889 58.7124 60.3521 58.7383C60.8271 58.7532 61.3795 58.4649 62.0093 57.8735C62.6158 57.3039 62.9375 56.7934 62.9743 56.3417C63.0002 55.8785 62.8601 55.4722 62.5542 55.123L63.5164 54.2194C63.8333 54.5803 64.035 55.0054 64.1215 55.4949C64.1971 55.9727 64.1245 56.4798 63.9039 57.0162C63.684 57.5299 63.2825 58.0606 62.6993 58.6083Z" fill="white"/>
<path d="M96.4719 52.5217C96.8805 53.2648 97.0573 54.0349 97.0025 54.8319C96.94 55.6149 96.6787 56.3519 96.2187 57.043C95.7651 57.7123 95.1597 58.2551 94.4026 58.6713L87.3571 62.5446L79.148 47.6124L86.3407 43.6581C87.0417 43.2727 87.7487 43.1306 88.4616 43.2316C89.1808 43.311 89.8354 43.5719 90.4255 44.0143C91.022 44.435 91.4937 44.9608 91.8405 45.5917C92.249 46.3348 92.4375 47.1259 92.4058 47.965C92.3741 48.804 92.1065 49.5628 91.6031 50.2412C92.5971 50.0234 93.5283 50.1231 94.3967 50.5404C95.2792 50.9499 95.9709 51.6104 96.4719 52.5217ZM94.861 53.0787C94.5835 52.5739 94.217 52.1729 93.7614 51.8756C93.2981 51.5643 92.797 51.3834 92.2579 51.3328C91.7329 51.2745 91.225 51.3803 90.7343 51.65L85.0138 54.7949L88.124 60.4524L93.6973 57.3884C94.202 57.1109 94.5845 56.7272 94.8446 56.2373C95.1048 55.7473 95.2384 55.2265 95.2455 54.6749C95.259 54.1015 95.1308 53.5694 94.861 53.0787ZM81.3255 48.0859L84.3547 53.5961L89.4864 50.775C89.9771 50.5052 90.3424 50.1401 90.5822 49.6796C90.8143 49.2051 90.9269 48.6958 90.92 48.1519C90.9131 47.6079 90.7786 47.0976 90.5165 46.6209C90.239 46.1161 89.8834 45.7182 89.4495 45.4273C89.008 45.1223 88.5356 44.9438 88.0323 44.8918C87.529 44.8398 87.046 44.941 86.5833 45.1954L81.3255 48.0859Z" fill="white"/>
<path d="M160.592 132L161.56 132.969L162.529 132L161.56 131.032L160.592 132ZM139.648 112.993L159.623 132.969L161.56 131.032L141.585 111.056L139.648 112.993ZM159.623 131.032L139.648 151.007L141.585 152.944L161.56 132.969L159.623 131.032ZM160.592 130.631H103.519V133.37H160.592V130.631Z" fill="url(#paint4_linear_0_104)"/>
<defs>
<filter id="filter0_b_0_104" x="-19.0921" y="-19.0921" width="302.184" height="302.184" filterUnits="userSpaceOnUse" color-interpolation-filters="sRGB">
<feFlood flood-opacity="0" result="BackgroundImageFix"/>
<feGaussianBlur in="BackgroundImageFix" stdDeviation="20.546"/>
<feComposite in2="SourceAlpha" operator="in" result="effect1_backgroundBlur_0_104"/>
<feBlend mode="normal" in="SourceGraphic" in2="effect1_backgroundBlur_0_104" result="shape"/>
</filter>
<filter id="filter1_f_0_104" x="0" y="0" width="264" height="264" filterUnits="userSpaceOnUse" color-interpolation-filters="sRGB">
<feFlood flood-opacity="0" result="BackgroundImageFix"/>
<feBlend mode="normal" in="SourceGraphic" in2="BackgroundImageFix" result="shape"/>
<feGaussianBlur stdDeviation="30" result="effect1_foregroundBlur_0_104"/>
</filter>
<filter id="filter2_f_0_104" x="47" y="47" width="170" height="170" filterUnits="userSpaceOnUse" color-interpolation-filters="sRGB">
<feFlood flood-opacity="0" result="BackgroundImageFix"/>
<feBlend mode="normal" in="SourceGraphic" in2="BackgroundImageFix" result="shape"/>
<feGaussianBlur stdDeviation="7.5" result="effect1_foregroundBlur_0_104"/>
</filter>
<radialGradient id="paint0_radial_0_104" cx="0" cy="0" r="1" gradientUnits="userSpaceOnUse" gradientTransform="translate(132 132) rotate(90) scale(110)">
<stop offset="0.341058"/>
<stop offset="1" stop-opacity="0"/>
</radialGradient>
<linearGradient id="paint1_linear_0_104" x1="65" y1="65" x2="203.476" y2="69.7969" gradientUnits="userSpaceOnUse">
<stop stop-color="#BC000B"/>
<stop offset="1" stop-color="#BD6600"/>
</linearGradient>
<linearGradient id="paint2_linear_0_104" x1="65" y1="65" x2="203.476" y2="69.7969" gradientUnits="userSpaceOnUse">
<stop stop-color="#BC000B"/>
<stop offset="1" stop-color="#BD6600"/>
</linearGradient>
<linearGradient id="paint3_linear_0_104" x1="65" y1="65" x2="203.476" y2="69.7969" gradientUnits="userSpaceOnUse">
<stop stop-color="#BC000B"/>
<stop offset="1" stop-color="#BD6600"/>
</linearGradient>
<linearGradient id="paint4_linear_0_104" x1="103.519" y1="112.025" x2="162.424" y2="114.94" gradientUnits="userSpaceOnUse">
<stop stop-color="#BC000B"/>
<stop offset="1" stop-color="#BD6600"/>
</linearGradient>
</defs>
</svg>
