<svg width="1221" height="393" viewBox="0 0 1221 393" fill="none" xmlns="http://www.w3.org/2000/svg">
<g filter="url(#filter0_f_0_73)">
<mask id="path-1-outside-1_0_73" maskUnits="userSpaceOnUse" x="45" y="45" width="1131" height="303" fill="black">
<rect fill="white" x="45" y="45" width="1131" height="303"/>
<path d="M60.8 289V61.8H208.96V116.2H123.2V289H60.8ZM338.795 290.92C321.515 290.92 305.835 287.72 291.755 281.32C277.675 274.707 265.515 265.96 255.275 255.08C245.248 243.987 237.462 231.613 231.915 217.96C226.582 204.093 223.915 189.8 223.915 175.08C223.915 159.933 226.795 145.533 232.555 131.88C238.315 118.227 246.315 106.067 256.555 95.4C267.008 84.52 279.275 75.9867 293.355 69.8C307.648 63.6133 323.222 60.52 340.075 60.52C357.355 60.52 373.035 63.8267 387.115 70.44C401.195 76.84 413.248 85.5867 423.275 96.68C433.302 107.773 440.982 120.253 446.315 134.12C451.862 147.773 454.635 161.853 454.635 176.36C454.635 191.293 451.755 205.587 445.995 219.24C440.448 232.893 432.448 245.16 421.995 256.04C411.755 266.707 399.595 275.24 385.515 281.64C371.435 287.827 355.862 290.92 338.795 290.92ZM287.275 175.72C287.275 183.4 288.342 190.867 290.475 198.12C292.608 205.16 295.808 211.56 300.075 217.32C304.342 222.867 309.675 227.347 316.075 230.76C322.688 233.96 330.475 235.56 339.435 235.56C348.395 235.56 356.182 233.853 362.795 230.44C369.408 227.027 374.742 222.44 378.795 216.68C383.062 210.707 386.155 204.2 388.075 197.16C390.208 189.907 391.275 182.547 391.275 175.08C391.275 167.4 390.208 160.04 388.075 153C385.942 145.96 382.742 139.667 378.475 134.12C374.208 128.36 368.768 123.88 362.155 120.68C355.542 117.48 347.862 115.88 339.115 115.88C330.155 115.88 322.368 117.587 315.755 121C309.355 124.413 304.022 129 299.755 134.76C295.488 140.307 292.288 146.707 290.155 153.96C288.235 161 287.275 168.253 287.275 175.72ZM481.083 289V61.8H579.003C590.096 61.8 600.336 64.04 609.723 68.52C619.109 73 627.216 79.08 634.043 86.76C640.869 94.2267 646.096 102.653 649.722 112.04C653.563 121.427 655.483 130.92 655.483 140.52C655.483 153.96 652.283 166.653 645.883 178.6C639.696 190.547 630.949 200.36 619.643 208.04C608.549 215.507 595.536 219.24 580.603 219.24H543.483V289H481.083ZM543.483 164.84H576.443C579.003 164.84 581.456 164.093 583.803 162.6C586.149 161.107 588.069 158.547 589.563 154.92C591.269 151.293 592.123 146.493 592.123 140.52C592.123 134.12 591.163 129.213 589.243 125.8C587.536 122.173 585.296 119.72 582.523 118.44C579.963 116.947 577.403 116.2 574.843 116.2H543.483V164.84ZM782.858 290.92C765.578 290.92 749.898 287.72 735.818 281.32C721.738 274.707 709.578 265.96 699.338 255.08C689.311 243.987 681.524 231.613 675.978 217.96C670.644 204.093 667.978 189.8 667.978 175.08C667.978 159.933 670.858 145.533 676.618 131.88C682.378 118.227 690.378 106.067 700.618 95.4C711.071 84.52 723.338 75.9867 737.418 69.8C751.711 63.6133 767.284 60.52 784.138 60.52C801.418 60.52 817.098 63.8267 831.178 70.44C845.258 76.84 857.311 85.5867 867.338 96.68C877.364 107.773 885.044 120.253 890.378 134.12C895.924 147.773 898.698 161.853 898.698 176.36C898.698 191.293 895.818 205.587 890.058 219.24C884.511 232.893 876.511 245.16 866.058 256.04C855.818 266.707 843.658 275.24 829.578 281.64C815.498 287.827 799.924 290.92 782.858 290.92ZM731.338 175.72C731.338 183.4 732.404 190.867 734.538 198.12C736.671 205.16 739.871 211.56 744.138 217.32C748.404 222.867 753.738 227.347 760.138 230.76C766.751 233.96 774.538 235.56 783.498 235.56C792.458 235.56 800.244 233.853 806.858 230.44C813.471 227.027 818.804 222.44 822.858 216.68C827.124 210.707 830.218 204.2 832.138 197.16C834.271 189.907 835.338 182.547 835.338 175.08C835.338 167.4 834.271 160.04 832.138 153C830.004 145.96 826.804 139.667 822.537 134.12C818.271 128.36 812.831 123.88 806.218 120.68C799.604 117.48 791.924 115.88 783.178 115.88C774.218 115.88 766.431 117.587 759.818 121C753.418 124.413 748.084 129 743.818 134.76C739.551 140.307 736.351 146.707 734.218 153.96C732.298 161 731.338 168.253 731.338 175.72ZM913.625 332.52V234.6H927.705C933.038 234.6 937.732 232.467 941.785 228.2C945.838 223.933 949.252 217.427 952.025 208.68C954.798 199.933 956.932 188.947 958.425 175.72C960.132 162.28 961.305 146.493 961.945 128.36L963.865 61.8H1128.67V234.6H1160.67V332.52H1106.27V289H968.025V332.52H913.625ZM998.425 234.6H1066.27V116.2H1020.83L1020.19 137.32C1019.76 153.747 1018.8 168.253 1017.31 180.84C1016.03 193.213 1013.89 203.88 1010.91 212.84C1008.13 221.8 1003.97 229.053 998.425 234.6Z"/>
</mask>
<path d="M60.8 289H45.8C45.8 297.284 52.5157 304 60.8 304V289ZM60.8 61.8V46.8C52.5157 46.8 45.8 53.5157 45.8 61.8H60.8ZM208.96 61.8H223.96C223.96 53.5157 217.244 46.8 208.96 46.8V61.8ZM208.96 116.2V131.2C217.244 131.2 223.96 124.484 223.96 116.2H208.96ZM123.2 116.2V101.2C114.916 101.2 108.2 107.916 108.2 116.2H123.2ZM123.2 289V304C131.484 304 138.2 297.284 138.2 289H123.2ZM75.8 289V61.8H45.8V289H75.8ZM60.8 76.8H208.96V46.8H60.8V76.8ZM193.96 61.8V116.2H223.96V61.8H193.96ZM208.96 101.2H123.2V131.2H208.96V101.2ZM108.2 116.2V289H138.2V116.2H108.2ZM123.2 274H60.8V304H123.2V274ZM291.755 281.32L285.378 294.897C285.434 294.923 285.491 294.95 285.548 294.975L291.755 281.32ZM255.275 255.08L244.147 265.138C244.215 265.213 244.283 265.287 244.352 265.36L255.275 255.08ZM231.915 217.96L217.915 223.345C217.948 223.432 217.983 223.519 218.018 223.606L231.915 217.96ZM232.555 131.88L218.735 126.049L232.555 131.88ZM256.555 95.4L245.738 85.0076L245.734 85.012L256.555 95.4ZM293.355 69.8L287.397 56.0341C287.371 56.0451 287.346 56.0561 287.321 56.0672L293.355 69.8ZM387.115 70.44L380.738 84.0169C380.794 84.0435 380.851 84.0697 380.908 84.0955L387.115 70.44ZM423.275 96.68L412.147 106.738V106.738L423.275 96.68ZM446.315 134.12L432.315 139.505C432.348 139.592 432.383 139.679 432.418 139.766L446.315 134.12ZM445.995 219.24L432.175 213.409C432.149 213.471 432.123 213.533 432.098 213.594L445.995 219.24ZM421.995 256.04L411.178 245.648L411.174 245.652L421.995 256.04ZM385.515 281.64L391.549 295.373C391.607 295.347 391.665 295.322 391.722 295.296L385.515 281.64ZM290.475 198.12L276.085 202.352C276.096 202.392 276.108 202.431 276.12 202.47L290.475 198.12ZM300.075 217.32L288.022 226.248C288.076 226.321 288.13 226.394 288.186 226.466L300.075 217.32ZM316.075 230.76L309.016 243.995C309.19 244.088 309.365 244.177 309.542 244.262L316.075 230.76ZM362.795 230.44L369.675 243.769L362.795 230.44ZM378.795 216.68L366.589 207.961C366.569 207.99 366.548 208.019 366.528 208.048L378.795 216.68ZM388.075 197.16L373.685 192.928C373.657 193.022 373.63 193.118 373.604 193.213L388.075 197.16ZM388.075 153L373.72 157.35L388.075 153ZM378.475 134.12L366.422 143.048C366.476 143.121 366.53 143.194 366.586 143.266L378.475 134.12ZM362.155 120.68L368.688 107.178V107.178L362.155 120.68ZM315.755 121L308.875 107.671C308.815 107.702 308.756 107.733 308.696 107.765L315.755 121ZM299.755 134.76L311.644 143.906C311.7 143.834 311.754 143.761 311.808 143.688L299.755 134.76ZM290.155 153.96L275.765 149.728C275.737 149.822 275.71 149.918 275.684 150.013L290.155 153.96ZM338.795 275.92C323.404 275.92 309.875 273.08 297.962 267.665L285.548 294.975C301.795 302.36 319.626 305.92 338.795 305.92V275.92ZM298.132 267.743C285.69 261.899 275.091 254.248 266.198 244.8L244.352 265.36C255.939 277.672 269.66 287.514 285.378 294.897L298.132 267.743ZM266.403 245.022C257.532 235.207 250.69 224.323 245.812 212.314L218.018 223.606C224.233 238.904 232.965 252.766 244.147 265.138L266.403 245.022ZM245.915 212.575C241.236 200.411 238.915 187.942 238.915 175.08H208.915C208.915 191.658 211.927 207.776 217.915 223.345L245.915 212.575ZM238.915 175.08C238.915 161.891 241.411 149.477 246.375 137.71L218.735 126.049C212.179 141.59 208.915 157.976 208.915 175.08H238.915ZM246.375 137.711C251.424 125.743 258.409 115.129 267.376 105.788L245.734 85.012C234.221 97.0046 225.206 110.71 218.735 126.049L246.375 137.711ZM267.372 105.792C276.438 96.3558 287.071 88.9453 299.389 83.5328L287.321 56.0672C271.479 63.028 257.579 72.6842 245.738 85.0076L267.372 105.792ZM299.313 83.5658C311.576 78.2582 325.101 75.52 340.075 75.52V45.52C321.342 45.52 303.721 48.9684 287.397 56.0341L299.313 83.5658ZM340.075 75.52C355.397 75.52 368.865 78.4402 380.738 84.0169L393.492 56.8631C377.205 49.2131 359.313 45.52 340.075 45.52V75.52ZM380.908 84.0955C393.184 89.6757 403.545 97.2207 412.147 106.738L434.403 86.6219C422.952 73.9526 409.206 64.0043 393.322 56.7845L380.908 84.0955ZM412.147 106.738C420.945 116.472 427.648 127.37 432.315 139.505L460.315 128.735C454.316 113.136 445.658 99.0742 434.403 86.6219L412.147 106.738ZM432.418 139.766C437.248 151.655 439.635 163.82 439.635 176.36H469.635C469.635 159.887 466.475 143.892 460.212 128.474L432.418 139.766ZM439.635 176.36C439.635 189.307 437.15 201.616 432.175 213.409L459.815 225.071C466.36 209.557 469.635 193.28 469.635 176.36H439.635ZM432.098 213.594C427.285 225.442 420.345 236.107 411.178 245.648L432.812 266.432C444.552 254.213 453.612 240.345 459.892 224.886L432.098 213.594ZM411.174 245.652C402.311 254.884 391.738 262.335 379.308 267.984L391.722 295.296C407.452 288.145 421.199 278.529 432.816 266.428L411.174 245.652ZM379.481 267.907C367.502 273.171 354.013 275.92 338.795 275.92V305.92C357.71 305.92 375.368 302.483 391.549 295.373L379.481 267.907ZM272.275 175.72C272.275 184.81 273.541 193.703 276.085 202.352L304.865 193.888C303.143 188.03 302.275 181.99 302.275 175.72H272.275ZM276.12 202.47C278.739 211.113 282.704 219.069 288.022 226.248L312.128 208.392C308.913 204.051 306.478 199.207 304.83 193.77L276.12 202.47ZM288.186 226.466C293.801 233.766 300.804 239.615 309.016 243.995L323.134 217.525C318.546 215.078 314.882 211.968 311.964 208.174L288.186 226.466ZM309.542 244.262C318.59 248.641 328.7 250.56 339.435 250.56V220.56C332.25 220.56 326.787 219.279 322.608 217.258L309.542 244.262ZM339.435 250.56C350.305 250.56 360.542 248.483 369.675 243.769L355.915 217.111C351.821 219.224 346.485 220.56 339.435 220.56V250.56ZM369.675 243.769C378.311 239.312 385.539 233.161 391.062 225.312L366.528 208.048C363.945 211.718 360.506 214.741 355.915 217.111L369.675 243.769ZM391.001 225.399C396.293 217.99 400.157 209.869 402.546 201.107L373.604 193.213C372.153 198.531 369.83 203.423 366.589 207.961L391.001 225.399ZM402.465 201.392C404.998 192.782 406.275 183.997 406.275 175.08H376.275C376.275 181.096 375.419 187.031 373.685 192.928L402.465 201.392ZM406.275 175.08C406.275 165.991 405.01 157.161 402.43 148.65L373.72 157.35C375.407 162.919 376.275 168.809 376.275 175.08H406.275ZM402.43 148.65C399.799 139.965 395.792 132.03 390.364 124.974L366.586 143.266C369.692 147.303 372.085 151.955 373.72 157.35L402.43 148.65ZM390.528 125.192C384.782 117.433 377.428 111.406 368.688 107.178L355.622 134.182C360.109 136.354 363.635 139.287 366.422 143.048L390.528 125.192ZM368.688 107.178C359.686 102.822 349.698 100.88 339.115 100.88V130.88C346.026 130.88 351.397 132.138 355.622 134.182L368.688 107.178ZM339.115 100.88C328.245 100.88 318.008 102.957 308.875 107.671L322.635 134.329C326.729 132.216 332.065 130.88 339.115 130.88V100.88ZM308.696 107.765C300.357 112.212 293.309 118.261 287.702 125.832L311.808 143.688C314.734 139.739 318.353 136.614 322.814 134.235L308.696 107.765ZM287.866 125.614C282.381 132.744 278.379 140.84 275.765 149.728L304.546 158.192C306.198 152.574 308.596 147.869 311.644 143.906L287.866 125.614ZM275.684 150.013C273.405 158.369 272.275 166.951 272.275 175.72H302.275C302.275 169.555 303.065 163.631 304.626 157.907L275.684 150.013ZM481.082 289H466.082C466.082 297.284 472.798 304 481.082 304V289ZM481.082 61.8V46.8C472.798 46.8 466.082 53.5157 466.082 61.8H481.082ZM609.723 68.52L603.262 82.0572L603.262 82.0572L609.723 68.52ZM634.042 86.76L622.831 96.7254C622.878 96.7778 622.925 96.8298 622.972 96.8815L634.042 86.76ZM649.722 112.04L635.731 117.446C635.766 117.537 635.802 117.629 635.839 117.719L649.722 112.04ZM645.883 178.6L632.66 171.517C632.627 171.578 632.595 171.64 632.563 171.702L645.883 178.6ZM619.643 208.04L628.018 220.484C628.036 220.472 628.053 220.46 628.071 220.448L619.643 208.04ZM543.483 219.24V204.24C535.198 204.24 528.483 210.956 528.483 219.24H543.483ZM543.483 289V304C551.767 304 558.482 297.284 558.482 289H543.483ZM543.483 164.84H528.483C528.483 173.124 535.198 179.84 543.483 179.84V164.84ZM583.802 162.6L591.856 175.255V175.255L583.802 162.6ZM589.562 154.92L575.99 148.533C575.885 148.756 575.786 148.981 575.692 149.209L589.562 154.92ZM589.242 125.8L575.67 132.187C575.825 132.515 575.991 132.838 576.169 133.154L589.242 125.8ZM582.523 118.44L574.964 131.397C575.378 131.638 575.802 131.859 576.237 132.059L582.523 118.44ZM543.483 116.2V101.2C535.198 101.2 528.483 107.916 528.483 116.2H543.483ZM496.082 289V61.8H466.082V289H496.082ZM481.082 76.8H579.003V46.8H481.082V76.8ZM579.003 76.8C588.012 76.8 596.025 78.6036 603.262 82.0572L616.183 54.9828C604.646 49.4764 592.18 46.8 579.003 46.8V76.8ZM603.262 82.0572C610.865 85.6862 617.351 90.5596 622.831 96.7254L645.254 76.7945C637.081 67.6004 627.353 60.3138 616.183 54.9828L603.262 82.0572ZM622.972 96.8815C628.547 102.979 632.78 109.809 635.731 117.446L663.714 106.634C659.412 95.498 653.191 85.4741 645.113 76.6385L622.972 96.8815ZM635.839 117.719C638.984 125.407 640.482 132.976 640.482 140.52H670.482C670.482 128.864 668.141 117.447 663.606 106.36L635.839 117.719ZM640.482 140.52C640.482 151.467 637.903 161.729 632.66 171.517L659.105 185.683C666.662 171.577 670.482 156.453 670.482 140.52H640.482ZM632.563 171.702C627.542 181.397 620.492 189.33 611.214 195.632L628.071 220.448C641.406 211.39 651.85 199.696 659.202 185.498L632.563 171.702ZM611.267 195.596C602.933 201.206 592.914 204.24 580.602 204.24V234.24C598.158 234.24 614.165 229.808 628.018 220.484L611.267 195.596ZM580.602 204.24H543.483V234.24H580.602V204.24ZM528.483 219.24V289H558.482V219.24H528.483ZM543.483 274H481.082V304H543.483V274ZM543.483 179.84H576.443V149.84H543.483V179.84ZM576.443 179.84C582.102 179.84 587.319 178.142 591.856 175.255L575.749 149.945C575.626 150.024 575.657 149.984 575.835 149.93C576.022 149.873 576.24 149.84 576.443 149.84V179.84ZM591.856 175.255C597.682 171.547 601.229 165.984 603.433 160.631L575.692 149.209C575.324 150.104 575.055 150.49 575.003 150.56C574.966 150.608 575.187 150.303 575.749 149.945L591.856 175.255ZM603.135 161.307C606.128 154.947 607.122 147.712 607.122 140.52H577.122C577.122 145.275 576.411 147.639 575.99 148.533L603.135 161.307ZM607.122 140.52C607.122 133.002 606.06 125.102 602.316 118.446L576.169 133.154C576.162 133.142 576.428 133.624 576.682 134.92C576.933 136.204 577.122 138.033 577.122 140.52H607.122ZM602.815 119.413C600.081 113.603 595.671 107.988 588.808 104.821L576.237 132.059C575.965 131.934 575.731 131.79 575.544 131.651C575.358 131.513 575.249 131.402 575.205 131.354C575.128 131.269 575.33 131.463 575.67 132.187L602.815 119.413ZM590.081 105.483C585.593 102.866 580.453 101.2 574.843 101.2V131.2C574.75 131.2 574.667 131.193 574.598 131.183C574.529 131.173 574.489 131.162 574.483 131.16C574.467 131.155 574.625 131.199 574.964 131.397L590.081 105.483ZM574.843 101.2H543.483V131.2H574.843V101.2ZM528.483 116.2V164.84H558.482V116.2H528.483ZM735.818 281.32L729.44 294.897C729.497 294.923 729.554 294.95 729.61 294.975L735.818 281.32ZM699.338 255.08L688.209 265.138C688.277 265.213 688.345 265.287 688.414 265.36L699.338 255.08ZM675.977 217.96L661.977 223.345C662.011 223.432 662.045 223.519 662.081 223.606L675.977 217.96ZM676.617 131.88L662.797 126.049L676.617 131.88ZM700.617 95.4L689.801 85.0076L689.797 85.012L700.617 95.4ZM737.417 69.8L731.459 56.0341C731.434 56.0451 731.409 56.0561 731.383 56.0672L737.417 69.8ZM831.177 70.44L824.8 84.0169C824.857 84.0435 824.914 84.0697 824.97 84.0955L831.177 70.44ZM867.338 96.68L856.209 106.738V106.738L867.338 96.68ZM890.378 134.12L876.377 139.505C876.411 139.592 876.445 139.679 876.481 139.766L890.378 134.12ZM890.057 219.24L876.237 213.409C876.211 213.471 876.186 213.533 876.161 213.594L890.057 219.24ZM866.057 256.04L855.241 245.648L855.237 245.652L866.057 256.04ZM829.578 281.64L835.612 295.373C835.669 295.347 835.727 295.322 835.785 295.296L829.578 281.64ZM734.537 198.12L720.147 202.352C720.159 202.392 720.17 202.431 720.182 202.47L734.537 198.12ZM744.138 217.32L732.084 226.248C732.138 226.321 732.193 226.394 732.248 226.466L744.138 217.32ZM760.138 230.76L753.079 243.995C753.252 244.088 753.427 244.177 753.604 244.262L760.138 230.76ZM806.857 230.44L813.737 243.769H813.737L806.857 230.44ZM822.858 216.68L810.651 207.961C810.631 207.99 810.611 208.019 810.59 208.048L822.858 216.68ZM832.138 197.16L817.747 192.928C817.719 193.022 817.692 193.118 817.666 193.213L832.138 197.16ZM832.138 153L817.782 157.35L832.138 153ZM822.537 134.12L810.484 143.048C810.538 143.121 810.593 143.194 810.648 143.266L822.537 134.12ZM806.218 120.68L812.751 107.178V107.178L806.218 120.68ZM759.818 121L752.938 107.671C752.878 107.702 752.818 107.733 752.759 107.765L759.818 121ZM743.818 134.76L755.707 143.906C755.762 143.834 755.817 143.761 755.871 143.688L743.818 134.76ZM734.218 153.96L719.827 149.728C719.799 149.822 719.772 149.918 719.746 150.013L734.218 153.96ZM782.857 275.92C767.466 275.92 753.938 273.08 742.025 267.665L729.61 294.975C745.857 302.36 763.689 305.92 782.857 305.92V275.92ZM742.195 267.743C729.752 261.899 719.153 254.248 710.26 244.8L688.414 265.36C700.002 277.672 713.723 287.514 729.44 294.897L742.195 267.743ZM710.466 245.022C701.595 235.207 694.753 224.323 689.875 212.314L662.081 223.606C668.295 238.904 677.027 252.766 688.209 265.138L710.466 245.022ZM689.978 212.575C685.299 200.411 682.977 187.942 682.977 175.08H652.977C652.977 191.658 655.989 207.776 661.977 223.345L689.978 212.575ZM682.977 175.08C682.977 161.891 685.474 149.477 690.438 137.71L662.797 126.049C656.241 141.59 652.977 157.976 652.977 175.08H682.977ZM690.438 137.711C695.487 125.743 702.471 115.129 711.438 105.788L689.797 85.012C678.284 97.0046 669.268 110.71 662.797 126.049L690.438 137.711ZM711.434 105.792C720.501 96.3558 731.133 88.9453 743.452 83.5328L731.383 56.0672C715.542 63.028 701.641 72.6842 689.801 85.0076L711.434 105.792ZM743.376 83.5658C755.638 78.2582 769.164 75.52 784.138 75.52V45.52C765.405 45.52 747.784 48.9684 731.459 56.0341L743.376 83.5658ZM784.138 75.52C799.459 75.52 812.927 78.4402 824.8 84.0169L837.555 56.8631C821.268 49.2131 803.376 45.52 784.138 45.52V75.52ZM824.97 84.0955C837.247 89.6757 847.607 97.2207 856.209 106.738L878.466 86.6219C867.015 73.9526 853.268 64.0043 837.385 56.7845L824.97 84.0955ZM856.209 106.738C865.008 116.472 871.71 127.37 876.377 139.505L904.378 128.735C898.378 113.136 889.721 99.0742 878.466 86.6219L856.209 106.738ZM876.481 139.766C881.311 151.655 883.698 163.82 883.698 176.36H913.698C913.698 159.887 910.538 143.892 904.274 128.474L876.481 139.766ZM883.698 176.36C883.698 189.307 881.212 201.616 876.237 213.409L903.878 225.071C910.423 209.557 913.698 193.28 913.698 176.36H883.698ZM876.161 213.594C871.347 225.442 864.408 236.107 855.241 245.648L876.874 266.432C888.614 254.213 897.674 240.345 903.955 224.886L876.161 213.594ZM855.237 245.652C846.374 254.884 835.8 262.335 823.37 267.984L835.785 295.296C851.515 288.145 865.261 278.529 876.878 266.428L855.237 245.652ZM823.543 267.907C811.564 273.171 798.076 275.92 782.857 275.92V305.92C801.773 305.92 819.431 302.483 835.612 295.373L823.543 267.907ZM716.338 175.72C716.338 184.81 717.603 193.703 720.147 202.352L748.928 193.888C747.205 188.03 746.338 181.99 746.338 175.72H716.338ZM720.182 202.47C722.801 211.113 726.766 219.069 732.084 226.248L756.191 208.392C752.975 204.051 750.54 199.207 748.893 193.77L720.182 202.47ZM732.248 226.466C737.864 233.766 744.866 239.615 753.079 243.995L767.196 217.525C762.609 215.078 758.945 211.968 756.027 208.174L732.248 226.466ZM753.604 244.262C762.652 248.641 772.763 250.56 783.497 250.56V220.56C776.312 220.56 770.849 219.279 766.671 217.258L753.604 244.262ZM783.497 250.56C794.367 250.56 804.605 248.483 813.737 243.769L799.978 217.111C795.883 219.224 790.548 220.56 783.497 220.56V250.56ZM813.737 243.769C822.373 239.312 829.601 233.161 835.125 225.312L810.59 208.048C808.007 211.718 804.568 214.741 799.978 217.111L813.737 243.769ZM835.064 225.399C840.355 217.99 844.219 209.869 846.609 201.107L817.666 193.213C816.216 198.531 813.893 203.423 810.651 207.961L835.064 225.399ZM846.528 201.392C849.06 192.782 850.338 183.997 850.338 175.08H820.338C820.338 181.096 819.481 187.031 817.747 192.928L846.528 201.392ZM850.338 175.08C850.338 165.991 849.072 157.161 846.493 148.65L817.782 157.35C819.47 162.919 820.338 168.809 820.338 175.08H850.338ZM846.493 148.65C843.861 139.965 839.854 132.03 834.427 124.974L810.648 143.266C813.754 147.303 816.147 151.955 817.782 157.35L846.493 148.65ZM834.591 125.192C828.844 117.433 821.49 111.406 812.751 107.178L799.684 134.182C804.171 136.354 807.698 139.287 810.484 143.048L834.591 125.192ZM812.751 107.178C803.748 102.822 793.76 100.88 783.177 100.88V130.88C790.088 130.88 795.46 132.138 799.684 134.182L812.751 107.178ZM783.177 100.88C772.308 100.88 762.07 102.957 752.938 107.671L766.697 134.329C770.792 132.216 776.127 130.88 783.177 130.88V100.88ZM752.759 107.765C744.419 112.212 737.372 118.261 731.764 125.832L755.871 143.688C758.797 139.739 762.416 136.614 766.876 134.235L752.759 107.765ZM731.928 125.614C726.443 132.744 722.441 140.84 719.827 149.728L748.608 158.192C750.261 152.574 752.658 147.869 755.707 143.906L731.928 125.614ZM719.746 150.013C717.467 158.369 716.338 166.951 716.338 175.72H746.338C746.338 169.555 747.128 163.631 748.689 157.907L719.746 150.013ZM913.625 332.52H898.625C898.625 340.804 905.341 347.52 913.625 347.52V332.52ZM913.625 234.6V219.6C905.341 219.6 898.625 226.316 898.625 234.6H913.625ZM941.785 228.2L930.91 217.869L941.785 228.2ZM952.025 208.68L966.323 213.214L952.025 208.68ZM958.425 175.72L943.544 173.83C943.536 173.899 943.527 173.968 943.52 174.037L958.425 175.72ZM961.945 128.36L976.936 128.889C976.937 128.857 976.938 128.825 976.939 128.793L961.945 128.36ZM963.865 61.8V46.8C955.749 46.8 949.105 53.255 948.871 61.3675L963.865 61.8ZM1128.67 61.8H1143.67C1143.67 53.5157 1136.95 46.8 1128.67 46.8V61.8ZM1128.67 234.6H1113.67C1113.67 242.884 1120.38 249.6 1128.67 249.6V234.6ZM1160.67 234.6H1175.67C1175.67 226.316 1168.95 219.6 1160.67 219.6V234.6ZM1160.67 332.52V347.52C1168.95 347.52 1175.67 340.804 1175.67 332.52H1160.67ZM1106.27 332.52H1091.27C1091.27 340.804 1097.98 347.52 1106.27 347.52V332.52ZM1106.27 289H1121.27C1121.27 280.716 1114.55 274 1106.27 274V289ZM968.025 289V274C959.741 274 953.025 280.716 953.025 289H968.025ZM968.025 332.52V347.52C976.309 347.52 983.025 340.804 983.025 332.52H968.025ZM998.425 234.6L987.818 223.993C983.528 228.283 982.245 234.735 984.567 240.34C986.889 245.945 992.358 249.6 998.425 249.6V234.6ZM1066.27 234.6V249.6C1074.55 249.6 1081.27 242.884 1081.27 234.6H1066.27ZM1066.27 116.2H1081.27C1081.27 107.916 1074.55 101.2 1066.27 101.2V116.2ZM1020.83 116.2V101.2C1012.72 101.2 1006.08 107.642 1005.83 115.746L1020.83 116.2ZM1020.18 137.32L1005.19 136.866C1005.19 136.887 1005.19 136.909 1005.19 136.931L1020.18 137.32ZM1017.3 180.84L1002.41 179.073C1002.4 179.147 1002.39 179.222 1002.38 179.297L1017.3 180.84ZM1010.91 212.84L996.675 208.097C996.641 208.199 996.608 208.302 996.576 208.405L1010.91 212.84ZM928.625 332.52V234.6H898.625V332.52H928.625ZM913.625 249.6H927.705V219.6H913.625V249.6ZM927.705 249.6C937.598 249.6 946.099 245.438 952.66 238.531L930.91 217.869C929.364 219.496 928.479 219.6 927.705 219.6V249.6ZM952.66 238.531C958.912 231.95 963.209 223.037 966.323 213.214L937.727 204.146C935.294 211.817 932.765 215.916 930.91 217.869L952.66 238.531ZM966.323 213.214C969.49 203.226 971.772 191.206 973.33 177.403L943.52 174.037C942.091 186.687 940.107 196.64 937.727 204.146L966.323 213.214ZM973.305 177.61C975.085 163.596 976.285 147.336 976.936 128.889L946.954 127.831C946.325 145.651 945.178 160.964 943.544 173.83L973.305 177.61ZM976.939 128.793L978.859 62.2325L948.871 61.3675L946.951 127.927L976.939 128.793ZM963.865 76.8H1128.67V46.8H963.865V76.8ZM1113.67 61.8V234.6H1143.67V61.8H1113.67ZM1128.67 249.6H1160.67V219.6H1128.67V249.6ZM1145.67 234.6V332.52H1175.67V234.6H1145.67ZM1160.67 317.52H1106.27V347.52H1160.67V317.52ZM1121.27 332.52V289H1091.27V332.52H1121.27ZM1106.27 274H968.025V304H1106.27V274ZM953.025 289V332.52H983.025V289H953.025ZM968.025 317.52H913.625V347.52H968.025V317.52ZM998.425 249.6H1066.27V219.6H998.425V249.6ZM1081.27 234.6V116.2H1051.27V234.6H1081.27ZM1066.27 101.2H1020.83V131.2H1066.27V101.2ZM1005.83 115.746L1005.19 136.866L1035.18 137.774L1035.82 116.654L1005.83 115.746ZM1005.19 136.931C1004.77 153.023 1003.84 167.054 1002.41 179.073L1032.2 182.607C1033.76 169.452 1034.74 154.47 1035.18 137.709L1005.19 136.931ZM1002.38 179.297C1001.18 190.902 999.226 200.442 996.675 208.097L1025.14 217.583C1028.56 207.318 1030.87 195.524 1032.23 182.383L1002.38 179.297ZM996.576 208.405C994.383 215.489 991.334 220.478 987.818 223.993L1009.03 245.207C1016.61 237.629 1021.88 228.111 1025.23 217.275L996.576 208.405Z" fill="url(#paint0_linear_0_73)" mask="url(#path-1-outside-1_0_73)"/>
</g>
<g filter="url(#filter1_f_0_73)">
<mask id="path-3-outside-2_0_73" maskUnits="userSpaceOnUse" x="50" y="50" width="1121" height="293" fill="black">
<rect fill="white" x="50" y="50" width="1121" height="293"/>
<path d="M60.8 289V61.8H208.96V116.2H123.2V289H60.8ZM338.795 290.92C321.515 290.92 305.835 287.72 291.755 281.32C277.675 274.707 265.515 265.96 255.275 255.08C245.248 243.987 237.462 231.613 231.915 217.96C226.582 204.093 223.915 189.8 223.915 175.08C223.915 159.933 226.795 145.533 232.555 131.88C238.315 118.227 246.315 106.067 256.555 95.4C267.008 84.52 279.275 75.9867 293.355 69.8C307.648 63.6133 323.222 60.52 340.075 60.52C357.355 60.52 373.035 63.8267 387.115 70.44C401.195 76.84 413.248 85.5867 423.275 96.68C433.302 107.773 440.982 120.253 446.315 134.12C451.862 147.773 454.635 161.853 454.635 176.36C454.635 191.293 451.755 205.587 445.995 219.24C440.448 232.893 432.448 245.16 421.995 256.04C411.755 266.707 399.595 275.24 385.515 281.64C371.435 287.827 355.862 290.92 338.795 290.92ZM287.275 175.72C287.275 183.4 288.342 190.867 290.475 198.12C292.608 205.16 295.808 211.56 300.075 217.32C304.342 222.867 309.675 227.347 316.075 230.76C322.688 233.96 330.475 235.56 339.435 235.56C348.395 235.56 356.182 233.853 362.795 230.44C369.408 227.027 374.742 222.44 378.795 216.68C383.062 210.707 386.155 204.2 388.075 197.16C390.208 189.907 391.275 182.547 391.275 175.08C391.275 167.4 390.208 160.04 388.075 153C385.942 145.96 382.742 139.667 378.475 134.12C374.208 128.36 368.768 123.88 362.155 120.68C355.542 117.48 347.862 115.88 339.115 115.88C330.155 115.88 322.368 117.587 315.755 121C309.355 124.413 304.022 129 299.755 134.76C295.488 140.307 292.288 146.707 290.155 153.96C288.235 161 287.275 168.253 287.275 175.72ZM481.083 289V61.8H579.003C590.096 61.8 600.336 64.04 609.723 68.52C619.109 73 627.216 79.08 634.043 86.76C640.869 94.2267 646.096 102.653 649.722 112.04C653.563 121.427 655.483 130.92 655.483 140.52C655.483 153.96 652.283 166.653 645.883 178.6C639.696 190.547 630.949 200.36 619.643 208.04C608.549 215.507 595.536 219.24 580.603 219.24H543.483V289H481.083ZM543.483 164.84H576.443C579.003 164.84 581.456 164.093 583.803 162.6C586.149 161.107 588.069 158.547 589.563 154.92C591.269 151.293 592.123 146.493 592.123 140.52C592.123 134.12 591.163 129.213 589.243 125.8C587.536 122.173 585.296 119.72 582.523 118.44C579.963 116.947 577.403 116.2 574.843 116.2H543.483V164.84ZM782.858 290.92C765.578 290.92 749.898 287.72 735.818 281.32C721.738 274.707 709.578 265.96 699.338 255.08C689.311 243.987 681.524 231.613 675.978 217.96C670.644 204.093 667.978 189.8 667.978 175.08C667.978 159.933 670.858 145.533 676.618 131.88C682.378 118.227 690.378 106.067 700.618 95.4C711.071 84.52 723.338 75.9867 737.418 69.8C751.711 63.6133 767.284 60.52 784.138 60.52C801.418 60.52 817.098 63.8267 831.178 70.44C845.258 76.84 857.311 85.5867 867.338 96.68C877.364 107.773 885.044 120.253 890.378 134.12C895.924 147.773 898.698 161.853 898.698 176.36C898.698 191.293 895.818 205.587 890.058 219.24C884.511 232.893 876.511 245.16 866.058 256.04C855.818 266.707 843.658 275.24 829.578 281.64C815.498 287.827 799.924 290.92 782.858 290.92ZM731.338 175.72C731.338 183.4 732.404 190.867 734.538 198.12C736.671 205.16 739.871 211.56 744.138 217.32C748.404 222.867 753.738 227.347 760.138 230.76C766.751 233.96 774.538 235.56 783.498 235.56C792.458 235.56 800.244 233.853 806.858 230.44C813.471 227.027 818.804 222.44 822.858 216.68C827.124 210.707 830.218 204.2 832.138 197.16C834.271 189.907 835.338 182.547 835.338 175.08C835.338 167.4 834.271 160.04 832.138 153C830.004 145.96 826.804 139.667 822.537 134.12C818.271 128.36 812.831 123.88 806.218 120.68C799.604 117.48 791.924 115.88 783.178 115.88C774.218 115.88 766.431 117.587 759.818 121C753.418 124.413 748.084 129 743.818 134.76C739.551 140.307 736.351 146.707 734.218 153.96C732.298 161 731.338 168.253 731.338 175.72ZM913.625 332.52V234.6H927.705C933.038 234.6 937.732 232.467 941.785 228.2C945.838 223.933 949.252 217.427 952.025 208.68C954.798 199.933 956.932 188.947 958.425 175.72C960.132 162.28 961.305 146.493 961.945 128.36L963.865 61.8H1128.67V234.6H1160.67V332.52H1106.27V289H968.025V332.52H913.625ZM998.425 234.6H1066.27V116.2H1020.83L1020.19 137.32C1019.76 153.747 1018.8 168.253 1017.31 180.84C1016.03 193.213 1013.89 203.88 1010.91 212.84C1008.13 221.8 1003.97 229.053 998.425 234.6Z"/>
</mask>
<path d="M60.8 289H50.8C50.8 294.523 55.2772 299 60.8 299V289ZM60.8 61.8V51.8C55.2772 51.8 50.8 56.2771 50.8 61.8H60.8ZM208.96 61.8H218.96C218.96 56.2771 214.483 51.8 208.96 51.8V61.8ZM208.96 116.2V126.2C214.483 126.2 218.96 121.723 218.96 116.2H208.96ZM123.2 116.2V106.2C117.677 106.2 113.2 110.677 113.2 116.2H123.2ZM123.2 289V299C128.723 299 133.2 294.523 133.2 289H123.2ZM70.8 289V61.8H50.8V289H70.8ZM60.8 71.8H208.96V51.8H60.8V71.8ZM198.96 61.8V116.2H218.96V61.8H198.96ZM208.96 106.2H123.2V126.2H208.96V106.2ZM113.2 116.2V289H133.2V116.2H113.2ZM123.2 279H60.8V299H123.2V279ZM291.755 281.32L287.504 290.371C287.541 290.389 287.579 290.406 287.617 290.424L291.755 281.32ZM255.275 255.08L247.856 261.785C247.901 261.835 247.947 261.885 247.993 261.934L255.275 255.08ZM231.915 217.96L222.582 221.55C222.604 221.608 222.627 221.666 222.65 221.724L231.915 217.96ZM232.555 131.88L223.341 127.993L232.555 131.88ZM256.555 95.4L249.344 88.4717L249.341 88.4747L256.555 95.4ZM293.355 69.8L289.383 60.6228C289.366 60.6301 289.349 60.6374 289.332 60.6448L293.355 69.8ZM387.115 70.44L382.864 79.4913C382.901 79.509 382.939 79.5264 382.977 79.5437L387.115 70.44ZM423.275 96.68L415.856 103.385L423.275 96.68ZM446.315 134.12L436.982 137.71C437.004 137.768 437.027 137.826 437.05 137.884L446.315 134.12ZM445.995 219.24L436.781 215.353C436.764 215.394 436.747 215.435 436.73 215.476L445.995 219.24ZM421.995 256.04L414.784 249.112L414.781 249.115L421.995 256.04ZM385.515 281.64L389.538 290.795C389.576 290.778 389.615 290.761 389.653 290.744L385.515 281.64ZM290.475 198.12L280.881 200.942C280.889 200.968 280.897 200.994 280.905 201.02L290.475 198.12ZM300.075 217.32L292.039 223.272C292.075 223.321 292.112 223.369 292.149 223.417L300.075 217.32ZM316.075 230.76L311.369 239.584C311.485 239.645 311.601 239.705 311.719 239.762L316.075 230.76ZM362.795 230.44L367.381 239.326L362.795 230.44ZM378.795 216.68L370.658 210.868C370.644 210.887 370.63 210.906 370.617 210.925L378.795 216.68ZM388.075 197.16L378.481 194.338C378.463 194.402 378.445 194.465 378.427 194.529L388.075 197.16ZM388.075 153L378.505 155.9L388.075 153ZM378.475 134.12L370.439 140.072C370.475 140.121 370.512 140.169 370.549 140.217L378.475 134.12ZM362.155 120.68L366.511 111.678L362.155 120.68ZM315.755 121L311.169 112.114C311.129 112.134 311.089 112.155 311.049 112.176L315.755 121ZM299.755 134.76L307.681 140.857C307.718 140.809 307.755 140.761 307.791 140.712L299.755 134.76ZM290.155 153.96L280.561 151.138C280.543 151.202 280.525 151.265 280.507 151.329L290.155 153.96ZM338.795 280.92C322.774 280.92 308.529 277.96 295.893 272.216L287.617 290.424C303.141 297.48 320.256 300.92 338.795 300.92V280.92ZM296.006 272.269C283.018 266.168 271.899 258.152 262.557 248.226L247.993 261.934C259.131 273.768 272.332 283.245 287.504 290.371L296.006 272.269ZM262.694 248.375C253.438 238.134 246.281 226.753 241.18 214.196L222.65 221.724C228.643 236.474 237.059 249.84 247.856 261.785L262.694 248.375ZM241.248 214.37C236.352 201.638 233.915 188.561 233.915 175.08H213.915C213.915 191.039 216.812 206.548 222.582 221.55L241.248 214.37ZM233.915 175.08C233.915 161.238 236.539 148.163 241.769 135.767L223.341 127.993C217.051 142.904 213.915 158.628 213.915 175.08H233.915ZM241.769 135.767C247.054 123.238 254.377 112.108 263.769 102.325L249.341 88.4747C238.253 100.025 229.576 113.216 223.341 127.993L241.769 135.767ZM263.766 102.328C273.295 92.4105 284.472 84.6258 297.378 78.9552L289.332 60.6448C274.078 67.3476 260.722 76.6294 249.344 88.4717L263.766 102.328ZM297.327 78.9772C310.267 73.3766 324.475 70.52 340.075 70.52V50.52C321.969 50.52 305.03 53.85 289.383 60.6228L297.327 78.9772ZM340.075 70.52C356.05 70.52 370.255 73.569 382.864 79.4913L391.366 61.3887C375.815 54.0843 358.66 50.52 340.075 50.52V70.52ZM382.977 79.5437C395.855 85.3971 406.779 93.3427 415.856 103.385L430.694 89.9746C419.717 77.8306 406.535 68.2829 391.253 61.3363L382.977 79.5437ZM415.856 103.385C425.064 113.573 432.092 124.998 436.982 137.71L455.648 130.53C449.871 115.509 441.539 101.974 430.694 89.9746L415.856 103.385ZM437.05 137.884C442.119 150.361 444.635 163.164 444.635 176.36H464.635C464.635 160.542 461.604 145.186 455.58 130.356L437.05 137.884ZM444.635 176.36C444.635 189.969 442.018 202.94 436.781 215.353L455.209 223.127C461.492 208.234 464.635 192.618 464.635 176.36H444.635ZM436.73 215.476C431.673 227.926 424.38 239.124 414.784 249.112L429.206 262.968C440.517 251.196 449.224 237.861 455.26 223.004L436.73 215.476ZM414.781 249.115C405.459 258.825 394.357 266.636 381.377 272.536L389.653 290.744C404.833 283.844 418.051 274.588 429.209 262.965L414.781 249.115ZM381.492 272.485C368.813 278.056 354.629 280.92 338.795 280.92V300.92C357.094 300.92 374.057 297.597 389.538 290.795L381.492 272.485ZM277.275 175.72C277.275 184.34 278.474 192.757 280.881 200.942L300.069 195.298C298.209 188.976 297.275 182.46 297.275 175.72H277.275ZM280.905 201.02C283.362 209.129 287.072 216.566 292.039 223.272L308.111 211.368C304.545 206.554 301.855 201.191 300.045 195.22L280.905 201.02ZM292.149 223.417C297.315 230.133 303.761 235.526 311.369 239.584L320.781 221.936C315.589 219.167 311.369 215.601 308.001 211.223L292.149 223.417ZM311.719 239.762C319.956 243.747 329.292 245.56 339.435 245.56V225.56C331.658 225.56 325.421 224.173 320.431 221.758L311.719 239.762ZM339.435 245.56C349.668 245.56 359.089 243.606 367.381 239.326L358.209 221.554C353.275 224.1 347.122 225.56 339.435 225.56V245.56ZM367.381 239.326C375.343 235.217 381.94 229.588 386.973 222.435L370.617 210.925C367.544 215.292 363.473 218.836 358.209 221.554L367.381 239.326ZM386.932 222.492C391.882 215.562 395.489 207.98 397.723 199.791L378.427 194.529C376.821 200.42 374.241 205.851 370.658 210.868L386.932 222.492ZM397.669 199.982C400.068 191.824 401.275 183.514 401.275 175.08H381.275C381.275 181.579 380.349 187.99 378.481 194.338L397.669 199.982ZM401.275 175.08C401.275 166.461 400.076 158.121 397.645 150.1L378.505 155.9C380.341 161.959 381.275 168.339 381.275 175.08H401.275ZM397.645 150.1C395.18 141.964 391.442 134.576 386.401 128.023L370.549 140.217C374.042 144.758 376.704 149.956 378.505 155.9L397.645 150.1ZM386.511 128.168C381.257 121.076 374.541 115.564 366.511 111.678L357.799 129.682C362.995 132.196 367.16 135.644 370.439 140.072L386.511 128.168ZM366.511 111.678C358.305 107.708 349.086 105.88 339.115 105.88V125.88C346.638 125.88 352.779 127.252 357.799 129.682L366.511 111.678ZM339.115 105.88C328.882 105.88 319.461 107.834 311.169 112.114L320.341 129.886C325.275 127.34 331.428 125.88 339.115 125.88V105.88ZM311.049 112.176C303.356 116.279 296.88 121.841 291.719 128.808L307.791 140.712C311.163 136.159 315.354 132.547 320.461 129.824L311.049 112.176ZM291.829 128.663C286.75 135.265 283.015 142.795 280.561 151.138L299.749 156.782C301.562 150.618 304.227 145.348 307.681 140.857L291.829 128.663ZM280.507 151.329C278.348 159.246 277.275 167.385 277.275 175.72H297.275C297.275 169.121 298.122 162.754 299.803 156.591L280.507 151.329ZM481.082 289H471.082C471.082 294.523 475.56 299 481.082 299V289ZM481.082 61.8V51.8C475.56 51.8 471.082 56.2771 471.082 61.8H481.082ZM609.723 68.52L605.415 77.5448V77.5448L609.723 68.52ZM634.042 86.76L626.568 93.4036C626.599 93.4385 626.631 93.4732 626.662 93.5077L634.042 86.76ZM649.722 112.04L640.395 115.644C640.418 115.705 640.442 115.766 640.467 115.826L649.722 112.04ZM645.883 178.6L637.068 173.878C637.046 173.919 637.024 173.96 637.003 174.001L645.883 178.6ZM619.643 208.04L625.226 216.336C625.238 216.328 625.25 216.32 625.261 216.312L619.643 208.04ZM543.483 219.24V209.24C537.96 209.24 533.483 213.717 533.483 219.24H543.483ZM543.483 289V299C549.005 299 553.482 294.523 553.482 289H543.483ZM543.483 164.84H533.483C533.483 170.363 537.96 174.84 543.483 174.84V164.84ZM583.802 162.6L589.171 171.037L583.802 162.6ZM589.562 154.92L580.514 150.662C580.444 150.811 580.378 150.961 580.316 151.113L589.562 154.92ZM589.242 125.8L580.194 130.058C580.297 130.277 580.408 130.492 580.527 130.703L589.242 125.8ZM582.523 118.44L577.484 127.078C577.759 127.238 578.042 127.386 578.332 127.52L582.523 118.44ZM543.483 116.2V106.2C537.96 106.2 533.483 110.677 533.483 116.2H543.483ZM491.082 289V61.8H471.082V289H491.082ZM481.082 71.8H579.003V51.8H481.082V71.8ZM579.003 71.8C588.707 71.8 597.462 73.7491 605.415 77.5448L614.03 59.4952C603.209 54.3309 591.485 51.8 579.003 51.8V71.8ZM605.415 77.5448C613.613 81.4574 620.639 86.7331 626.568 93.4036L641.517 80.1164C633.793 71.4269 624.605 64.5425 614.03 59.4952L605.415 77.5448ZM626.662 93.5077C632.654 100.062 637.218 107.424 640.395 115.644L659.05 108.436C654.973 97.8831 649.084 88.3916 641.423 80.0123L626.662 93.5077ZM640.467 115.826C643.844 124.08 645.482 132.291 645.482 140.52H665.482C665.482 129.549 663.281 118.773 658.978 108.254L640.467 115.826ZM645.482 140.52C645.482 152.298 642.696 163.371 637.068 173.878L654.697 183.322C661.869 169.936 665.482 155.622 665.482 140.52H645.482ZM637.003 174.001C631.593 184.447 623.978 193.007 614.024 199.768L625.261 216.312C637.921 207.713 647.798 196.646 654.762 183.199L637.003 174.001ZM614.059 199.744C604.805 205.973 593.788 209.24 580.602 209.24V229.24C597.284 229.24 612.293 225.041 625.226 216.336L614.059 199.744ZM580.602 209.24H543.483V229.24H580.602V209.24ZM533.483 219.24V289H553.482V219.24H533.483ZM543.483 279H481.082V299H543.483V279ZM543.483 174.84H576.443V154.84H543.483V174.84ZM576.443 174.84C581.069 174.84 585.365 173.459 589.171 171.037L578.434 154.163C577.547 154.728 576.936 154.84 576.443 154.84V174.84ZM589.171 171.037C593.838 168.067 596.842 163.505 598.809 158.727L580.316 151.113C579.296 153.588 578.461 154.146 578.434 154.163L589.171 171.037ZM598.611 159.178C601.175 153.729 602.122 147.306 602.122 140.52H582.122C582.122 145.681 581.364 148.857 580.514 150.662L598.611 159.178ZM602.122 140.52C602.122 133.374 601.094 126.473 597.958 120.897L580.527 130.703C581.231 131.954 582.122 134.866 582.122 140.52H602.122ZM598.291 121.542C595.899 116.46 592.213 111.899 586.713 109.36L578.332 127.52C578.379 127.541 579.172 127.887 580.194 130.058L598.291 121.542ZM587.561 109.802C583.716 107.559 579.436 106.2 574.843 106.2V126.2C575.369 126.2 576.209 126.334 577.484 127.078L587.561 109.802ZM574.843 106.2H543.483V126.2H574.843V106.2ZM533.483 116.2V164.84H553.482V116.2H533.483ZM735.818 281.32L731.566 290.371C731.604 290.389 731.642 290.406 731.68 290.424L735.818 281.32ZM699.338 255.08L691.919 261.785C691.964 261.835 692.009 261.885 692.055 261.934L699.338 255.08ZM675.977 217.96L666.644 221.55C666.666 221.608 666.689 221.666 666.713 221.724L675.977 217.96ZM676.617 131.88L667.404 127.993L676.617 131.88ZM700.617 95.4L693.406 88.4717L693.404 88.4747L700.617 95.4ZM737.417 69.8L733.445 60.6228C733.428 60.6301 733.412 60.6374 733.395 60.6448L737.417 69.8ZM831.177 70.44L826.926 79.4913C826.964 79.509 827.002 79.5264 827.039 79.5437L831.177 70.44ZM867.338 96.68L859.919 103.385L867.338 96.68ZM890.378 134.12L881.044 137.71C881.066 137.768 881.089 137.826 881.113 137.884L890.378 134.12ZM890.057 219.24L880.844 215.353C880.827 215.394 880.81 215.435 880.793 215.476L890.057 219.24ZM866.057 256.04L858.846 249.112L858.844 249.115L866.057 256.04ZM829.578 281.64L833.6 290.795C833.639 290.778 833.677 290.761 833.716 290.744L829.578 281.64ZM734.537 198.12L724.944 200.942C724.952 200.968 724.959 200.994 724.967 201.02L734.537 198.12ZM744.138 217.32L736.102 223.272C736.138 223.321 736.174 223.369 736.211 223.417L744.138 217.32ZM760.138 230.76L755.432 239.584C755.547 239.645 755.664 239.705 755.782 239.762L760.138 230.76ZM806.857 230.44L811.444 239.326H811.444L806.857 230.44ZM822.858 216.68L814.72 210.868C814.707 210.887 814.693 210.906 814.679 210.925L822.858 216.68ZM832.138 197.16L822.544 194.338C822.525 194.402 822.507 194.465 822.49 194.529L832.138 197.16ZM832.138 153L822.567 155.9L832.138 153ZM822.537 134.12L814.502 140.072C814.538 140.121 814.574 140.169 814.611 140.217L822.537 134.12ZM806.218 120.68L810.573 111.678L806.218 120.68ZM759.818 121L755.231 112.114C755.191 112.134 755.151 112.155 755.112 112.176L759.818 121ZM743.818 134.76L751.744 140.857C751.781 140.809 751.817 140.761 751.853 140.712L743.818 134.76ZM734.218 153.96L724.624 151.138C724.605 151.202 724.587 151.265 724.57 151.329L734.218 153.96ZM782.857 280.92C766.837 280.92 752.591 277.96 739.956 272.216L731.68 290.424C747.204 297.48 764.318 300.92 782.857 300.92V280.92ZM740.069 272.269C727.081 266.168 715.961 258.152 706.62 248.226L692.055 261.934C703.194 273.768 716.394 283.245 731.566 290.371L740.069 272.269ZM706.756 248.375C697.5 238.134 690.343 226.753 685.242 214.196L666.713 221.724C672.705 236.474 681.122 249.84 691.919 261.785L706.756 248.375ZM685.311 214.37C680.414 201.638 677.977 188.561 677.977 175.08H657.977C657.977 191.039 660.874 206.548 666.644 221.55L685.311 214.37ZM677.977 175.08C677.977 161.238 680.602 148.163 685.831 135.767L667.404 127.993C661.113 142.904 657.977 158.628 657.977 175.08H677.977ZM685.831 135.767C691.117 123.238 698.44 112.108 707.831 102.325L693.404 88.4747C682.315 100.025 673.638 113.216 667.404 127.993L685.831 135.767ZM707.829 102.328C717.357 92.4105 728.535 84.6258 741.44 78.9552L733.395 60.6448C718.14 67.3476 704.784 76.6294 693.406 88.4717L707.829 102.328ZM741.39 78.9772C754.329 73.3766 768.537 70.52 784.138 70.52V50.52C766.031 50.52 749.093 53.85 733.445 60.6228L741.39 78.9772ZM784.138 70.52C800.112 70.52 814.317 73.569 826.926 79.4913L835.429 61.3887C819.878 54.0843 802.723 50.52 784.138 50.52V70.52ZM827.039 79.5437C839.917 85.3971 850.842 93.3427 859.919 103.385L874.756 89.9746C863.78 77.8306 850.598 68.2829 835.316 61.3363L827.039 79.5437ZM859.919 103.385C869.127 113.573 876.155 124.998 881.044 137.71L899.711 130.53C893.933 115.509 885.602 101.974 874.756 89.9746L859.919 103.385ZM881.113 137.884C886.182 150.361 888.698 163.164 888.698 176.36H908.698C908.698 160.542 905.667 145.186 899.642 130.356L881.113 137.884ZM888.698 176.36C888.698 189.969 886.081 202.94 880.844 215.353L899.271 223.127C905.554 208.234 908.698 192.618 908.698 176.36H888.698ZM880.793 215.476C875.735 227.926 868.442 239.124 858.846 249.112L873.269 262.968C884.58 251.196 893.286 237.861 899.322 223.004L880.793 215.476ZM858.844 249.115C849.522 258.825 838.419 266.636 825.439 272.536L833.716 290.744C848.896 283.844 862.113 274.588 873.271 262.965L858.844 249.115ZM825.555 272.485C812.875 278.056 798.692 280.92 782.857 280.92V300.92C801.156 300.92 818.12 297.597 833.6 290.795L825.555 272.485ZM721.338 175.72C721.338 184.34 722.537 192.757 724.944 200.942L744.131 195.298C742.272 188.976 741.338 182.46 741.338 175.72H721.338ZM724.967 201.02C727.424 209.129 731.134 216.566 736.102 223.272L752.173 211.368C748.607 206.554 745.917 201.191 744.108 195.22L724.967 201.02ZM736.211 223.417C741.377 230.133 747.823 235.526 755.432 239.584L764.843 221.936C759.652 219.167 755.431 215.601 752.064 211.223L736.211 223.417ZM755.782 239.762C764.019 243.747 773.354 245.56 783.497 245.56V225.56C775.721 225.56 769.483 224.173 764.493 221.758L755.782 239.762ZM783.497 245.56C793.731 245.56 803.151 243.606 811.444 239.326L802.271 221.554C797.337 224.1 791.184 225.56 783.497 225.56V245.56ZM811.444 239.326C819.406 235.217 826.002 229.588 831.036 222.435L814.679 210.925C811.606 215.292 807.536 218.836 802.271 221.554L811.444 239.326ZM830.995 222.492C835.945 215.562 839.552 207.98 841.785 199.791L822.49 194.529C820.883 200.42 818.303 205.851 814.72 210.868L830.995 222.492ZM841.731 199.982C844.131 191.824 845.338 183.514 845.338 175.08H825.338C825.338 181.579 824.411 187.99 822.544 194.338L841.731 199.982ZM845.338 175.08C845.338 166.461 844.138 158.121 841.708 150.1L822.567 155.9C824.403 161.959 825.338 168.339 825.338 175.08H845.338ZM841.708 150.1C839.242 141.964 835.504 134.576 830.464 128.023L814.611 140.217C818.104 144.758 820.766 149.956 822.567 155.9L841.708 150.1ZM830.573 128.168C825.32 121.076 818.604 115.564 810.573 111.678L801.862 129.682C807.058 132.196 811.222 135.644 814.502 140.072L830.573 128.168ZM810.573 111.678C802.367 107.708 793.148 105.88 783.177 105.88V125.88C790.7 125.88 796.841 127.252 801.862 129.682L810.573 111.678ZM783.177 105.88C772.944 105.88 763.524 107.834 755.231 112.114L764.404 129.886C769.338 127.34 775.491 125.88 783.177 125.88V105.88ZM755.112 112.176C747.419 116.279 740.943 121.841 735.782 128.808L751.853 140.712C755.226 136.159 759.416 132.547 764.523 129.824L755.112 112.176ZM735.891 128.663C730.813 135.265 727.078 142.795 724.624 151.138L743.811 156.782C745.624 150.618 748.289 145.348 751.744 140.857L735.891 128.663ZM724.57 151.329C722.411 159.246 721.338 167.385 721.338 175.72H741.338C741.338 169.121 742.184 162.754 743.865 156.591L724.57 151.329ZM913.625 332.52H903.625C903.625 338.043 908.102 342.52 913.625 342.52V332.52ZM913.625 234.6V224.6C908.102 224.6 903.625 229.077 903.625 234.6H913.625ZM941.785 228.2L934.535 221.312L941.785 228.2ZM952.025 208.68L961.557 211.702L952.025 208.68ZM958.425 175.72L948.505 174.46C948.499 174.506 948.493 174.552 948.488 174.598L958.425 175.72ZM961.945 128.36L971.939 128.713C971.94 128.691 971.94 128.67 971.941 128.648L961.945 128.36ZM963.865 61.8V51.8C958.454 51.8 954.025 56.1033 953.869 61.5116L963.865 61.8ZM1128.67 61.8H1138.67C1138.67 56.2771 1134.19 51.8 1128.67 51.8V61.8ZM1128.67 234.6H1118.67C1118.67 240.123 1123.14 244.6 1128.67 244.6V234.6ZM1160.67 234.6H1170.67C1170.67 229.077 1166.19 224.6 1160.67 224.6V234.6ZM1160.67 332.52V342.52C1166.19 342.52 1170.67 338.043 1170.67 332.52H1160.67ZM1106.27 332.52H1096.27C1096.27 338.043 1100.74 342.52 1106.27 342.52V332.52ZM1106.27 289H1116.27C1116.27 283.477 1111.79 279 1106.27 279V289ZM968.025 289V279C962.502 279 958.025 283.477 958.025 289H968.025ZM968.025 332.52V342.52C973.548 342.52 978.025 338.043 978.025 332.52H968.025ZM998.425 234.6L991.354 227.529C988.494 230.389 987.638 234.69 989.186 238.427C990.734 242.164 994.38 244.6 998.425 244.6V234.6ZM1066.27 234.6V244.6C1071.79 244.6 1076.27 240.123 1076.27 234.6H1066.27ZM1066.27 116.2H1076.27C1076.27 110.677 1071.79 106.2 1066.27 106.2V116.2ZM1020.83 116.2V106.2C1015.42 106.2 1010.99 110.495 1010.83 115.897L1020.83 116.2ZM1020.18 137.32L1010.19 137.017C1010.19 137.032 1010.19 137.046 1010.19 137.06L1020.18 137.32ZM1017.3 180.84L1007.37 179.662C1007.37 179.712 1007.36 179.761 1007.36 179.811L1017.3 180.84ZM1010.91 212.84L1001.42 209.678C1001.4 209.746 1001.37 209.814 1001.35 209.883L1010.91 212.84ZM923.625 332.52V234.6H903.625V332.52H923.625ZM913.625 244.6H927.705V224.6H913.625V244.6ZM927.705 244.6C936.078 244.6 943.31 241.114 949.035 235.087L934.535 221.312C932.153 223.819 929.998 224.6 927.705 224.6V244.6ZM949.035 235.087C954.554 229.278 958.556 221.167 961.557 211.702L942.493 205.658C939.947 213.687 937.123 218.589 934.535 221.312L949.035 235.087ZM961.557 211.702C964.593 202.129 966.825 190.453 968.362 176.842L948.488 174.598C947.038 187.44 945.004 197.738 942.493 205.658L961.557 211.702ZM968.345 176.98C970.101 163.158 971.291 147.055 971.939 128.713L951.951 128.007C951.319 145.932 950.163 161.402 948.505 174.46L968.345 176.98ZM971.941 128.648L973.861 62.0883L953.869 61.5116L951.949 128.072L971.941 128.648ZM963.865 71.8H1128.67V51.8H963.865V71.8ZM1118.67 61.8V234.6H1138.67V61.8H1118.67ZM1128.67 244.6H1160.67V224.6H1128.67V244.6ZM1150.67 234.6V332.52H1170.67V234.6H1150.67ZM1160.67 322.52H1106.27V342.52H1160.67V322.52ZM1116.27 332.52V289H1096.27V332.52H1116.27ZM1106.27 279H968.025V299H1106.27V279ZM958.025 289V332.52H978.025V289H958.025ZM968.025 322.52H913.625V342.52H968.025V322.52ZM998.425 244.6H1066.27V224.6H998.425V244.6ZM1076.27 234.6V116.2H1056.27V234.6H1076.27ZM1066.27 106.2H1020.83V126.2H1066.27V106.2ZM1010.83 115.897L1010.19 137.017L1030.18 137.623L1030.82 116.503L1010.83 115.897ZM1010.19 137.06C1009.77 153.264 1008.82 167.454 1007.37 179.662L1027.24 182.018C1028.77 169.053 1029.75 154.229 1030.18 137.58L1010.19 137.06ZM1007.36 179.811C1006.13 191.673 1004.11 201.588 1001.42 209.678L1020.39 216.002C1023.67 206.172 1025.92 194.754 1027.25 181.869L1007.36 179.811ZM1001.35 209.883C998.966 217.593 995.547 223.336 991.354 227.529L1005.5 241.671C1012.4 234.77 1017.3 226.007 1020.46 215.797L1001.35 209.883Z" fill="url(#paint1_linear_0_73)" mask="url(#path-3-outside-2_0_73)"/>
</g>
<mask id="path-5-outside-3_0_73" maskUnits="userSpaceOnUse" x="54" y="54" width="1113" height="285" fill="black">
<rect fill="white" x="54" y="54" width="1113" height="285"/>
<path d="M60.8 289V61.8H208.96V116.2H123.2V289H60.8ZM338.795 290.92C321.515 290.92 305.835 287.72 291.755 281.32C277.675 274.707 265.515 265.96 255.275 255.08C245.248 243.987 237.462 231.613 231.915 217.96C226.582 204.093 223.915 189.8 223.915 175.08C223.915 159.933 226.795 145.533 232.555 131.88C238.315 118.227 246.315 106.067 256.555 95.4C267.008 84.52 279.275 75.9867 293.355 69.8C307.648 63.6133 323.222 60.52 340.075 60.52C357.355 60.52 373.035 63.8267 387.115 70.44C401.195 76.84 413.248 85.5867 423.275 96.68C433.302 107.773 440.982 120.253 446.315 134.12C451.862 147.773 454.635 161.853 454.635 176.36C454.635 191.293 451.755 205.587 445.995 219.24C440.448 232.893 432.448 245.16 421.995 256.04C411.755 266.707 399.595 275.24 385.515 281.64C371.435 287.827 355.862 290.92 338.795 290.92ZM287.275 175.72C287.275 183.4 288.342 190.867 290.475 198.12C292.608 205.16 295.808 211.56 300.075 217.32C304.342 222.867 309.675 227.347 316.075 230.76C322.688 233.96 330.475 235.56 339.435 235.56C348.395 235.56 356.182 233.853 362.795 230.44C369.408 227.027 374.742 222.44 378.795 216.68C383.062 210.707 386.155 204.2 388.075 197.16C390.208 189.907 391.275 182.547 391.275 175.08C391.275 167.4 390.208 160.04 388.075 153C385.942 145.96 382.742 139.667 378.475 134.12C374.208 128.36 368.768 123.88 362.155 120.68C355.542 117.48 347.862 115.88 339.115 115.88C330.155 115.88 322.368 117.587 315.755 121C309.355 124.413 304.022 129 299.755 134.76C295.488 140.307 292.288 146.707 290.155 153.96C288.235 161 287.275 168.253 287.275 175.72ZM481.083 289V61.8H579.003C590.096 61.8 600.336 64.04 609.723 68.52C619.109 73 627.216 79.08 634.043 86.76C640.869 94.2267 646.096 102.653 649.722 112.04C653.563 121.427 655.483 130.92 655.483 140.52C655.483 153.96 652.283 166.653 645.883 178.6C639.696 190.547 630.949 200.36 619.643 208.04C608.549 215.507 595.536 219.24 580.603 219.24H543.483V289H481.083ZM543.483 164.84H576.443C579.003 164.84 581.456 164.093 583.803 162.6C586.149 161.107 588.069 158.547 589.563 154.92C591.269 151.293 592.123 146.493 592.123 140.52C592.123 134.12 591.163 129.213 589.243 125.8C587.536 122.173 585.296 119.72 582.523 118.44C579.963 116.947 577.403 116.2 574.843 116.2H543.483V164.84ZM782.858 290.92C765.578 290.92 749.898 287.72 735.818 281.32C721.738 274.707 709.578 265.96 699.338 255.08C689.311 243.987 681.524 231.613 675.978 217.96C670.644 204.093 667.978 189.8 667.978 175.08C667.978 159.933 670.858 145.533 676.618 131.88C682.378 118.227 690.378 106.067 700.618 95.4C711.071 84.52 723.338 75.9867 737.418 69.8C751.711 63.6133 767.284 60.52 784.138 60.52C801.418 60.52 817.098 63.8267 831.178 70.44C845.258 76.84 857.311 85.5867 867.338 96.68C877.364 107.773 885.044 120.253 890.378 134.12C895.924 147.773 898.698 161.853 898.698 176.36C898.698 191.293 895.818 205.587 890.058 219.24C884.511 232.893 876.511 245.16 866.058 256.04C855.818 266.707 843.658 275.24 829.578 281.64C815.498 287.827 799.924 290.92 782.858 290.92ZM731.338 175.72C731.338 183.4 732.404 190.867 734.538 198.12C736.671 205.16 739.871 211.56 744.138 217.32C748.404 222.867 753.738 227.347 760.138 230.76C766.751 233.96 774.538 235.56 783.498 235.56C792.458 235.56 800.244 233.853 806.858 230.44C813.471 227.027 818.804 222.44 822.858 216.68C827.124 210.707 830.218 204.2 832.138 197.16C834.271 189.907 835.338 182.547 835.338 175.08C835.338 167.4 834.271 160.04 832.138 153C830.004 145.96 826.804 139.667 822.537 134.12C818.271 128.36 812.831 123.88 806.218 120.68C799.604 117.48 791.924 115.88 783.178 115.88C774.218 115.88 766.431 117.587 759.818 121C753.418 124.413 748.084 129 743.818 134.76C739.551 140.307 736.351 146.707 734.218 153.96C732.298 161 731.338 168.253 731.338 175.72ZM913.625 332.52V234.6H927.705C933.038 234.6 937.732 232.467 941.785 228.2C945.838 223.933 949.252 217.427 952.025 208.68C954.798 199.933 956.932 188.947 958.425 175.72C960.132 162.28 961.305 146.493 961.945 128.36L963.865 61.8H1128.67V234.6H1160.67V332.52H1106.27V289H968.025V332.52H913.625ZM998.425 234.6H1066.27V116.2H1020.83L1020.19 137.32C1019.76 153.747 1018.8 168.253 1017.31 180.84C1016.03 193.213 1013.89 203.88 1010.91 212.84C1008.13 221.8 1003.97 229.053 998.425 234.6Z"/>
</mask>
<path d="M60.8 289H54.8C54.8 292.314 57.4863 295 60.8 295V289ZM60.8 61.8V55.8C57.4863 55.8 54.8 58.4863 54.8 61.8H60.8ZM208.96 61.8H214.96C214.96 58.4863 212.274 55.8 208.96 55.8V61.8ZM208.96 116.2V122.2C212.274 122.2 214.96 119.514 214.96 116.2H208.96ZM123.2 116.2V110.2C119.886 110.2 117.2 112.886 117.2 116.2H123.2ZM123.2 289V295C126.514 295 129.2 292.314 129.2 289H123.2ZM66.8 289V61.8H54.8V289H66.8ZM60.8 67.8H208.96V55.8H60.8V67.8ZM202.96 61.8V116.2H214.96V61.8H202.96ZM208.96 110.2H123.2V122.2H208.96V110.2ZM117.2 116.2V289H129.2V116.2H117.2ZM123.2 283H60.8V295H123.2V283ZM291.755 281.32L289.204 286.751C289.227 286.761 289.249 286.772 289.272 286.782L291.755 281.32ZM255.275 255.08L250.824 259.103C250.851 259.133 250.878 259.163 250.906 259.192L255.275 255.08ZM231.915 217.96L226.315 220.114C226.328 220.149 226.342 220.184 226.356 220.218L231.915 217.96ZM232.555 131.88L227.027 129.548L232.555 131.88ZM256.555 95.4L252.228 91.243L252.227 91.2448L256.555 95.4ZM293.355 69.8L290.972 64.2936C290.962 64.298 290.951 64.3024 290.941 64.3069L293.355 69.8ZM387.115 70.44L384.564 75.8708C384.587 75.8814 384.609 75.8919 384.632 75.9022L387.115 70.44ZM423.275 96.68L418.824 100.703L423.275 96.68ZM446.315 134.12L440.715 136.274C440.728 136.309 440.742 136.344 440.756 136.378L446.315 134.12ZM445.995 219.24L440.467 216.908C440.456 216.932 440.446 216.957 440.436 216.982L445.995 219.24ZM421.995 256.04L417.668 251.883L417.667 251.885L421.995 256.04ZM385.515 281.64L387.929 287.133C387.952 287.123 387.975 287.113 387.998 287.102L385.515 281.64ZM290.475 198.12L284.719 199.813C284.723 199.829 284.728 199.844 284.733 199.86L290.475 198.12ZM300.075 217.32L295.254 220.891C295.275 220.921 295.297 220.949 295.319 220.978L300.075 217.32ZM316.075 230.76L313.251 236.054C313.321 236.091 313.391 236.127 313.462 236.161L316.075 230.76ZM362.795 230.44L365.547 235.772L362.795 230.44ZM378.795 216.68L373.913 213.193C373.904 213.204 373.896 213.216 373.888 213.227L378.795 216.68ZM388.075 197.16L382.319 195.467C382.308 195.505 382.297 195.543 382.286 195.581L388.075 197.16ZM388.075 153L382.333 154.74L388.075 153ZM378.475 134.12L373.654 137.691C373.675 137.721 373.697 137.749 373.719 137.778L378.475 134.12ZM362.155 120.68L364.768 115.279L362.155 120.68ZM315.755 121L313.003 115.668C312.979 115.681 312.955 115.693 312.931 115.706L315.755 121ZM299.755 134.76L304.511 138.418C304.533 138.389 304.555 138.361 304.576 138.331L299.755 134.76ZM290.155 153.96L284.399 152.267C284.388 152.305 284.377 152.343 284.366 152.381L290.155 153.96ZM338.795 284.92C322.271 284.92 307.451 281.864 294.238 275.858L289.272 286.782C304.219 293.576 320.759 296.92 338.795 296.92V284.92ZM294.306 275.889C280.881 269.584 269.345 261.275 259.644 250.968L250.906 259.192C261.685 270.645 274.469 279.83 289.204 286.751L294.306 275.889ZM259.726 251.057C250.162 240.475 242.753 228.697 237.474 215.702L226.356 220.218C232.17 234.53 240.335 247.498 250.824 259.103L259.726 251.057ZM237.515 215.806C232.444 202.62 229.915 189.057 229.915 175.08H217.915C217.915 190.543 220.72 205.566 226.315 220.114L237.515 215.806ZM229.915 175.08C229.915 160.716 232.642 147.111 238.083 134.212L227.027 129.548C220.948 143.956 217.915 159.15 217.915 175.08H229.915ZM238.083 134.212C243.559 121.233 251.152 109.691 260.883 99.5552L252.227 91.2448C241.478 102.442 233.071 115.22 227.027 129.548L238.083 134.212ZM260.882 99.557C270.78 89.2543 282.393 81.1701 295.769 75.2931L290.941 64.3069C276.157 70.8032 263.236 79.7857 252.228 91.243L260.882 99.557ZM295.738 75.3063C309.219 69.4713 323.973 66.52 340.075 66.52V54.52C322.47 54.52 306.077 57.7553 290.972 64.2936L295.738 75.3063ZM340.075 66.52C356.572 66.52 371.367 69.6721 384.564 75.8708L389.666 65.0092C374.703 57.9812 358.138 54.52 340.075 54.52V66.52ZM384.632 75.9022C397.991 81.9743 409.367 90.2403 418.824 100.703L427.726 92.6568C417.13 80.9331 404.399 71.7057 389.598 64.9778L384.632 75.9022ZM418.824 100.703C428.359 111.253 435.648 123.1 440.715 136.274L451.915 131.966C446.315 117.406 438.244 104.294 427.726 92.6568L418.824 100.703ZM440.756 136.378C446.016 149.326 448.635 162.64 448.635 176.36H460.635C460.635 161.067 457.707 146.221 451.874 131.862L440.756 136.378ZM448.635 176.36C448.635 190.499 445.913 203.998 440.467 216.908L451.523 221.572C457.597 207.175 460.635 192.088 460.635 176.36H448.635ZM440.436 216.982C435.183 229.913 427.607 241.539 417.668 251.883L426.322 260.197C437.29 248.781 445.714 235.874 451.554 221.498L440.436 216.982ZM417.667 251.885C407.978 261.978 396.452 270.078 383.032 276.178L387.998 287.102C402.738 280.402 415.533 271.436 426.323 260.195L417.667 251.885ZM383.101 276.147C369.862 281.964 355.122 284.92 338.795 284.92V296.92C356.601 296.92 373.008 293.689 387.929 287.133L383.101 276.147ZM281.275 175.72C281.275 183.964 282.421 192.001 284.719 199.813L296.231 196.427C294.262 189.732 293.275 182.836 293.275 175.72H281.275ZM284.733 199.86C287.06 207.541 290.567 214.564 295.254 220.891L304.896 213.749C301.05 208.556 298.156 202.779 296.217 196.38L284.733 199.86ZM295.319 220.978C300.125 227.226 306.127 232.254 313.251 236.054L318.899 225.466C313.223 222.439 308.558 218.507 304.831 213.662L295.319 220.978ZM313.462 236.161C321.049 239.832 329.765 241.56 339.435 241.56V229.56C331.185 229.56 324.328 228.088 318.688 225.359L313.462 236.161ZM339.435 241.56C349.159 241.56 357.926 239.705 365.547 235.772L360.043 225.108C354.437 228.002 347.631 229.56 339.435 229.56V241.56ZM365.547 235.772C372.969 231.941 379.06 226.729 383.702 220.133L373.888 213.227C370.423 218.151 365.847 222.113 360.043 225.108L365.547 235.772ZM383.677 220.167C388.354 213.62 391.756 206.468 393.864 198.739L382.286 195.581C380.554 201.932 377.769 207.793 373.913 213.193L383.677 220.167ZM393.831 198.853C396.124 191.057 397.275 183.127 397.275 175.08H385.275C385.275 181.966 384.293 188.756 382.319 195.467L393.831 198.853ZM397.275 175.08C397.275 166.837 396.129 158.889 393.817 151.26L382.333 154.74C384.288 161.191 385.275 167.963 385.275 175.08H397.275ZM393.817 151.26C391.484 143.562 387.962 136.612 383.231 130.462L373.719 137.778C377.522 142.721 380.399 148.358 382.333 154.74L393.817 151.26ZM383.296 130.549C378.438 123.989 372.232 118.891 364.768 115.279L359.542 126.081C365.305 128.869 369.979 132.731 373.654 137.691L383.296 130.549ZM364.768 115.279C357.199 111.617 348.596 109.88 339.115 109.88V121.88C347.127 121.88 353.884 123.343 359.542 126.081L364.768 115.279ZM339.115 109.88C329.391 109.88 320.624 111.735 313.003 115.668L318.507 126.332C324.113 123.438 330.919 121.88 339.115 121.88V109.88ZM312.931 115.706C305.756 119.533 299.737 124.705 294.934 131.189L304.576 138.331C308.307 133.295 312.954 129.294 318.579 126.294L312.931 115.706ZM294.999 131.102C290.245 137.282 286.724 144.36 284.399 152.267L295.911 155.653C297.852 149.053 300.731 143.332 304.511 138.418L294.999 131.102ZM284.366 152.381C282.303 159.948 281.275 167.733 281.275 175.72H293.275C293.275 168.774 294.167 162.052 295.944 155.539L284.366 152.381ZM481.082 289H475.082C475.082 292.314 477.769 295 481.082 295V289ZM481.082 61.8V55.8C477.769 55.8 475.082 58.4863 475.082 61.8H481.082ZM609.723 68.52L607.138 73.9349L609.723 68.52ZM634.042 86.76L629.558 90.7462C629.577 90.7671 629.595 90.7879 629.614 90.8086L634.042 86.76ZM649.722 112.04L644.126 114.202C644.14 114.239 644.154 114.275 644.169 114.312L649.722 112.04ZM645.883 178.6L640.594 175.767C640.58 175.791 640.567 175.816 640.555 175.841L645.883 178.6ZM619.643 208.04L622.993 213.018C623 213.013 623.007 213.008 623.014 213.003L619.643 208.04ZM543.483 219.24V213.24C540.169 213.24 537.483 215.926 537.483 219.24H543.483ZM543.483 289V295C546.796 295 549.483 292.314 549.483 289H543.483ZM543.483 164.84H537.483C537.483 168.154 540.169 170.84 543.483 170.84V164.84ZM583.802 162.6L587.024 167.662V167.662L583.802 162.6ZM589.562 154.92L584.134 152.365C584.092 152.454 584.052 152.544 584.014 152.635L589.562 154.92ZM589.242 125.8L583.814 128.355C583.875 128.486 583.942 128.615 584.013 128.742L589.242 125.8ZM582.523 118.44L579.499 123.623C579.665 123.719 579.834 123.808 580.008 123.888L582.523 118.44ZM543.483 116.2V110.2C540.169 110.2 537.483 112.886 537.483 116.2H543.483ZM487.082 289V61.8H475.082V289H487.082ZM481.082 67.8H579.003V55.8H481.082V67.8ZM579.003 67.8C589.262 67.8 598.612 69.8654 607.138 73.9349L612.307 63.1051C602.06 58.2146 590.929 55.8 579.003 55.8V67.8ZM607.138 73.9349C615.812 78.0745 623.27 83.6718 629.558 90.7462L638.527 82.7738C631.162 74.4881 622.407 67.9255 612.307 63.1051L607.138 73.9349ZM629.614 90.8086C635.94 97.7277 640.769 105.515 644.126 114.202L655.319 109.878C651.422 99.7912 645.798 90.7256 638.471 82.7114L629.614 90.8086ZM644.169 114.312C647.731 123.019 649.482 131.742 649.482 140.52H661.482C661.482 130.098 659.394 119.835 655.276 109.768L644.169 114.312ZM649.482 140.52C649.482 152.963 646.531 164.684 640.594 175.767L651.171 181.433C658.034 168.623 661.482 154.957 661.482 140.52H649.482ZM640.555 175.841C634.834 186.887 626.766 195.948 616.271 203.077L623.014 213.003C635.132 204.772 644.557 194.206 651.21 181.359L640.555 175.841ZM616.292 203.062C606.303 209.786 594.487 213.24 580.602 213.24V225.24C596.585 225.24 610.796 221.227 622.993 213.018L616.292 203.062ZM580.602 213.24H543.483V225.24H580.602V213.24ZM537.483 219.24V289H549.483V219.24H537.483ZM543.483 283H481.082V295H543.483V283ZM543.483 170.84H576.443V158.84H543.483V170.84ZM576.443 170.84C580.242 170.84 583.801 169.713 587.024 167.662L580.581 157.538C579.111 158.474 577.763 158.84 576.443 158.84V170.84ZM587.024 167.662C590.762 165.283 593.333 161.522 595.111 157.204L584.014 152.635C582.805 155.572 581.536 156.93 580.581 157.538L587.024 167.662ZM594.991 157.475C597.213 152.755 598.122 146.981 598.122 140.52H586.122C586.122 146.006 585.326 149.832 584.134 152.365L594.991 157.475ZM598.122 140.52C598.122 133.673 597.122 127.569 594.472 122.858L584.013 128.742C585.203 130.858 586.122 134.567 586.122 140.52H598.122ZM594.671 123.245C592.554 118.745 589.446 115.027 585.037 112.992L580.008 123.888C581.146 124.413 582.518 125.601 583.814 128.355L594.671 123.245ZM585.546 113.257C582.215 111.314 578.623 110.2 574.843 110.2V122.2C576.182 122.2 577.71 122.579 579.499 123.623L585.546 113.257ZM574.843 110.2H543.483V122.2H574.843V110.2ZM537.483 116.2V164.84H549.483V116.2H537.483ZM735.818 281.32L733.267 286.751C733.289 286.761 733.312 286.772 733.335 286.782L735.818 281.32ZM699.338 255.08L694.886 259.103C694.913 259.133 694.941 259.163 694.968 259.192L699.338 255.08ZM675.977 217.96L670.377 220.114C670.391 220.149 670.405 220.184 670.419 220.218L675.977 217.96ZM676.617 131.88L671.089 129.548L676.617 131.88ZM700.617 95.4L696.291 91.243L696.289 91.2448L700.617 95.4ZM737.417 69.8L735.034 64.2936C735.024 64.298 735.014 64.3024 735.004 64.3069L737.417 69.8ZM831.177 70.44L828.627 75.8708C828.649 75.8814 828.672 75.8919 828.695 75.9022L831.177 70.44ZM867.338 96.68L862.886 100.703L867.338 96.68ZM890.378 134.12L884.777 136.274C884.791 136.309 884.805 136.344 884.819 136.378L890.378 134.12ZM890.057 219.24L884.529 216.908C884.519 216.932 884.509 216.957 884.499 216.982L890.057 219.24ZM866.057 256.04L861.731 251.883L861.729 251.885L866.057 256.04ZM829.578 281.64L831.991 287.133C832.014 287.123 832.037 287.113 832.06 287.102L829.578 281.64ZM734.537 198.12L728.781 199.813C728.786 199.829 728.791 199.844 728.795 199.86L734.537 198.12ZM744.138 217.32L739.316 220.891C739.338 220.921 739.36 220.949 739.382 220.978L744.138 217.32ZM760.138 230.76L757.314 236.054C757.383 236.091 757.453 236.127 757.524 236.161L760.138 230.76ZM806.857 230.44L809.609 235.772L806.857 230.44ZM822.858 216.68L817.975 213.193C817.967 213.204 817.959 213.216 817.951 213.227L822.858 216.68ZM832.138 197.16L826.381 195.467C826.37 195.505 826.359 195.543 826.349 195.581L832.138 197.16ZM832.138 153L826.395 154.74L832.138 153ZM822.537 134.12L817.716 137.691C817.738 137.721 817.76 137.749 817.782 137.778L822.537 134.12ZM806.218 120.68L808.831 115.279L806.218 120.68ZM759.818 121L757.066 115.668C757.042 115.681 757.018 115.693 756.994 115.706L759.818 121ZM743.818 134.76L748.573 138.418C748.595 138.389 748.617 138.361 748.639 138.331L743.818 134.76ZM734.218 153.96L728.461 152.267C728.45 152.305 728.439 152.343 728.429 152.381L734.218 153.96ZM782.857 284.92C766.333 284.92 751.514 281.864 738.3 275.858L733.335 286.782C748.281 293.576 764.822 296.92 782.857 296.92V284.92ZM738.368 275.889C724.943 269.584 713.408 261.275 703.707 250.968L694.968 259.192C705.747 270.645 718.532 279.83 733.267 286.751L738.368 275.889ZM703.789 251.057C694.224 240.475 686.816 228.697 681.536 215.702L670.419 220.218C676.233 234.53 684.397 247.498 694.886 259.103L703.789 251.057ZM681.578 215.806C676.506 202.62 673.977 189.057 673.977 175.08H661.977C661.977 190.543 664.782 205.566 670.377 220.114L681.578 215.806ZM673.977 175.08C673.977 160.716 676.704 147.111 682.146 134.212L671.089 129.548C665.011 143.956 661.977 159.15 661.977 175.08H673.977ZM682.146 134.212C687.621 121.233 695.215 109.691 704.946 99.5552L696.289 91.2448C685.54 102.442 677.134 115.22 671.089 129.548L682.146 134.212ZM704.944 99.557C714.843 89.2543 726.456 81.1701 739.831 75.2931L735.004 64.3069C720.219 70.8032 707.299 79.7857 696.291 91.243L704.944 99.557ZM739.801 75.3063C753.282 69.4713 768.036 66.52 784.138 66.52V54.52C766.532 54.52 750.14 57.7553 735.034 64.2936L739.801 75.3063ZM784.138 66.52C800.634 66.52 815.429 69.6721 828.627 75.8708L833.728 65.0092C818.766 57.9812 802.201 54.52 784.138 54.52V66.52ZM828.695 75.9022C842.053 81.9743 853.429 90.2403 862.886 100.703L871.789 92.6568C861.192 80.9331 848.462 71.7057 833.66 64.9778L828.695 75.9022ZM862.886 100.703C872.422 111.253 879.711 123.1 884.777 136.274L895.978 131.966C890.378 117.406 882.307 104.294 871.789 92.6568L862.886 100.703ZM884.819 136.378C890.079 149.326 892.698 162.64 892.698 176.36H904.698C904.698 161.067 901.77 146.221 895.936 131.862L884.819 136.378ZM892.698 176.36C892.698 190.499 889.975 203.998 884.529 216.908L895.586 221.572C901.66 207.175 904.698 192.088 904.698 176.36H892.698ZM884.499 216.982C879.245 229.913 871.67 241.539 861.731 251.883L870.384 260.197C881.352 248.781 889.776 235.874 895.616 221.498L884.499 216.982ZM861.729 251.885C852.04 261.978 840.515 270.078 827.095 276.178L832.06 287.102C846.8 280.402 859.595 271.436 870.386 260.195L861.729 251.885ZM827.164 276.147C813.924 281.964 799.185 284.92 782.857 284.92V296.92C800.664 296.92 817.071 293.689 831.991 287.133L827.164 276.147ZM725.338 175.72C725.338 183.964 726.484 192.001 728.781 199.813L740.294 196.427C738.325 189.732 737.338 182.836 737.338 175.72H725.338ZM728.795 199.86C731.123 207.541 734.629 214.564 739.316 220.891L748.959 213.749C745.113 208.556 742.219 202.779 740.28 196.38L728.795 199.86ZM739.382 220.978C744.188 227.226 750.189 232.254 757.314 236.054L762.961 225.466C757.286 222.439 752.62 218.507 748.893 213.662L739.382 220.978ZM757.524 236.161C765.111 239.832 773.828 241.56 783.497 241.56V229.56C775.247 229.56 768.39 228.088 762.751 225.359L757.524 236.161ZM783.497 241.56C793.221 241.56 801.988 239.705 809.609 235.772L804.106 225.108C798.5 228.002 791.694 229.56 783.497 229.56V241.56ZM809.609 235.772C817.032 231.941 823.123 226.729 827.764 220.133L817.951 213.227C814.485 218.151 809.91 222.113 804.106 225.108L809.609 235.772ZM827.74 220.167C832.417 213.62 835.818 206.468 837.926 198.739L826.349 195.581C824.617 201.932 821.832 207.793 817.975 213.193L827.74 220.167ZM837.894 198.853C840.187 191.057 841.338 183.127 841.338 175.08H829.338C829.338 181.966 828.355 188.756 826.381 195.467L837.894 198.853ZM841.338 175.08C841.338 166.837 840.191 158.889 837.88 151.26L826.395 154.74C828.35 161.191 829.338 167.963 829.338 175.08H841.338ZM837.88 151.26C835.547 143.562 832.024 136.612 827.293 130.462L817.782 137.778C821.584 142.721 824.461 148.358 826.395 154.74L837.88 151.26ZM827.359 130.549C822.5 123.989 816.295 118.891 808.831 115.279L803.604 126.081C809.367 128.869 814.042 132.731 817.716 137.691L827.359 130.549ZM808.831 115.279C801.262 111.617 792.659 109.88 783.177 109.88V121.88C791.19 121.88 797.946 123.343 803.604 126.081L808.831 115.279ZM783.177 109.88C773.454 109.88 764.687 111.735 757.066 115.668L762.569 126.332C768.175 123.438 774.981 121.88 783.177 121.88V109.88ZM756.994 115.706C749.818 119.533 743.799 124.705 738.996 131.189L748.639 138.331C752.369 133.295 757.017 129.294 762.641 126.294L756.994 115.706ZM739.062 131.102C734.308 137.282 730.787 144.36 728.461 152.267L739.974 155.653C741.915 149.053 744.794 143.332 748.573 138.418L739.062 131.102ZM728.429 152.381C726.365 159.948 725.338 167.733 725.338 175.72H737.338C737.338 168.774 738.23 162.052 740.006 155.539L728.429 152.381ZM913.625 332.52H907.625C907.625 335.834 910.311 338.52 913.625 338.52V332.52ZM913.625 234.6V228.6C910.311 228.6 907.625 231.286 907.625 234.6H913.625ZM941.785 228.2L937.435 224.068L941.785 228.2ZM952.025 208.68L957.744 210.493L952.025 208.68ZM958.425 175.72L952.473 174.964C952.469 174.992 952.466 175.019 952.463 175.047L958.425 175.72ZM961.945 128.36L967.941 128.572C967.942 128.559 967.942 128.546 967.943 128.533L961.945 128.36ZM963.865 61.8V55.8C960.619 55.8 957.961 58.382 957.867 61.627L963.865 61.8ZM1128.67 61.8H1134.67C1134.67 58.4863 1131.98 55.8 1128.67 55.8V61.8ZM1128.67 234.6H1122.67C1122.67 237.914 1125.35 240.6 1128.67 240.6V234.6ZM1160.67 234.6H1166.67C1166.67 231.286 1163.98 228.6 1160.67 228.6V234.6ZM1160.67 332.52V338.52C1163.98 338.52 1166.67 335.834 1166.67 332.52H1160.67ZM1106.27 332.52H1100.27C1100.27 335.834 1102.95 338.52 1106.27 338.52V332.52ZM1106.27 289H1112.27C1112.27 285.686 1109.58 283 1106.27 283V289ZM968.025 289V283C964.711 283 962.025 285.686 962.025 289H968.025ZM968.025 332.52V338.52C971.339 338.52 974.025 335.834 974.025 332.52H968.025ZM998.425 234.6L994.182 230.357C992.466 232.073 991.953 234.654 992.882 236.896C993.81 239.138 995.998 240.6 998.425 240.6V234.6ZM1066.27 234.6V240.6C1069.58 240.6 1072.27 237.914 1072.27 234.6H1066.27ZM1066.27 116.2H1072.27C1072.27 112.886 1069.58 110.2 1066.27 110.2V116.2ZM1020.83 116.2V110.2C1017.58 110.2 1014.93 112.777 1014.83 116.018L1020.83 116.2ZM1020.18 137.32L1014.19 137.138C1014.19 137.147 1014.19 137.156 1014.19 137.164L1020.18 137.32ZM1017.3 180.84L1011.35 180.133C1011.34 180.163 1011.34 180.193 1011.34 180.223L1017.3 180.84ZM1010.91 212.84L1005.21 210.943C1005.2 210.984 1005.19 211.025 1005.17 211.066L1010.91 212.84ZM919.625 332.52V234.6H907.625V332.52H919.625ZM913.625 240.6H927.705V228.6H913.625V240.6ZM927.705 240.6C934.862 240.6 941.079 237.655 946.135 232.332L937.435 224.068C934.385 227.278 931.214 228.6 927.705 228.6V240.6ZM946.135 232.332C951.068 227.14 954.835 219.671 957.744 210.493L946.306 206.867C943.669 215.183 940.609 220.727 937.435 224.068L946.135 232.332ZM957.744 210.493C960.675 201.251 962.868 189.85 964.387 176.393L952.463 175.047C950.996 188.043 948.922 198.616 946.306 206.867L957.744 210.493ZM964.377 176.476C966.113 162.807 967.297 146.83 967.941 128.572L955.949 128.148C955.313 146.156 954.15 161.753 952.473 174.964L964.377 176.476ZM967.943 128.533L969.862 61.973L957.867 61.627L955.948 128.187L967.943 128.533ZM963.865 67.8H1128.67V55.8H963.865V67.8ZM1122.67 61.8V234.6H1134.67V61.8H1122.67ZM1128.67 240.6H1160.67V228.6H1128.67V240.6ZM1154.67 234.6V332.52H1166.67V234.6H1154.67ZM1160.67 326.52H1106.27V338.52H1160.67V326.52ZM1112.27 332.52V289H1100.27V332.52H1112.27ZM1106.27 283H968.025V295H1106.27V283ZM962.025 289V332.52H974.025V289H962.025ZM968.025 326.52H913.625V338.52H968.025V326.52ZM998.425 240.6H1066.27V228.6H998.425V240.6ZM1072.27 234.6V116.2H1060.27V234.6H1072.27ZM1066.27 110.2H1020.83V122.2H1066.27V110.2ZM1014.83 116.018L1014.19 137.138L1026.18 137.502L1026.82 116.382L1014.83 116.018ZM1014.19 137.164C1013.76 153.457 1012.81 167.774 1011.35 180.133L1023.26 181.547C1024.78 168.733 1025.75 154.036 1026.18 137.476L1014.19 137.164ZM1011.34 180.223C1010.09 192.289 1008.03 202.505 1005.21 210.943L1016.6 214.737C1019.76 205.255 1021.96 194.138 1023.27 181.457L1011.34 180.223ZM1005.17 211.066C1002.63 219.276 998.917 225.623 994.182 230.357L1002.67 238.843C1009.03 232.484 1013.63 224.324 1016.64 214.614L1005.17 211.066Z" fill="url(#paint2_linear_0_73)" mask="url(#path-5-outside-3_0_73)"/>
<mask id="path-7-outside-4_0_73" maskUnits="userSpaceOnUse" x="57" y="57" width="1107" height="279" fill="black">
<rect fill="white" x="57" y="57" width="1107" height="279"/>
<path d="M60.8 289V61.8H208.96V116.2H123.2V289H60.8ZM338.795 290.92C321.515 290.92 305.835 287.72 291.755 281.32C277.675 274.707 265.515 265.96 255.275 255.08C245.248 243.987 237.462 231.613 231.915 217.96C226.582 204.093 223.915 189.8 223.915 175.08C223.915 159.933 226.795 145.533 232.555 131.88C238.315 118.227 246.315 106.067 256.555 95.4C267.008 84.52 279.275 75.9867 293.355 69.8C307.648 63.6133 323.222 60.52 340.075 60.52C357.355 60.52 373.035 63.8267 387.115 70.44C401.195 76.84 413.248 85.5867 423.275 96.68C433.302 107.773 440.982 120.253 446.315 134.12C451.862 147.773 454.635 161.853 454.635 176.36C454.635 191.293 451.755 205.587 445.995 219.24C440.448 232.893 432.448 245.16 421.995 256.04C411.755 266.707 399.595 275.24 385.515 281.64C371.435 287.827 355.862 290.92 338.795 290.92ZM287.275 175.72C287.275 183.4 288.342 190.867 290.475 198.12C292.608 205.16 295.808 211.56 300.075 217.32C304.342 222.867 309.675 227.347 316.075 230.76C322.688 233.96 330.475 235.56 339.435 235.56C348.395 235.56 356.182 233.853 362.795 230.44C369.408 227.027 374.742 222.44 378.795 216.68C383.062 210.707 386.155 204.2 388.075 197.16C390.208 189.907 391.275 182.547 391.275 175.08C391.275 167.4 390.208 160.04 388.075 153C385.942 145.96 382.742 139.667 378.475 134.12C374.208 128.36 368.768 123.88 362.155 120.68C355.542 117.48 347.862 115.88 339.115 115.88C330.155 115.88 322.368 117.587 315.755 121C309.355 124.413 304.022 129 299.755 134.76C295.488 140.307 292.288 146.707 290.155 153.96C288.235 161 287.275 168.253 287.275 175.72ZM481.083 289V61.8H579.003C590.096 61.8 600.336 64.04 609.723 68.52C619.109 73 627.216 79.08 634.043 86.76C640.869 94.2267 646.096 102.653 649.722 112.04C653.563 121.427 655.483 130.92 655.483 140.52C655.483 153.96 652.283 166.653 645.883 178.6C639.696 190.547 630.949 200.36 619.643 208.04C608.549 215.507 595.536 219.24 580.603 219.24H543.483V289H481.083ZM543.483 164.84H576.443C579.003 164.84 581.456 164.093 583.803 162.6C586.149 161.107 588.069 158.547 589.563 154.92C591.269 151.293 592.123 146.493 592.123 140.52C592.123 134.12 591.163 129.213 589.243 125.8C587.536 122.173 585.296 119.72 582.523 118.44C579.963 116.947 577.403 116.2 574.843 116.2H543.483V164.84ZM782.858 290.92C765.578 290.92 749.898 287.72 735.818 281.32C721.738 274.707 709.578 265.96 699.338 255.08C689.311 243.987 681.524 231.613 675.978 217.96C670.644 204.093 667.978 189.8 667.978 175.08C667.978 159.933 670.858 145.533 676.618 131.88C682.378 118.227 690.378 106.067 700.618 95.4C711.071 84.52 723.338 75.9867 737.418 69.8C751.711 63.6133 767.284 60.52 784.138 60.52C801.418 60.52 817.098 63.8267 831.178 70.44C845.258 76.84 857.311 85.5867 867.338 96.68C877.364 107.773 885.044 120.253 890.378 134.12C895.924 147.773 898.698 161.853 898.698 176.36C898.698 191.293 895.818 205.587 890.058 219.24C884.511 232.893 876.511 245.16 866.058 256.04C855.818 266.707 843.658 275.24 829.578 281.64C815.498 287.827 799.924 290.92 782.858 290.92ZM731.338 175.72C731.338 183.4 732.404 190.867 734.538 198.12C736.671 205.16 739.871 211.56 744.138 217.32C748.404 222.867 753.738 227.347 760.138 230.76C766.751 233.96 774.538 235.56 783.498 235.56C792.458 235.56 800.244 233.853 806.858 230.44C813.471 227.027 818.804 222.44 822.858 216.68C827.124 210.707 830.218 204.2 832.138 197.16C834.271 189.907 835.338 182.547 835.338 175.08C835.338 167.4 834.271 160.04 832.138 153C830.004 145.96 826.804 139.667 822.537 134.12C818.271 128.36 812.831 123.88 806.218 120.68C799.604 117.48 791.924 115.88 783.178 115.88C774.218 115.88 766.431 117.587 759.818 121C753.418 124.413 748.084 129 743.818 134.76C739.551 140.307 736.351 146.707 734.218 153.96C732.298 161 731.338 168.253 731.338 175.72ZM913.625 332.52V234.6H927.705C933.038 234.6 937.732 232.467 941.785 228.2C945.838 223.933 949.252 217.427 952.025 208.68C954.798 199.933 956.932 188.947 958.425 175.72C960.132 162.28 961.305 146.493 961.945 128.36L963.865 61.8H1128.67V234.6H1160.67V332.52H1106.27V289H968.025V332.52H913.625ZM998.425 234.6H1066.27V116.2H1020.83L1020.19 137.32C1019.76 153.747 1018.8 168.253 1017.31 180.84C1016.03 193.213 1013.89 203.88 1010.91 212.84C1008.13 221.8 1003.97 229.053 998.425 234.6Z"/>
</mask>
<path d="M60.8 289H57.8V292H60.8V289ZM60.8 61.8V58.8H57.8V61.8H60.8ZM208.96 61.8H211.96V58.8H208.96V61.8ZM208.96 116.2V119.2H211.96V116.2H208.96ZM123.2 116.2V113.2H120.2V116.2H123.2ZM123.2 289V292H126.2V289H123.2ZM63.8 289V61.8H57.8V289H63.8ZM60.8 64.8H208.96V58.8H60.8V64.8ZM205.96 61.8V116.2H211.96V61.8H205.96ZM208.96 113.2H123.2V119.2H208.96V113.2ZM120.2 116.2V289H126.2V116.2H120.2ZM123.2 286H60.8V292H123.2V286ZM291.755 281.32L290.48 284.035L290.497 284.043L290.514 284.051L291.755 281.32ZM255.275 255.08L253.049 257.092L253.07 257.114L253.09 257.136L255.275 255.08ZM231.915 217.96L229.115 219.037L229.125 219.063L229.136 219.089L231.915 217.96ZM232.555 131.88L229.791 130.714L232.555 131.88ZM256.555 95.4L254.392 93.3215L254.391 93.3224L256.555 95.4ZM293.355 69.8L292.163 67.0468L292.156 67.0501L292.148 67.0534L293.355 69.8ZM387.115 70.44L385.84 73.1554L385.857 73.1633L385.874 73.1711L387.115 70.44ZM423.275 96.68L421.049 98.6916L423.275 96.68ZM446.315 134.12L443.515 135.197L443.525 135.223L443.536 135.249L446.315 134.12ZM445.995 219.24L443.231 218.074L443.223 218.092L443.216 218.111L445.995 219.24ZM421.995 256.04L419.832 253.962L419.831 253.962L421.995 256.04ZM385.515 281.64L386.722 284.387L386.739 284.379L386.756 284.371L385.515 281.64ZM290.475 198.12L287.597 198.966L287.6 198.978L287.604 198.99L290.475 198.12ZM300.075 217.32L297.664 219.106L297.681 219.128L297.697 219.149L300.075 217.32ZM316.075 230.76L314.663 233.407L314.715 233.435L314.768 233.46L316.075 230.76ZM362.795 230.44L364.171 233.106V233.106L362.795 230.44ZM378.795 216.68L376.354 214.936L376.348 214.945L376.342 214.954L378.795 216.68ZM388.075 197.16L385.197 196.314L385.189 196.342L385.181 196.371L388.075 197.16ZM388.075 153L385.204 153.87L388.075 153ZM378.475 134.12L376.064 135.906L376.081 135.928L376.097 135.949L378.475 134.12ZM362.155 120.68L363.462 117.98L362.155 120.68ZM315.755 121L314.379 118.334L314.361 118.343L314.343 118.353L315.755 121ZM299.755 134.76L302.133 136.589L302.149 136.568L302.166 136.546L299.755 134.76ZM290.155 153.96L287.277 153.113L287.269 153.142L287.261 153.171L290.155 153.96ZM338.795 287.92C321.893 287.92 306.643 284.792 292.996 278.589L290.514 284.051C305.027 290.648 321.137 293.92 338.795 293.92V287.92ZM293.03 278.605C279.278 272.145 267.43 263.618 257.46 253.024L253.09 257.136C263.6 268.302 276.072 277.268 290.48 284.035L293.03 278.605ZM257.501 253.068C247.705 242.231 240.107 230.155 234.694 216.831L229.136 219.089C234.816 233.071 242.792 245.743 253.049 257.092L257.501 253.068ZM234.715 216.883C229.513 203.357 226.915 189.428 226.915 175.08H220.915C220.915 190.172 223.651 204.83 229.115 219.037L234.715 216.883ZM226.915 175.08C226.915 160.325 229.718 146.322 235.319 133.046L229.791 130.714C223.872 144.745 220.915 159.542 220.915 175.08H226.915ZM235.319 133.046C240.937 119.73 248.734 107.879 258.719 97.4776L254.391 93.3224C243.896 104.254 235.693 116.723 229.791 130.714L235.319 133.046ZM258.718 97.4785C268.894 86.8872 280.834 78.5784 294.562 72.5465L292.148 67.0534C277.716 73.3949 265.122 82.1528 254.392 93.3215L258.718 97.4785ZM294.547 72.5531C308.434 66.5423 323.598 63.52 340.075 63.52V57.52C322.846 57.52 306.863 60.6843 292.163 67.0468L294.547 72.5531ZM340.075 63.52C356.963 63.52 372.201 66.7494 385.84 73.1554L388.39 67.7246C373.869 60.9039 357.747 57.52 340.075 57.52V63.52ZM385.874 73.1711C399.593 79.4071 411.308 87.9135 421.049 98.6916L425.501 94.6684C415.189 83.2598 402.797 74.2729 388.356 67.7089L385.874 73.1711ZM421.049 98.6916C430.83 109.513 438.315 121.677 443.515 135.197L449.115 133.043C443.648 118.83 435.773 106.034 425.501 94.6684L421.049 98.6916ZM443.536 135.249C448.939 148.55 451.635 162.247 451.635 176.36H457.635C457.635 161.46 454.784 146.997 449.094 132.991L443.536 135.249ZM451.635 176.36C451.635 190.896 448.834 204.793 443.231 218.074L448.759 220.406C454.676 206.381 457.635 191.691 457.635 176.36H451.635ZM443.216 218.111C437.816 231.403 430.028 243.349 419.832 253.962L424.158 258.118C434.869 246.971 443.081 234.384 448.774 220.369L443.216 218.111ZM419.831 253.962C409.866 264.342 398.024 272.659 384.274 278.909L386.756 284.371C401.166 277.821 413.644 269.071 424.159 258.118L419.831 253.962ZM384.308 278.893C370.648 284.895 355.492 287.92 338.795 287.92V293.92C356.231 293.92 372.222 290.758 386.722 284.387L384.308 278.893ZM284.275 175.72C284.275 183.682 285.381 191.434 287.597 198.966L293.353 197.273C291.302 190.299 290.275 183.118 290.275 175.72H284.275ZM287.604 198.99C289.834 206.351 293.187 213.062 297.664 219.106L302.486 215.534C298.429 210.058 295.382 203.969 293.346 197.25L287.604 198.99ZM297.697 219.149C302.234 225.046 307.901 229.8 314.663 233.407L317.487 228.113C311.449 224.893 306.45 220.687 302.453 215.491L297.697 219.149ZM314.768 233.46C321.869 236.896 330.12 238.56 339.435 238.56V232.56C330.83 232.56 323.508 231.024 317.382 228.06L314.768 233.46ZM339.435 238.56C348.777 238.56 357.054 236.779 364.171 233.106L361.419 227.774C355.31 230.927 348.013 232.56 339.435 232.56V238.56ZM364.171 233.106C371.189 229.484 376.901 224.584 381.248 218.406L376.342 214.954C372.582 220.296 367.628 224.57 361.419 227.774L364.171 233.106ZM381.236 218.424C385.708 212.163 388.955 205.334 390.969 197.949L385.181 196.371C383.355 203.066 380.415 209.25 376.354 214.936L381.236 218.424ZM390.953 198.007C393.166 190.482 394.275 182.837 394.275 175.08H388.275C388.275 182.257 387.25 189.332 385.197 196.314L390.953 198.007ZM394.275 175.08C394.275 167.118 393.169 159.464 390.946 152.13L385.204 153.87C387.248 160.616 388.275 167.682 388.275 175.08H394.275ZM390.946 152.13C388.713 144.761 385.352 138.139 380.853 132.291L376.097 135.949C380.132 141.194 383.17 147.159 385.204 153.87L390.946 152.13ZM380.886 132.334C376.323 126.175 370.5 121.385 363.462 117.98L360.848 123.38C367.036 126.375 372.094 130.545 376.064 135.906L380.886 132.334ZM363.462 117.98C356.371 114.548 348.229 112.88 339.115 112.88V118.88C347.494 118.88 354.713 120.412 360.848 123.38L363.462 117.98ZM339.115 112.88C329.773 112.88 321.496 114.661 314.379 118.334L317.131 123.666C323.24 120.513 330.537 118.88 339.115 118.88V112.88ZM314.343 118.353C307.555 121.973 301.879 126.852 297.344 132.974L302.166 136.546C306.164 131.148 311.155 126.854 317.167 123.647L314.343 118.353ZM297.377 132.931C292.867 138.794 289.506 145.533 287.277 153.113L293.033 154.806C295.07 147.88 298.11 141.819 302.133 136.589L297.377 132.931ZM287.261 153.171C285.269 160.474 284.275 167.993 284.275 175.72H290.275C290.275 168.514 291.201 161.526 293.049 154.749L287.261 153.171ZM481.082 289H478.082V292H481.082V289ZM481.082 61.8V58.8H478.082V61.8H481.082ZM609.723 68.52L608.43 71.2274L609.723 68.52ZM634.042 86.76L631.8 88.7531L631.814 88.7688L631.828 88.7843L634.042 86.76ZM649.722 112.04L646.924 113.121L646.935 113.149L646.946 113.176L649.722 112.04ZM645.883 178.6L643.238 177.183L643.228 177.202L643.219 177.22L645.883 178.6ZM619.643 208.04L621.318 210.529L621.328 210.522L619.643 208.04ZM543.483 219.24V216.24H540.483V219.24H543.483ZM543.483 289V292H546.483V289H543.483ZM543.483 164.84H540.483V167.84H543.483V164.84ZM583.802 162.6L585.413 165.131L583.802 162.6ZM589.562 154.92L586.848 153.643L586.817 153.709L586.788 153.778L589.562 154.92ZM589.242 125.8L586.528 127.077L586.574 127.176L586.628 127.271L589.242 125.8ZM582.523 118.44L581.011 121.031L581.135 121.104L581.265 121.164L582.523 118.44ZM543.483 116.2V113.2H540.483V116.2H543.483ZM484.082 289V61.8H478.082V289H484.082ZM481.082 64.8H579.003V58.8H481.082V64.8ZM579.003 64.8C589.679 64.8 599.474 66.9527 608.43 71.2274L611.015 65.8126C601.198 61.1273 590.513 58.8 579.003 58.8V64.8ZM608.43 71.2274C617.46 75.5372 625.243 81.3759 631.8 88.7531L636.285 84.7669C629.189 76.7841 620.758 70.4628 611.015 65.8126L608.43 71.2274ZM631.828 88.7843C638.405 95.9772 643.433 104.084 646.924 113.121L652.521 110.959C648.759 101.222 643.334 92.4761 636.257 84.7357L631.828 88.7843ZM646.946 113.176C650.647 122.223 652.482 131.331 652.482 140.52H658.482C658.482 130.509 656.478 120.631 652.499 110.904L646.946 113.176ZM652.482 140.52C652.482 153.461 649.407 165.669 643.238 177.183L648.527 180.017C655.158 167.638 658.482 154.459 658.482 140.52H652.482ZM643.219 177.22C637.265 188.717 628.858 198.154 617.957 205.558L621.328 210.522C633.041 202.566 642.127 192.377 648.547 179.98L643.219 177.22ZM617.967 205.551C607.426 212.646 595.011 216.24 580.602 216.24V222.24C596.06 222.24 609.672 218.367 621.318 210.529L617.967 205.551ZM580.602 216.24H543.483V222.24H580.602V216.24ZM540.483 219.24V289H546.483V219.24H540.483ZM543.483 286H481.082V292H543.483V286ZM543.483 167.84H576.443V161.84H543.483V167.84ZM576.443 167.84C579.622 167.84 582.628 166.903 585.413 165.131L582.192 160.069C580.283 161.284 578.383 161.84 576.443 161.84V167.84ZM585.413 165.131C588.456 163.195 590.701 160.034 592.337 156.062L586.788 153.778C585.437 157.059 583.843 159.019 582.192 160.069L585.413 165.131ZM592.277 156.197C594.241 152.024 595.122 146.737 595.122 140.52H589.122C589.122 146.25 588.297 150.563 586.848 153.643L592.277 156.197ZM595.122 140.52C595.122 133.896 594.142 128.391 591.857 124.329L586.628 127.271C588.183 130.036 589.122 134.344 589.122 140.52H595.122ZM591.957 124.523C590.045 120.459 587.371 117.374 583.78 115.716L581.265 121.164C583.221 122.066 585.027 123.887 586.528 127.077L591.957 124.523ZM584.034 115.849C581.089 114.13 578.013 113.2 574.843 113.2V119.2C576.792 119.2 578.836 119.763 581.011 121.031L584.034 115.849ZM574.843 113.2H543.483V119.2H574.843V113.2ZM540.483 116.2V164.84H546.483V116.2H540.483ZM735.818 281.32L734.542 284.035L734.559 284.043L734.576 284.051L735.818 281.32ZM699.338 255.08L697.112 257.092L697.132 257.114L697.153 257.136L699.338 255.08ZM675.977 217.96L673.177 219.037L673.188 219.063L673.198 219.089L675.977 217.96ZM676.617 131.88L673.853 130.714L676.617 131.88ZM700.617 95.4L698.454 93.3215L698.453 93.3224L700.617 95.4ZM737.417 69.8L736.226 67.0468L736.218 67.0501L736.211 67.0534L737.417 69.8ZM831.177 70.44L829.902 73.1554L829.919 73.1633L829.936 73.1711L831.177 70.44ZM867.338 96.68L865.112 98.6916L867.338 96.68ZM890.378 134.12L887.577 135.197L887.588 135.223L887.598 135.249L890.378 134.12ZM890.057 219.24L887.293 218.074L887.286 218.092L887.278 218.111L890.057 219.24ZM866.057 256.04L863.894 253.962L863.893 253.962L866.057 256.04ZM829.578 281.64L830.784 284.387L830.802 284.379L830.819 284.371L829.578 281.64ZM734.537 198.12L731.659 198.966L731.663 198.978L731.666 198.99L734.537 198.12ZM744.138 217.32L741.727 219.106L741.743 219.128L741.76 219.149L744.138 217.32ZM760.138 230.76L758.726 233.407L758.778 233.435L758.831 233.46L760.138 230.76ZM806.857 230.44L808.233 233.106V233.106L806.857 230.44ZM822.858 216.68L820.416 214.936L820.41 214.945L820.404 214.954L822.858 216.68ZM832.138 197.16L829.259 196.314L829.251 196.342L829.243 196.371L832.138 197.16ZM832.138 153L829.266 153.87L832.138 153ZM822.537 134.12L820.127 135.906L820.143 135.928L820.16 135.949L822.537 134.12ZM806.218 120.68L807.524 117.98L806.218 120.68ZM759.818 121L758.442 118.334L758.424 118.343L758.406 118.353L759.818 121ZM743.818 134.76L746.195 136.589L746.212 136.568L746.228 136.546L743.818 134.76ZM734.218 153.96L731.339 153.113L731.331 153.142L731.323 153.171L734.218 153.96ZM782.857 287.92C765.955 287.92 750.706 284.792 737.059 278.589L734.576 284.051C749.089 290.648 765.2 293.92 782.857 293.92V287.92ZM737.093 278.605C723.34 272.145 711.493 263.618 701.522 253.024L697.153 257.136C707.662 268.302 720.135 277.268 734.542 284.035L737.093 278.605ZM701.563 253.068C691.768 242.231 684.17 230.155 678.757 216.831L673.198 219.089C678.878 233.071 686.854 245.743 697.112 257.092L701.563 253.068ZM678.778 216.883C673.575 203.357 670.977 189.428 670.977 175.08H664.977C664.977 190.172 667.713 204.83 673.177 219.037L678.778 216.883ZM670.977 175.08C670.977 160.325 673.781 146.322 679.382 133.046L673.853 130.714C667.934 144.745 664.977 159.542 664.977 175.08H670.977ZM679.382 133.046C684.999 119.73 692.796 107.879 702.782 97.4776L698.453 93.3224C687.959 104.254 679.756 116.723 673.853 130.714L679.382 133.046ZM702.781 97.4785C712.957 86.8872 724.897 78.5784 738.624 72.5465L736.211 67.0534C721.778 73.3949 709.185 82.1528 698.454 93.3215L702.781 97.4785ZM738.609 72.5531C752.496 66.5423 767.66 63.52 784.138 63.52V57.52C766.908 57.52 750.925 60.6843 736.226 67.0468L738.609 72.5531ZM784.138 63.52C801.026 63.52 816.263 66.7494 829.902 73.1554L832.453 67.7246C817.932 60.9039 801.809 57.52 784.138 57.52V63.52ZM829.936 73.1711C843.655 79.4071 855.37 87.9135 865.112 98.6916L869.563 94.6684C859.252 83.2598 846.86 74.2729 832.419 67.7089L829.936 73.1711ZM865.112 98.6916C874.893 109.513 882.377 121.677 887.577 135.197L893.178 133.043C887.711 118.83 879.835 106.034 869.563 94.6684L865.112 98.6916ZM887.598 135.249C893.001 148.55 895.698 162.247 895.698 176.36H901.698C901.698 161.46 898.847 146.997 893.157 132.991L887.598 135.249ZM895.698 176.36C895.698 190.896 892.896 204.793 887.293 218.074L892.822 220.406C898.739 206.381 901.698 191.691 901.698 176.36H895.698ZM887.278 218.111C881.878 231.403 874.09 243.349 863.894 253.962L868.221 258.118C878.931 246.971 887.144 234.384 892.837 220.369L887.278 218.111ZM863.893 253.962C853.929 264.342 842.086 272.659 828.336 278.909L830.819 284.371C845.229 277.821 857.706 269.071 868.222 258.118L863.893 253.962ZM828.371 278.893C814.711 284.895 799.555 287.92 782.857 287.92V293.92C800.294 293.92 816.284 290.758 830.784 284.387L828.371 278.893ZM728.338 175.72C728.338 183.682 729.444 191.434 731.659 198.966L737.416 197.273C735.364 190.299 734.338 183.118 734.338 175.72H728.338ZM731.666 198.99C733.897 206.351 737.25 213.062 741.727 219.106L746.548 215.534C742.492 210.058 739.445 203.969 737.409 197.25L731.666 198.99ZM741.76 219.149C746.296 225.046 751.963 229.8 758.726 233.407L761.549 228.113C755.512 224.893 750.512 220.687 746.515 215.491L741.76 219.149ZM758.831 233.46C765.931 236.896 774.183 238.56 783.497 238.56V232.56C774.892 232.56 767.571 231.024 761.444 228.06L758.831 233.46ZM783.497 238.56C792.839 238.56 801.116 236.779 808.233 233.106L805.482 227.774C799.372 230.927 792.076 232.56 783.497 232.56V238.56ZM808.233 233.106C815.251 229.484 820.964 224.584 825.311 218.406L820.404 214.954C816.645 220.296 811.69 224.57 805.482 227.774L808.233 233.106ZM825.299 218.424C829.77 212.163 833.018 205.334 835.032 197.949L829.243 196.371C827.417 203.066 824.478 209.25 820.416 214.936L825.299 218.424ZM835.016 198.007C837.229 190.482 838.338 182.837 838.338 175.08H832.338C832.338 182.257 831.313 189.332 829.259 196.314L835.016 198.007ZM838.338 175.08C838.338 167.118 837.231 159.464 835.009 152.13L829.266 153.87C831.311 160.616 832.338 167.682 832.338 175.08H838.338ZM835.009 152.13C832.776 144.761 829.414 138.139 824.915 132.291L820.16 135.949C824.194 141.194 827.233 147.159 829.266 153.87L835.009 152.13ZM824.948 132.334C820.385 126.175 814.563 121.385 807.524 117.98L804.911 123.38C811.099 126.375 816.156 130.545 820.127 135.906L824.948 132.334ZM807.524 117.98C800.433 114.548 792.291 112.88 783.177 112.88V118.88C791.557 118.88 798.775 120.412 804.911 123.38L807.524 117.98ZM783.177 112.88C773.836 112.88 765.559 114.661 758.442 118.334L761.193 123.666C767.303 120.513 774.599 118.88 783.177 118.88V112.88ZM758.406 118.353C751.618 121.973 745.942 126.852 741.407 132.974L746.228 136.546C750.227 131.148 755.217 126.854 761.229 123.647L758.406 118.353ZM741.44 132.931C736.929 138.794 733.569 145.533 731.339 153.113L737.096 154.806C739.133 147.88 742.172 141.819 746.195 136.589L741.44 132.931ZM731.323 153.171C729.331 160.474 728.338 167.993 728.338 175.72H734.338C734.338 168.514 735.264 161.526 737.112 154.749L731.323 153.171ZM913.625 332.52H910.625V335.52H913.625V332.52ZM913.625 234.6V231.6H910.625V234.6H913.625ZM941.785 228.2L939.61 226.134L941.785 228.2ZM952.025 208.68L954.885 209.587L952.025 208.68ZM958.425 175.72L955.449 175.342L955.446 175.363L955.444 175.383L958.425 175.72ZM961.945 128.36L964.943 128.466L964.943 128.456L964.944 128.446L961.945 128.36ZM963.865 61.8V58.8H960.95L960.866 61.7135L963.865 61.8ZM1128.67 61.8H1131.67V58.8H1128.67V61.8ZM1128.67 234.6H1125.67V237.6H1128.67V234.6ZM1160.67 234.6H1163.67V231.6H1160.67V234.6ZM1160.67 332.52V335.52H1163.67V332.52H1160.67ZM1106.27 332.52H1103.27V335.52H1106.27V332.52ZM1106.27 289H1109.27V286H1106.27V289ZM968.025 289V286H965.025V289H968.025ZM968.025 332.52V335.52H971.025V332.52H968.025ZM998.425 234.6L996.304 232.479L991.182 237.6H998.425V234.6ZM1066.27 234.6V237.6H1069.27V234.6H1066.27ZM1066.27 116.2H1069.27V113.2H1066.27V116.2ZM1020.83 116.2V113.2H1017.91L1017.83 116.109L1020.83 116.2ZM1020.18 137.32L1017.19 137.229L1017.19 137.242L1020.18 137.32ZM1017.3 180.84L1014.33 180.487L1014.32 180.509L1014.32 180.531L1017.3 180.84ZM1010.91 212.84L1008.06 211.891L1008.05 211.922L1008.04 211.953L1010.91 212.84ZM916.625 332.52V234.6H910.625V332.52H916.625ZM913.625 237.6H927.705V231.6H913.625V237.6ZM927.705 237.6C933.95 237.6 939.405 235.061 943.96 230.266L939.61 226.134C936.058 229.872 932.126 231.6 927.705 231.6V237.6ZM943.96 230.266C948.453 225.537 952.043 218.549 954.885 209.587L949.165 207.773C946.46 216.305 943.224 222.33 939.61 226.134L943.96 230.266ZM954.885 209.587C957.737 200.592 959.9 189.399 961.406 176.057L955.444 175.383C953.964 188.495 951.86 199.275 949.165 207.773L954.885 209.587ZM961.401 176.098C963.122 162.543 964.301 146.662 964.943 128.466L958.947 128.254C958.309 146.325 957.141 162.017 955.449 175.342L961.401 176.098ZM964.944 128.446L966.864 61.8865L960.866 61.7135L958.946 128.273L964.944 128.446ZM963.865 64.8H1128.67V58.8H963.865V64.8ZM1125.67 61.8V234.6H1131.67V61.8H1125.67ZM1128.67 237.6H1160.67V231.6H1128.67V237.6ZM1157.67 234.6V332.52H1163.67V234.6H1157.67ZM1160.67 329.52H1106.27V335.52H1160.67V329.52ZM1109.27 332.52V289H1103.27V332.52H1109.27ZM1106.27 286H968.025V292H1106.27V286ZM965.025 289V332.52H971.025V289H965.025ZM968.025 329.52H913.625V335.52H968.025V329.52ZM998.425 237.6H1066.27V231.6H998.425V237.6ZM1069.27 234.6V116.2H1063.27V234.6H1069.27ZM1066.27 113.2H1020.83V119.2H1066.27V113.2ZM1017.83 116.109L1017.19 137.229L1023.18 137.411L1023.82 116.291L1017.83 116.109ZM1017.19 137.242C1016.76 153.602 1015.81 168.014 1014.33 180.487L1020.28 181.193C1021.79 168.493 1022.76 153.891 1023.18 137.398L1017.19 137.242ZM1014.32 180.531C1013.06 192.751 1010.96 203.192 1008.06 211.891L1013.75 213.789C1016.82 204.568 1018.99 193.676 1020.29 181.149L1014.32 180.531ZM1008.04 211.953C1005.38 220.538 1001.44 227.338 996.304 232.479L1000.55 236.721C1006.5 230.768 1010.88 223.062 1013.77 213.727L1008.04 211.953Z" fill="white" mask="url(#path-7-outside-4_0_73)"/>
<defs>
<filter id="filter0_f_0_73" x="0.800049" y="0.52002" width="1219.86" height="392" filterUnits="userSpaceOnUse" color-interpolation-filters="sRGB">
<feFlood flood-opacity="0" result="BackgroundImageFix"/>
<feBlend mode="normal" in="SourceGraphic" in2="BackgroundImageFix" result="shape"/>
<feGaussianBlur stdDeviation="30" result="effect1_foregroundBlur_0_73"/>
</filter>
<filter id="filter1_f_0_73" x="45.8" y="45.52" width="1129.86" height="302" filterUnits="userSpaceOnUse" color-interpolation-filters="sRGB">
<feFlood flood-opacity="0" result="BackgroundImageFix"/>
<feBlend mode="normal" in="SourceGraphic" in2="BackgroundImageFix" result="shape"/>
<feGaussianBlur stdDeviation="7.5" result="effect1_foregroundBlur_0_73"/>
</filter>
<linearGradient id="paint0_linear_0_73" x1="40" y1="16" x2="1192.9" y2="157.153" gradientUnits="userSpaceOnUse">
<stop stop-color="#BC000B"/>
<stop offset="1" stop-color="#BD6600"/>
</linearGradient>
<linearGradient id="paint1_linear_0_73" x1="40" y1="16" x2="1192.9" y2="157.153" gradientUnits="userSpaceOnUse">
<stop stop-color="#BC000B"/>
<stop offset="1" stop-color="#BD6600"/>
</linearGradient>
<linearGradient id="paint2_linear_0_73" x1="40" y1="16" x2="1192.9" y2="157.153" gradientUnits="userSpaceOnUse">
<stop stop-color="#BC000B"/>
<stop offset="1" stop-color="#BD6600"/>
</linearGradient>
</defs>
</svg>
