<svg width="1008" height="415" viewBox="0 0 1008 415" fill="none" xmlns="http://www.w3.org/2000/svg">
<g filter="url(#filter0_f_0_78)">
<mask id="path-1-outside-1_0_78" maskUnits="userSpaceOnUse" x="45" y="45" width="918" height="325" fill="black">
<rect fill="white" x="45" y="45" width="918" height="325"/>
<path d="M253.48 180.2H188.2V353H125.8V180.2H60.2V125.8H253.48V180.2ZM469.488 294.76C469.488 308.413 465.754 319.507 458.288 328.04C451.034 336.573 441.221 342.867 428.848 346.92C416.474 350.973 402.821 353 387.888 353H276.208V125.8H408.048C418.714 125.8 427.888 128.68 435.568 134.44C443.461 139.987 449.434 147.24 453.488 156.2C457.754 165.16 459.888 174.44 459.888 184.04C459.888 194.493 457.114 204.627 451.568 214.44C446.234 224.253 438.128 231.613 427.248 236.52C440.261 240.36 450.501 247.08 457.968 256.68C465.648 266.28 469.488 278.973 469.488 294.76ZM406.128 281.96C406.128 278.12 405.381 274.813 403.888 272.04C402.608 269.053 400.794 266.707 398.448 265C396.101 263.293 393.328 262.44 390.128 262.44H338.608V300.52H387.888C391.301 300.52 394.394 299.773 397.168 298.28C399.941 296.787 402.074 294.653 403.568 291.88C405.274 289.107 406.128 285.8 406.128 281.96ZM338.608 178.92V213.8H381.168C383.941 213.8 386.608 213.373 389.168 212.52C391.728 211.453 393.861 209.64 395.568 207.08C397.274 204.52 398.128 200.893 398.128 196.2C398.128 191.933 397.381 188.627 395.888 186.28C394.608 183.72 392.794 181.907 390.448 180.84C388.314 179.56 385.861 178.92 383.088 178.92H338.608ZM599.545 354.92C582.265 354.92 566.585 351.72 552.505 345.32C538.425 338.707 526.265 329.96 516.025 319.08C505.998 307.987 498.212 295.613 492.665 281.96C487.332 268.093 484.665 253.8 484.665 239.08C484.665 223.933 487.545 209.533 493.305 195.88C499.065 182.227 507.065 170.067 517.305 159.4C527.758 148.52 540.025 139.987 554.105 133.8C568.398 127.613 583.972 124.52 600.825 124.52C618.105 124.52 633.785 127.827 647.865 134.44C661.945 140.84 673.998 149.587 684.025 160.68C694.052 171.773 701.732 184.253 707.065 198.12C712.612 211.773 715.385 225.853 715.385 240.36C715.385 255.293 712.505 269.587 706.745 283.24C701.198 296.893 693.198 309.16 682.745 320.04C672.505 330.707 660.345 339.24 646.265 345.64C632.185 351.827 616.612 354.92 599.545 354.92ZM548.025 239.72C548.025 247.4 549.092 254.867 551.225 262.12C553.358 269.16 556.558 275.56 560.825 281.32C565.092 286.867 570.425 291.347 576.825 294.76C583.438 297.96 591.225 299.56 600.185 299.56C609.145 299.56 616.932 297.853 623.545 294.44C630.158 291.027 635.492 286.44 639.545 280.68C643.812 274.707 646.905 268.2 648.825 261.16C650.958 253.907 652.025 246.547 652.025 239.08C652.025 231.4 650.958 224.04 648.825 217C646.692 209.96 643.492 203.667 639.225 198.12C634.958 192.36 629.518 187.88 622.905 184.68C616.292 181.48 608.612 179.88 599.865 179.88C590.905 179.88 583.118 181.587 576.505 185C570.105 188.413 564.772 193 560.505 198.76C556.238 204.307 553.038 210.707 550.905 217.96C548.985 225 548.025 232.253 548.025 239.72ZM743.113 353V125.8H805.513V264.04L889.353 125.8H947.593V353H885.193V214.76L802.312 353H743.113ZM845.513 115.56C832.073 115.56 820.126 113.213 809.673 108.52C799.219 103.827 791.006 97.32 785.033 89C779.059 80.68 776.073 71.1867 776.073 60.52H816.392C816.392 67.56 818.953 73.64 824.073 78.76C829.193 83.88 836.339 86.44 845.513 86.44C854.473 86.44 861.619 83.9866 866.953 79.08C872.286 74.1733 874.953 67.9866 874.953 60.52H915.273C915.273 71.1867 912.286 80.68 906.313 89C900.339 97.32 892.019 103.827 881.353 108.52C870.899 113.213 858.953 115.56 845.513 115.56Z"/>
</mask>
<path d="M253.48 180.2V195.2C261.764 195.2 268.48 188.484 268.48 180.2H253.48ZM188.2 180.2V165.2C179.916 165.2 173.2 171.916 173.2 180.2H188.2ZM188.2 353V368C196.484 368 203.2 361.284 203.2 353H188.2ZM125.8 353H110.8C110.8 361.284 117.516 368 125.8 368V353ZM125.8 180.2H140.8C140.8 171.916 134.084 165.2 125.8 165.2V180.2ZM60.2 180.2H45.2C45.2 188.484 51.9157 195.2 60.2 195.2V180.2ZM60.2 125.8V110.8C51.9157 110.8 45.2 117.516 45.2 125.8H60.2ZM253.48 125.8H268.48C268.48 117.516 261.764 110.8 253.48 110.8V125.8ZM253.48 165.2H188.2V195.2H253.48V165.2ZM173.2 180.2V353H203.2V180.2H173.2ZM188.2 338H125.8V368H188.2V338ZM140.8 353V180.2H110.8V353H140.8ZM125.8 165.2H60.2V195.2H125.8V165.2ZM75.2 180.2V125.8H45.2V180.2H75.2ZM60.2 140.8H253.48V110.8H60.2V140.8ZM238.48 125.8V180.2H268.48V125.8H238.48ZM458.288 328.04L446.999 318.162C446.952 318.216 446.905 318.271 446.858 318.325L458.288 328.04ZM428.848 346.92L433.517 361.175H433.517L428.848 346.92ZM276.208 353H261.208C261.208 361.284 267.923 368 276.208 368V353ZM276.208 125.8V110.8C267.923 110.8 261.208 117.516 261.208 125.8H276.208ZM435.568 134.44L426.568 146.44C426.691 146.533 426.817 146.624 426.943 146.713L435.568 134.44ZM453.487 156.2L439.821 162.383C439.861 162.472 439.902 162.561 439.945 162.649L453.487 156.2ZM451.568 214.44L438.509 207.059C438.468 207.132 438.428 207.204 438.388 207.277L451.568 214.44ZM427.248 236.52L421.081 222.846C415.364 225.425 411.854 231.288 412.283 237.545C412.711 243.802 416.987 249.132 423.002 250.907L427.248 236.52ZM457.967 256.68L446.127 265.889C446.169 265.943 446.212 265.997 446.254 266.05L457.967 256.68ZM403.888 272.04L390.1 277.949C390.276 278.358 390.469 278.759 390.68 279.151L403.888 272.04ZM398.448 265L389.625 277.131L389.625 277.131L398.448 265ZM338.608 262.44V247.44C330.323 247.44 323.608 254.156 323.608 262.44H338.608ZM338.608 300.52H323.608C323.608 308.804 330.323 315.52 338.608 315.52V300.52ZM397.168 298.28L390.056 285.073V285.073L397.168 298.28ZM403.568 291.88L390.793 284.019C390.641 284.264 390.497 284.514 390.36 284.769L403.568 291.88ZM338.608 178.92V163.92C330.323 163.92 323.608 170.636 323.608 178.92H338.608ZM338.608 213.8H323.608C323.608 222.084 330.323 228.8 338.608 228.8V213.8ZM389.168 212.52L393.911 226.75C394.257 226.635 394.6 226.507 394.937 226.366L389.168 212.52ZM395.568 207.08L383.087 198.759L383.087 198.759L395.568 207.08ZM395.888 186.28L382.471 192.988C382.702 193.449 382.956 193.898 383.233 194.333L395.888 186.28ZM390.448 180.84L382.73 193.702C383.218 193.995 383.722 194.26 384.24 194.495L390.448 180.84ZM454.488 294.76C454.488 305.557 451.606 312.897 446.999 318.162L469.576 337.918C479.902 326.117 484.488 311.269 484.488 294.76H454.488ZM446.858 318.325C441.671 324.428 434.357 329.331 424.178 332.665L433.517 361.175C448.085 356.402 460.397 348.719 469.717 337.755L446.858 318.325ZM424.178 332.665C413.515 336.158 401.463 338 387.888 338V368C404.178 368 419.433 365.788 433.517 361.175L424.178 332.665ZM387.888 338H276.208V368H387.888V338ZM291.208 353V125.8H261.208V353H291.208ZM276.208 140.8H408.048V110.8H276.208V140.8ZM408.048 140.8C415.848 140.8 421.772 142.843 426.568 146.44L444.568 122.44C434.003 114.517 421.58 110.8 408.048 110.8V140.8ZM426.943 146.713C432.597 150.686 436.851 155.817 439.821 162.383L467.154 150.017C462.017 138.663 454.325 129.287 444.192 122.167L426.943 146.713ZM439.945 162.649C443.285 169.664 444.888 176.748 444.888 184.04H474.888C474.888 172.132 472.223 160.656 467.03 149.751L439.945 162.649ZM444.888 184.04C444.888 191.706 442.886 199.316 438.509 207.059L464.626 221.821C471.343 209.938 474.888 197.281 474.888 184.04H444.888ZM438.388 207.277C434.729 214.009 429.193 219.188 421.081 222.846L433.414 250.194C447.062 244.039 457.739 234.497 464.747 221.603L438.388 207.277ZM423.002 250.907C433.369 253.966 440.809 259.051 446.127 265.889L469.808 247.471C460.193 235.109 447.153 226.754 431.493 222.133L423.002 250.907ZM446.254 266.05C451.265 272.314 454.488 281.398 454.488 294.76H484.488C484.488 276.549 480.03 260.246 469.681 247.31L446.254 266.05ZM421.128 281.96C421.128 276.176 419.996 270.317 417.095 264.928L390.68 279.151C390.766 279.31 391.128 280.064 391.128 281.96H421.128ZM417.675 266.131C415.461 260.966 412.055 256.349 407.27 252.869L389.625 277.131C389.63 277.135 389.634 277.138 389.64 277.143C389.646 277.149 389.666 277.169 389.698 277.212C389.76 277.292 389.912 277.51 390.1 277.949L417.675 266.131ZM407.27 252.869C402.096 249.106 396.155 247.44 390.128 247.44V277.44C390.385 277.44 390.377 277.472 390.196 277.417C390.111 277.39 390.008 277.351 389.899 277.296C389.79 277.242 389.697 277.184 389.625 277.131L407.27 252.869ZM390.128 247.44H338.608V277.44H390.128V247.44ZM323.608 262.44V300.52H353.608V262.44H323.608ZM338.608 315.52H387.888V285.52H338.608V315.52ZM387.888 315.52C393.57 315.52 399.14 314.254 404.279 311.487L390.056 285.073C389.648 285.292 389.031 285.52 387.888 285.52V315.52ZM404.279 311.487C409.637 308.602 413.89 304.349 416.775 298.991L390.36 284.769C390.314 284.854 390.281 284.903 390.265 284.924C390.249 284.945 390.242 284.953 390.241 284.953C390.24 284.954 390.233 284.962 390.212 284.977C390.19 284.993 390.142 285.027 390.056 285.073L404.279 311.487ZM416.342 299.741C419.747 294.209 421.128 288.072 421.128 281.96H391.128C391.128 283.528 390.801 284.004 390.793 284.019L416.342 299.741ZM323.608 178.92V213.8H353.608V178.92H323.608ZM338.608 228.8H381.168V198.8H338.608V228.8ZM381.168 228.8C385.508 228.8 389.779 228.128 393.911 226.75L384.424 198.29C383.436 198.619 382.374 198.8 381.168 198.8V228.8ZM394.937 226.366C400.525 224.038 404.886 220.144 408.048 215.4L383.087 198.759C382.931 198.993 382.878 199.011 382.973 198.931C383.017 198.893 383.081 198.845 383.162 198.795C383.244 198.745 383.325 198.704 383.398 198.674L394.937 226.366ZM408.048 215.401C412.051 209.397 413.128 202.404 413.128 196.2H383.128C383.128 197.674 382.99 198.563 382.886 199.004C382.785 199.433 382.763 199.245 383.087 198.759L408.048 215.401ZM413.128 196.2C413.128 190.491 412.18 183.943 408.542 178.227L383.233 194.333C382.874 193.77 382.863 193.499 382.936 193.824C383.011 194.157 383.128 194.907 383.128 196.2H413.128ZM409.304 179.572C406.668 174.299 402.477 169.831 396.655 167.184L384.24 194.495C383.785 194.288 383.333 193.979 382.961 193.607C382.603 193.249 382.469 192.984 382.471 192.988L409.304 179.572ZM398.165 167.978C393.44 165.143 388.259 163.92 383.087 163.92V193.92C383.315 193.92 383.34 193.945 383.221 193.914C383.164 193.899 383.087 193.875 382.995 193.837C382.904 193.798 382.814 193.753 382.73 193.702L398.165 167.978ZM383.087 163.92H338.608V193.92H383.087V163.92ZM552.505 345.32L546.128 358.897C546.184 358.923 546.241 358.95 546.298 358.975L552.505 345.32ZM516.025 319.08L504.897 329.138C504.965 329.213 505.033 329.287 505.102 329.36L516.025 319.08ZM492.665 281.96L478.665 287.345C478.698 287.432 478.733 287.519 478.768 287.606L492.665 281.96ZM493.305 195.88L479.485 190.049L493.305 195.88ZM517.305 159.4L506.488 149.008L506.484 149.012L517.305 159.4ZM554.105 133.8L548.147 120.034C548.121 120.045 548.096 120.056 548.071 120.067L554.105 133.8ZM647.865 134.44L641.488 148.017C641.544 148.043 641.601 148.07 641.658 148.095L647.865 134.44ZM684.025 160.68L672.897 170.738V170.738L684.025 160.68ZM707.065 198.12L693.065 203.505C693.098 203.592 693.133 203.679 693.168 203.766L707.065 198.12ZM706.745 283.24L692.925 277.409C692.899 277.471 692.873 277.533 692.848 277.594L706.745 283.24ZM682.745 320.04L671.928 309.648L671.924 309.652L682.745 320.04ZM646.265 345.64L652.299 359.373C652.357 359.347 652.415 359.322 652.472 359.296L646.265 345.64ZM551.225 262.12L536.835 266.352C536.846 266.392 536.858 266.431 536.87 266.47L551.225 262.12ZM560.825 281.32L548.772 290.248C548.826 290.321 548.88 290.394 548.936 290.466L560.825 281.32ZM576.825 294.76L569.766 307.995C569.94 308.088 570.115 308.177 570.292 308.262L576.825 294.76ZM623.545 294.44L630.425 307.769H630.425L623.545 294.44ZM639.545 280.68L627.339 271.961C627.319 271.99 627.298 272.019 627.278 272.048L639.545 280.68ZM648.825 261.16L634.435 256.928C634.407 257.022 634.38 257.118 634.354 257.213L648.825 261.16ZM648.825 217L634.47 221.35L648.825 217ZM639.225 198.12L627.172 207.048C627.226 207.121 627.28 207.194 627.336 207.266L639.225 198.12ZM622.905 184.68L629.438 171.178V171.178L622.905 184.68ZM576.505 185L569.625 171.671C569.565 171.702 569.506 171.733 569.446 171.765L576.505 185ZM560.505 198.76L572.394 207.906C572.45 207.834 572.504 207.761 572.558 207.688L560.505 198.76ZM550.905 217.96L536.515 213.728C536.487 213.822 536.46 213.918 536.434 214.013L550.905 217.96ZM599.545 339.92C584.154 339.92 570.625 337.08 558.712 331.665L546.298 358.975C562.545 366.36 580.376 369.92 599.545 369.92V339.92ZM558.882 331.743C546.44 325.899 535.841 318.248 526.948 308.8L505.102 329.36C516.689 341.672 530.41 351.514 546.128 358.897L558.882 331.743ZM527.153 309.022C518.282 299.207 511.44 288.323 506.562 276.314L478.768 287.606C484.983 302.904 493.715 316.766 504.897 329.138L527.153 309.022ZM506.665 276.575C501.986 264.411 499.665 251.942 499.665 239.08H469.665C469.665 255.658 472.677 271.776 478.665 287.345L506.665 276.575ZM499.665 239.08C499.665 225.891 502.161 213.477 507.125 201.71L479.485 190.049C472.929 205.59 469.665 221.976 469.665 239.08H499.665ZM507.125 201.711C512.174 189.743 519.159 179.129 528.126 169.788L506.484 149.012C494.971 161.005 485.956 174.71 479.485 190.049L507.125 201.711ZM528.122 169.792C537.188 160.356 547.821 152.945 560.139 147.533L548.071 120.067C532.229 127.028 518.329 136.684 506.488 149.008L528.122 169.792ZM560.063 147.566C572.326 142.258 585.851 139.52 600.825 139.52V109.52C582.092 109.52 564.471 112.968 548.147 120.034L560.063 147.566ZM600.825 139.52C616.147 139.52 629.615 142.44 641.488 148.017L654.242 120.863C637.955 113.213 620.063 109.52 600.825 109.52V139.52ZM641.658 148.095C653.934 153.676 664.295 161.221 672.897 170.738L695.153 150.622C683.702 137.953 669.956 128.004 654.072 120.784L641.658 148.095ZM672.897 170.738C681.695 180.472 688.398 191.37 693.065 203.505L721.065 192.735C715.066 177.136 706.408 163.074 695.153 150.622L672.897 170.738ZM693.168 203.766C697.998 215.655 700.385 227.82 700.385 240.36H730.385C730.385 223.887 727.225 207.892 720.962 192.474L693.168 203.766ZM700.385 240.36C700.385 253.307 697.9 265.616 692.925 277.409L720.565 289.071C727.11 273.557 730.385 257.28 730.385 240.36H700.385ZM692.848 277.594C688.035 289.442 681.095 300.107 671.928 309.648L693.562 330.432C705.302 318.213 714.362 304.345 720.642 288.886L692.848 277.594ZM671.924 309.652C663.061 318.884 652.488 326.335 640.058 331.984L652.472 359.296C668.202 352.145 681.949 342.529 693.566 330.428L671.924 309.652ZM640.231 331.907C628.252 337.171 614.763 339.92 599.545 339.92V369.92C618.46 369.92 636.118 366.483 652.299 359.373L640.231 331.907ZM533.025 239.72C533.025 248.81 534.291 257.703 536.835 266.352L565.615 257.888C563.893 252.03 563.025 245.99 563.025 239.72H533.025ZM536.87 266.47C539.489 275.113 543.454 283.069 548.772 290.248L572.878 272.392C569.663 268.051 567.228 263.207 565.58 257.77L536.87 266.47ZM548.936 290.466C554.551 297.766 561.554 303.615 569.766 307.995L583.884 281.525C579.296 279.078 575.632 275.968 572.714 272.174L548.936 290.466ZM570.292 308.262C579.34 312.641 589.45 314.56 600.185 314.56V284.56C593 284.56 587.537 283.279 583.358 281.258L570.292 308.262ZM600.185 314.56C611.055 314.56 621.292 312.483 630.425 307.769L616.665 281.111C612.571 283.224 607.235 284.56 600.185 284.56V314.56ZM630.425 307.769C639.061 303.312 646.289 297.161 651.812 289.312L627.278 272.048C624.695 275.718 621.256 278.741 616.665 281.111L630.425 307.769ZM651.751 289.399C657.043 281.99 660.907 273.869 663.296 265.107L634.354 257.213C632.903 262.531 630.581 267.423 627.339 271.961L651.751 289.399ZM663.216 265.392C665.748 256.782 667.025 247.997 667.025 239.08H637.025C637.025 245.096 636.169 251.031 634.435 256.928L663.216 265.392ZM667.025 239.08C667.025 229.991 665.76 221.161 663.18 212.65L634.47 221.35C636.157 226.919 637.025 232.809 637.025 239.08H667.025ZM663.18 212.65C660.549 203.965 656.542 196.03 651.114 188.974L627.336 207.266C630.442 211.303 632.835 215.955 634.47 221.35L663.18 212.65ZM651.278 189.192C645.532 181.433 638.178 175.406 629.438 171.178L616.372 198.182C620.859 200.354 624.385 203.287 627.172 207.048L651.278 189.192ZM629.438 171.178C620.436 166.822 610.448 164.88 599.865 164.88V194.88C606.776 194.88 612.147 196.138 616.372 198.182L629.438 171.178ZM599.865 164.88C588.995 164.88 578.758 166.957 569.625 171.671L583.385 198.329C587.479 196.216 592.815 194.88 599.865 194.88V164.88ZM569.446 171.765C561.107 176.212 554.059 182.261 548.452 189.832L572.558 207.688C575.484 203.739 579.103 200.614 583.564 198.235L569.446 171.765ZM548.616 189.614C543.131 196.744 539.129 204.84 536.515 213.728L565.296 222.192C566.948 216.574 569.346 211.869 572.394 207.906L548.616 189.614ZM536.434 214.013C534.155 222.369 533.025 230.951 533.025 239.72H563.025C563.025 233.555 563.815 227.631 565.376 221.907L536.434 214.013ZM743.112 353H728.112C728.112 361.284 734.828 368 743.112 368V353ZM743.112 125.8V110.8C734.828 110.8 728.112 117.516 728.112 125.8H743.112ZM805.513 125.8H820.513C820.513 117.516 813.797 110.8 805.513 110.8V125.8ZM805.513 264.04H790.513C790.513 270.769 794.994 276.675 801.474 278.486C807.955 280.298 814.849 277.572 818.338 271.818L805.513 264.04ZM889.352 125.8V110.8C884.109 110.8 879.246 113.538 876.527 118.022L889.352 125.8ZM947.593 125.8H962.593C962.593 117.516 955.877 110.8 947.593 110.8V125.8ZM947.593 353V368C955.877 368 962.593 361.284 962.593 353H947.593ZM885.193 353H870.193C870.193 361.284 876.908 368 885.193 368V353ZM885.193 214.76H900.193C900.193 208.017 895.693 202.102 889.194 200.304C882.695 198.505 875.795 201.264 872.327 207.047L885.193 214.76ZM802.312 353V368C807.583 368 812.467 365.234 815.178 360.713L802.312 353ZM809.672 108.52L815.816 94.8359V94.8359L809.672 108.52ZM785.033 89L797.217 80.2519V80.2519L785.033 89ZM776.073 60.52V45.52C767.788 45.52 761.073 52.2357 761.073 60.52H776.073ZM816.393 60.52H831.393C831.393 52.2357 824.677 45.52 816.393 45.52V60.52ZM824.073 78.76L834.679 68.1534L834.679 68.1534L824.073 78.76ZM874.953 60.52V45.52C866.668 45.52 859.953 52.2357 859.953 60.52H874.953ZM915.273 60.52H930.273C930.273 52.2357 923.557 45.52 915.273 45.52V60.52ZM906.312 89L894.128 80.2519V80.2519L906.312 89ZM881.352 108.52L875.311 94.7902C875.277 94.8054 875.243 94.8206 875.209 94.8359L881.352 108.52ZM758.112 353V125.8H728.112V353H758.112ZM743.112 140.8H805.513V110.8H743.112V140.8ZM790.513 125.8V264.04H820.513V125.8H790.513ZM818.338 271.818L902.178 133.578L876.527 118.022L792.687 256.262L818.338 271.818ZM889.352 140.8H947.593V110.8H889.352V140.8ZM932.593 125.8V353H962.593V125.8H932.593ZM947.593 338H885.193V368H947.593V338ZM900.193 353V214.76H870.193V353H900.193ZM872.327 207.047L789.447 345.287L815.178 360.713L898.057 222.473L872.327 207.047ZM802.312 338H743.112V368H802.312V338ZM845.513 100.56C833.828 100.56 824.032 98.5247 815.816 94.8359L803.529 122.204C816.219 127.902 830.317 130.56 845.513 130.56V100.56ZM815.816 94.8359C807.484 91.0947 801.47 86.1758 797.217 80.2519L772.848 97.7481C780.541 108.464 790.955 116.559 803.529 122.204L815.816 94.8359ZM797.217 80.2519C793.154 74.5919 791.073 68.1865 791.073 60.52H761.073C761.073 74.1868 764.965 86.7681 772.848 97.7481L797.217 80.2519ZM776.073 75.52H816.393V45.52H776.073V75.52ZM801.393 60.52C801.393 71.6634 805.623 81.5233 813.466 89.3666L834.679 68.1534C832.282 65.7567 831.393 63.4566 831.393 60.52H801.393ZM813.466 89.3666C822.101 98.0014 833.477 101.44 845.513 101.44V71.44C839.201 71.44 836.284 69.7586 834.679 68.1534L813.466 89.3666ZM845.513 101.44C857.304 101.44 868.39 98.1399 877.108 90.1189L856.797 68.041C854.848 69.8334 851.641 71.44 845.513 71.44V101.44ZM877.108 90.1189C885.634 82.2758 889.953 72.0377 889.953 60.52H859.953C859.953 63.9356 858.938 66.0708 856.797 68.041L877.108 90.1189ZM874.953 75.52H915.273V45.52H874.953V75.52ZM900.273 60.52C900.273 68.1865 898.191 74.5919 894.128 80.2519L918.497 97.7481C926.38 86.7681 930.273 74.1868 930.273 60.52H900.273ZM894.128 80.2519C889.926 86.1045 883.866 91.0261 875.311 94.7902L887.394 122.25C900.172 116.627 910.753 108.536 918.497 97.7481L894.128 80.2519ZM875.209 94.8359C866.993 98.5247 857.197 100.56 845.513 100.56V130.56C860.708 130.56 874.806 127.902 887.496 122.204L875.209 94.8359Z" fill="url(#paint0_linear_0_78)" mask="url(#path-1-outside-1_0_78)"/>
</g>
<g filter="url(#filter1_f_0_78)">
<mask id="path-3-outside-2_0_78" maskUnits="userSpaceOnUse" x="50" y="50" width="908" height="315" fill="black">
<rect fill="white" x="50" y="50" width="908" height="315"/>
<path d="M253.48 180.2H188.2V353H125.8V180.2H60.2V125.8H253.48V180.2ZM469.488 294.76C469.488 308.413 465.754 319.507 458.288 328.04C451.034 336.573 441.221 342.867 428.848 346.92C416.474 350.973 402.821 353 387.888 353H276.208V125.8H408.048C418.714 125.8 427.888 128.68 435.568 134.44C443.461 139.987 449.434 147.24 453.488 156.2C457.754 165.16 459.888 174.44 459.888 184.04C459.888 194.493 457.114 204.627 451.568 214.44C446.234 224.253 438.128 231.613 427.248 236.52C440.261 240.36 450.501 247.08 457.968 256.68C465.648 266.28 469.488 278.973 469.488 294.76ZM406.128 281.96C406.128 278.12 405.381 274.813 403.888 272.04C402.608 269.053 400.794 266.707 398.448 265C396.101 263.293 393.328 262.44 390.128 262.44H338.608V300.52H387.888C391.301 300.52 394.394 299.773 397.168 298.28C399.941 296.787 402.074 294.653 403.568 291.88C405.274 289.107 406.128 285.8 406.128 281.96ZM338.608 178.92V213.8H381.168C383.941 213.8 386.608 213.373 389.168 212.52C391.728 211.453 393.861 209.64 395.568 207.08C397.274 204.52 398.128 200.893 398.128 196.2C398.128 191.933 397.381 188.627 395.888 186.28C394.608 183.72 392.794 181.907 390.448 180.84C388.314 179.56 385.861 178.92 383.088 178.92H338.608ZM599.545 354.92C582.265 354.92 566.585 351.72 552.505 345.32C538.425 338.707 526.265 329.96 516.025 319.08C505.998 307.987 498.212 295.613 492.665 281.96C487.332 268.093 484.665 253.8 484.665 239.08C484.665 223.933 487.545 209.533 493.305 195.88C499.065 182.227 507.065 170.067 517.305 159.4C527.758 148.52 540.025 139.987 554.105 133.8C568.398 127.613 583.972 124.52 600.825 124.52C618.105 124.52 633.785 127.827 647.865 134.44C661.945 140.84 673.998 149.587 684.025 160.68C694.052 171.773 701.732 184.253 707.065 198.12C712.612 211.773 715.385 225.853 715.385 240.36C715.385 255.293 712.505 269.587 706.745 283.24C701.198 296.893 693.198 309.16 682.745 320.04C672.505 330.707 660.345 339.24 646.265 345.64C632.185 351.827 616.612 354.92 599.545 354.92ZM548.025 239.72C548.025 247.4 549.092 254.867 551.225 262.12C553.358 269.16 556.558 275.56 560.825 281.32C565.092 286.867 570.425 291.347 576.825 294.76C583.438 297.96 591.225 299.56 600.185 299.56C609.145 299.56 616.932 297.853 623.545 294.44C630.158 291.027 635.492 286.44 639.545 280.68C643.812 274.707 646.905 268.2 648.825 261.16C650.958 253.907 652.025 246.547 652.025 239.08C652.025 231.4 650.958 224.04 648.825 217C646.692 209.96 643.492 203.667 639.225 198.12C634.958 192.36 629.518 187.88 622.905 184.68C616.292 181.48 608.612 179.88 599.865 179.88C590.905 179.88 583.118 181.587 576.505 185C570.105 188.413 564.772 193 560.505 198.76C556.238 204.307 553.038 210.707 550.905 217.96C548.985 225 548.025 232.253 548.025 239.72ZM743.113 353V125.8H805.513V264.04L889.353 125.8H947.593V353H885.193V214.76L802.312 353H743.113ZM845.513 115.56C832.073 115.56 820.126 113.213 809.673 108.52C799.219 103.827 791.006 97.32 785.033 89C779.059 80.68 776.073 71.1867 776.073 60.52H816.392C816.392 67.56 818.953 73.64 824.073 78.76C829.193 83.88 836.339 86.44 845.513 86.44C854.473 86.44 861.619 83.9866 866.953 79.08C872.286 74.1733 874.953 67.9866 874.953 60.52H915.273C915.273 71.1867 912.286 80.68 906.313 89C900.339 97.32 892.019 103.827 881.353 108.52C870.899 113.213 858.953 115.56 845.513 115.56Z"/>
</mask>
<path d="M253.48 180.2V190.2C259.003 190.2 263.48 185.723 263.48 180.2H253.48ZM188.2 180.2V170.2C182.677 170.2 178.2 174.677 178.2 180.2H188.2ZM188.2 353V363C193.723 363 198.2 358.523 198.2 353H188.2ZM125.8 353H115.8C115.8 358.523 120.277 363 125.8 363V353ZM125.8 180.2H135.8C135.8 174.677 131.323 170.2 125.8 170.2V180.2ZM60.2 180.2H50.2C50.2 185.723 54.6772 190.2 60.2 190.2V180.2ZM60.2 125.8V115.8C54.6772 115.8 50.2 120.277 50.2 125.8H60.2ZM253.48 125.8H263.48C263.48 120.277 259.003 115.8 253.48 115.8V125.8ZM253.48 170.2H188.2V190.2H253.48V170.2ZM178.2 180.2V353H198.2V180.2H178.2ZM188.2 343H125.8V363H188.2V343ZM135.8 353V180.2H115.8V353H135.8ZM125.8 170.2H60.2V190.2H125.8V170.2ZM70.2 180.2V125.8H50.2V180.2H70.2ZM60.2 135.8H253.48V115.8H60.2V135.8ZM243.48 125.8V180.2H263.48V125.8H243.48ZM458.288 328.04L450.762 321.455C450.73 321.491 450.699 321.527 450.668 321.564L458.288 328.04ZM428.848 346.92L431.961 356.423L428.848 346.92ZM276.208 353H266.208C266.208 358.523 270.685 363 276.208 363V353ZM276.208 125.8V115.8C270.685 115.8 266.208 120.277 266.208 125.8H276.208ZM435.568 134.44L429.568 142.44C429.65 142.502 429.734 142.563 429.818 142.622L435.568 134.44ZM453.487 156.2L444.376 160.322C444.403 160.381 444.431 160.44 444.459 160.499L453.487 156.2ZM451.568 214.44L442.862 209.519C442.835 209.568 442.808 209.616 442.781 209.665L451.568 214.44ZM427.248 236.52L423.136 227.404C419.325 229.123 416.985 233.032 417.271 237.203C417.556 241.374 420.407 244.928 424.417 246.111L427.248 236.52ZM457.967 256.68L450.074 262.819C450.102 262.855 450.13 262.891 450.159 262.927L457.967 256.68ZM403.888 272.04L394.696 275.979C394.813 276.252 394.942 276.52 395.083 276.781L403.888 272.04ZM398.448 265L392.566 273.087V273.087L398.448 265ZM338.608 262.44V252.44C333.085 252.44 328.608 256.917 328.608 262.44H338.608ZM338.608 300.52H328.608C328.608 306.043 333.085 310.52 338.608 310.52V300.52ZM397.168 298.28L392.427 289.475V289.475L397.168 298.28ZM403.568 291.88L395.051 286.639C394.95 286.803 394.854 286.97 394.763 287.139L403.568 291.88ZM338.608 178.92V168.92C333.085 168.92 328.608 173.397 328.608 178.92H338.608ZM338.608 213.8H328.608C328.608 219.323 333.085 223.8 338.608 223.8V213.8ZM389.168 212.52L392.33 222.007C392.561 221.93 392.789 221.844 393.014 221.751L389.168 212.52ZM395.568 207.08L387.247 201.533V201.533L395.568 207.08ZM395.888 186.28L386.943 190.752C387.097 191.06 387.266 191.359 387.451 191.649L395.888 186.28ZM390.448 180.84L385.303 189.415C385.628 189.61 385.964 189.787 386.309 189.944L390.448 180.84ZM459.488 294.76C459.488 306.509 456.322 315.1 450.762 321.455L465.813 334.625C475.186 323.913 479.488 310.317 479.488 294.76H459.488ZM450.668 321.564C444.792 328.476 436.645 333.843 425.734 337.417L431.961 356.423C445.797 351.891 457.276 344.67 465.907 334.516L450.668 321.564ZM425.734 337.417C414.501 341.097 401.916 343 387.888 343V363C403.726 363 418.447 360.85 431.961 356.423L425.734 337.417ZM387.888 343H276.208V363H387.888V343ZM286.208 353V125.8H266.208V353H286.208ZM276.208 135.8H408.048V115.8H276.208V135.8ZM408.048 135.8C416.803 135.8 423.81 138.122 429.568 142.44L441.568 126.44C431.965 119.238 420.625 115.8 408.048 115.8V135.8ZM429.818 142.622C436.218 147.119 441.045 152.958 444.376 160.322L462.599 152.078C457.823 141.522 450.703 132.854 441.317 126.258L429.818 142.622ZM444.459 160.499C448.108 168.163 449.888 175.978 449.888 184.04H469.888C469.888 172.902 467.4 162.157 462.516 151.901L444.459 160.499ZM449.888 184.04C449.888 192.635 447.629 201.086 442.862 209.519L460.273 219.361C466.6 208.167 469.888 196.352 469.888 184.04H449.888ZM442.781 209.665C438.564 217.424 432.171 223.33 423.136 227.404L431.359 245.636C444.084 239.897 453.904 231.083 460.354 219.215L442.781 209.665ZM424.417 246.111C435.666 249.43 444.039 255.061 450.074 262.819L465.861 250.541C456.962 239.099 444.856 231.29 430.078 226.929L424.417 246.111ZM450.159 262.927C456.059 270.303 459.488 280.59 459.488 294.76H479.488C479.488 277.357 475.236 262.257 465.776 250.433L450.159 262.927ZM416.128 281.96C416.128 276.824 415.124 271.816 412.692 267.299L395.083 276.781C395.637 277.811 396.128 279.416 396.128 281.96H416.128ZM413.079 268.101C411.177 263.662 408.302 259.802 404.329 256.913L392.566 273.087C393.287 273.612 394.038 274.445 394.696 275.979L413.079 268.101ZM404.329 256.913C400.098 253.835 395.213 252.44 390.128 252.44V272.44C391.442 272.44 392.104 272.752 392.566 273.087L404.329 256.913ZM390.128 252.44H338.608V272.44H390.128V252.44ZM328.608 262.44V300.52H348.608V262.44H328.608ZM338.608 310.52H387.888V290.52H338.608V310.52ZM387.888 310.52C392.814 310.52 397.558 309.427 401.909 307.085L392.427 289.475C391.23 290.119 389.788 290.52 387.888 290.52V310.52ZM401.909 307.085C406.405 304.664 409.951 301.117 412.372 296.621L394.763 287.139C394.197 288.189 393.477 288.91 392.427 289.475L401.909 307.085ZM412.084 297.121C414.923 292.508 416.128 287.315 416.128 281.96H396.128C396.128 284.285 395.626 285.705 395.051 286.639L412.084 297.121ZM328.608 178.92V213.8H348.608V178.92H328.608ZM338.608 223.8H381.168V203.8H338.608V223.8ZM381.168 223.8C384.985 223.8 388.722 223.209 392.33 222.007L386.005 203.033C384.493 203.537 382.896 203.8 381.168 203.8V223.8ZM393.014 221.751C397.593 219.843 401.211 216.643 403.888 212.627L387.247 201.533C386.511 202.637 385.862 203.064 385.321 203.289L393.014 221.751ZM403.888 212.627C407.125 207.771 408.128 201.901 408.128 196.2H388.128C388.128 199.886 387.423 201.269 387.247 201.533L403.888 212.627ZM408.128 196.2C408.128 190.972 407.247 185.504 404.324 180.911L387.451 191.649C387.515 191.749 388.128 192.895 388.128 196.2H408.128ZM404.832 181.808C402.648 177.439 399.25 173.856 394.586 171.736L386.309 189.944C386.397 189.983 386.442 190.017 386.496 190.071C386.56 190.135 386.729 190.323 386.943 190.752L404.832 181.808ZM395.592 172.265C391.732 169.949 387.46 168.92 383.087 168.92V188.92C384.262 188.92 384.897 189.171 385.303 189.415L395.592 172.265ZM383.087 168.92H338.608V188.92H383.087V168.92ZM552.505 345.32L548.254 354.371C548.291 354.389 548.329 354.406 548.367 354.424L552.505 345.32ZM516.025 319.08L508.606 325.785C508.651 325.835 508.697 325.885 508.743 325.934L516.025 319.08ZM492.665 281.96L483.332 285.55C483.354 285.608 483.377 285.666 483.4 285.724L492.665 281.96ZM493.305 195.88L484.091 191.993L493.305 195.88ZM517.305 159.4L510.094 152.472L510.091 152.475L517.305 159.4ZM554.105 133.8L550.133 124.623C550.116 124.63 550.099 124.637 550.082 124.645L554.105 133.8ZM647.865 134.44L643.614 143.491C643.651 143.509 643.689 143.526 643.727 143.544L647.865 134.44ZM684.025 160.68L676.606 167.385L684.025 160.68ZM707.065 198.12L697.732 201.71C697.754 201.768 697.777 201.826 697.8 201.884L707.065 198.12ZM706.745 283.24L697.531 279.353C697.514 279.394 697.497 279.435 697.48 279.476L706.745 283.24ZM682.745 320.04L675.534 313.112L675.531 313.115L682.745 320.04ZM646.265 345.64L650.288 354.795C650.326 354.778 650.365 354.761 650.403 354.744L646.265 345.64ZM551.225 262.12L541.631 264.942C541.639 264.968 541.647 264.994 541.655 265.02L551.225 262.12ZM560.825 281.32L552.789 287.272C552.825 287.321 552.862 287.369 552.899 287.417L560.825 281.32ZM576.825 294.76L572.119 303.584C572.235 303.645 572.352 303.705 572.469 303.762L576.825 294.76ZM623.545 294.44L628.131 303.326H628.131L623.545 294.44ZM639.545 280.68L631.408 274.868C631.394 274.887 631.38 274.906 631.367 274.925L639.545 280.68ZM648.825 261.16L639.231 258.338C639.213 258.402 639.195 258.465 639.177 258.529L648.825 261.16ZM648.825 217L639.255 219.9L648.825 217ZM639.225 198.12L631.189 204.072C631.225 204.121 631.262 204.169 631.299 204.217L639.225 198.12ZM622.905 184.68L627.261 175.678L622.905 184.68ZM576.505 185L571.919 176.114C571.879 176.134 571.839 176.155 571.799 176.176L576.505 185ZM560.505 198.76L568.431 204.857C568.468 204.809 568.505 204.761 568.541 204.712L560.505 198.76ZM550.905 217.96L541.311 215.138C541.293 215.202 541.275 215.265 541.257 215.329L550.905 217.96ZM599.545 344.92C583.524 344.92 569.279 341.96 556.643 336.216L548.367 354.424C563.891 361.48 581.006 364.92 599.545 364.92V344.92ZM556.756 336.269C543.768 330.168 532.649 322.152 523.307 312.226L508.743 325.934C519.881 337.768 533.082 347.245 548.254 354.371L556.756 336.269ZM523.444 312.375C514.188 302.134 507.031 290.753 501.93 278.196L483.4 285.724C489.393 300.474 497.809 313.84 508.606 325.785L523.444 312.375ZM501.998 278.37C497.102 265.638 494.665 252.561 494.665 239.08H474.665C474.665 255.039 477.562 270.548 483.332 285.55L501.998 278.37ZM494.665 239.08C494.665 225.238 497.289 212.163 502.519 199.767L484.091 191.993C477.801 206.904 474.665 222.628 474.665 239.08H494.665ZM502.519 199.767C507.804 187.238 515.128 176.108 524.519 166.325L510.091 152.475C499.003 164.025 490.326 177.216 484.091 191.993L502.519 199.767ZM524.516 166.328C534.045 156.411 545.222 148.626 558.128 142.955L550.082 124.645C534.828 131.348 521.472 140.629 510.094 152.472L524.516 166.328ZM558.077 142.977C571.017 137.377 585.225 134.52 600.825 134.52V114.52C582.719 114.52 565.78 117.85 550.133 124.623L558.077 142.977ZM600.825 134.52C616.8 134.52 631.005 137.569 643.614 143.491L652.116 125.389C636.565 118.084 619.41 114.52 600.825 114.52V134.52ZM643.727 143.544C656.605 149.397 667.529 157.343 676.606 167.385L691.444 153.975C680.467 141.831 667.285 132.283 652.003 125.336L643.727 143.544ZM676.606 167.385C685.814 177.573 692.842 188.998 697.732 201.71L716.398 194.53C710.621 179.509 702.289 165.974 691.444 153.975L676.606 167.385ZM697.8 201.884C702.869 214.361 705.385 227.164 705.385 240.36H725.385C725.385 224.542 722.354 209.186 716.33 194.356L697.8 201.884ZM705.385 240.36C705.385 253.969 702.768 266.94 697.531 279.353L715.959 287.127C722.242 272.234 725.385 256.618 725.385 240.36H705.385ZM697.48 279.476C692.423 291.926 685.13 303.124 675.534 313.112L689.956 326.968C701.267 315.196 709.974 301.861 716.01 287.004L697.48 279.476ZM675.531 313.115C666.209 322.825 655.107 330.636 642.127 336.536L650.403 354.744C665.583 347.844 678.801 338.588 689.959 326.965L675.531 313.115ZM642.242 336.485C629.563 342.056 615.379 344.92 599.545 344.92V364.92C617.844 364.92 634.807 361.597 650.288 354.795L642.242 336.485ZM538.025 239.72C538.025 248.34 539.224 256.757 541.631 264.942L560.819 259.298C558.959 252.976 558.025 246.46 558.025 239.72H538.025ZM541.655 265.02C544.112 273.129 547.822 280.566 552.789 287.272L568.861 275.368C565.295 270.554 562.605 265.191 560.795 259.22L541.655 265.02ZM552.899 287.417C558.065 294.133 564.511 299.526 572.119 303.584L581.531 285.936C576.339 283.167 572.119 279.601 568.751 275.223L552.899 287.417ZM572.469 303.762C580.706 307.747 590.042 309.56 600.185 309.56V289.56C592.408 289.56 586.171 288.173 581.181 285.758L572.469 303.762ZM600.185 309.56C610.418 309.56 619.839 307.606 628.131 303.326L618.959 285.554C614.025 288.1 607.872 289.56 600.185 289.56V309.56ZM628.131 303.326C636.093 299.217 642.69 293.588 647.723 286.435L631.367 274.925C628.294 279.292 624.223 282.836 618.959 285.554L628.131 303.326ZM647.682 286.492C652.632 279.562 656.239 271.98 658.473 263.791L639.177 258.529C637.571 264.42 634.991 269.851 631.408 274.868L647.682 286.492ZM658.419 263.982C660.818 255.824 662.025 247.514 662.025 239.08H642.025C642.025 245.579 641.099 251.99 639.231 258.338L658.419 263.982ZM662.025 239.08C662.025 230.461 660.826 222.121 658.395 214.1L639.255 219.9C641.091 225.959 642.025 232.339 642.025 239.08H662.025ZM658.395 214.1C655.93 205.964 652.192 198.576 647.151 192.023L631.299 204.217C634.792 208.758 637.454 213.956 639.255 219.9L658.395 214.1ZM647.261 192.168C642.007 185.076 635.291 179.564 627.261 175.678L618.549 193.682C623.745 196.196 627.91 199.644 631.189 204.072L647.261 192.168ZM627.261 175.678C619.055 171.708 609.836 169.88 599.865 169.88V189.88C607.388 189.88 613.529 191.252 618.549 193.682L627.261 175.678ZM599.865 169.88C589.632 169.88 580.211 171.834 571.919 176.114L581.091 193.886C586.025 191.34 592.178 189.88 599.865 189.88V169.88ZM571.799 176.176C564.106 180.279 557.63 185.841 552.469 192.808L568.541 204.712C571.913 200.159 576.104 196.547 581.211 193.824L571.799 176.176ZM552.579 192.663C547.5 199.265 543.765 206.795 541.311 215.138L560.499 220.782C562.312 214.618 564.977 209.348 568.431 204.857L552.579 192.663ZM541.257 215.329C539.098 223.246 538.025 231.385 538.025 239.72H558.025C558.025 233.121 558.872 226.754 560.553 220.591L541.257 215.329ZM743.112 353H733.112C733.112 358.523 737.59 363 743.112 363V353ZM743.112 125.8V115.8C737.59 115.8 733.112 120.277 733.112 125.8H743.112ZM805.513 125.8H815.513C815.513 120.277 811.035 115.8 805.513 115.8V125.8ZM805.513 264.04H795.513C795.513 268.526 798.5 272.463 802.82 273.671C807.141 274.879 811.737 273.061 814.063 269.226L805.513 264.04ZM889.352 125.8V115.8C885.857 115.8 882.615 117.625 880.802 120.614L889.352 125.8ZM947.593 125.8H957.593C957.593 120.277 953.115 115.8 947.593 115.8V125.8ZM947.593 353V363C953.115 363 957.593 358.523 957.593 353H947.593ZM885.193 353H875.193C875.193 358.523 879.67 363 885.193 363V353ZM885.193 214.76H895.193C895.193 210.265 892.193 206.322 887.86 205.122C883.528 203.923 878.927 205.762 876.616 209.618L885.193 214.76ZM802.312 353V363C805.826 363 809.082 361.156 810.889 358.142L802.312 353ZM809.672 108.52L813.768 99.3973L813.768 99.3973L809.672 108.52ZM785.033 89L793.156 83.1679V83.1679L785.033 89ZM776.073 60.52V50.52C770.55 50.52 766.073 54.9971 766.073 60.52H776.073ZM816.393 60.52H826.393C826.393 54.9971 821.915 50.52 816.393 50.52V60.52ZM824.073 78.76L831.144 71.6889V71.6889L824.073 78.76ZM874.953 60.52V50.52C869.43 50.52 864.953 54.9971 864.953 60.52H874.953ZM915.273 60.52H925.273C925.273 54.9971 920.795 50.52 915.273 50.52V60.52ZM906.312 89L898.189 83.1679V83.1679L906.312 89ZM881.352 108.52L877.325 99.3668C877.302 99.3769 877.279 99.387 877.257 99.3973L881.352 108.52ZM753.112 353V125.8H733.112V353H753.112ZM743.112 135.8H805.513V115.8H743.112V135.8ZM795.513 125.8V264.04H815.513V125.8H795.513ZM814.063 269.226L897.903 130.986L880.802 120.614L796.962 258.854L814.063 269.226ZM889.352 135.8H947.593V115.8H889.352V135.8ZM937.593 125.8V353H957.593V125.8H937.593ZM947.593 343H885.193V363H947.593V343ZM895.193 353V214.76H875.193V353H895.193ZM876.616 209.618L793.736 347.858L810.889 358.142L893.769 219.902L876.616 209.618ZM802.312 343H743.112V363H802.312V343ZM845.513 105.56C833.243 105.56 822.73 103.421 813.768 99.3973L805.577 117.643C817.522 123.006 830.902 125.56 845.513 125.56V105.56ZM813.768 99.3973C804.729 95.3387 797.982 89.8905 793.156 83.1679L776.909 94.832C784.029 104.749 793.71 112.315 805.577 117.643L813.768 99.3973ZM793.156 83.1679C788.456 76.6213 786.073 69.1866 786.073 60.52H766.073C766.073 73.1867 769.663 84.7387 776.909 94.8321L793.156 83.1679ZM776.073 70.52H816.393V50.52H776.073V70.52ZM806.393 60.52C806.393 70.2956 810.066 78.8955 817.001 85.8311L831.144 71.6889C827.839 68.3844 826.393 64.8244 826.393 60.52H806.393ZM817.001 85.8311C824.465 93.2943 834.431 96.44 845.513 96.44V76.44C838.247 76.44 833.92 74.4657 831.144 71.6889L817.001 85.8311ZM845.513 96.44C856.36 96.44 866.133 93.4221 873.723 86.4393L860.182 71.7207C857.105 74.5512 852.585 76.44 845.513 76.44V96.44ZM873.723 86.4393C881.184 79.575 884.953 70.6873 884.953 60.52H864.953C864.953 65.286 863.387 68.7717 860.182 71.7207L873.723 86.4393ZM874.953 70.52H915.273V50.52H874.953V70.52ZM905.273 60.52C905.273 69.1866 902.889 76.6213 898.189 83.1679L914.436 94.8321C921.682 84.7387 925.273 73.1867 925.273 60.52H905.273ZM898.189 83.1679C893.397 89.843 886.584 95.2929 877.325 99.3668L885.38 117.673C897.454 112.36 907.281 104.797 914.436 94.832L898.189 83.1679ZM877.257 99.3973C868.295 103.421 857.782 105.56 845.513 105.56V125.56C860.123 125.56 873.503 123.006 885.448 117.643L877.257 99.3973Z" fill="url(#paint1_linear_0_78)" mask="url(#path-3-outside-2_0_78)"/>
</g>
<mask id="path-5-outside-3_0_78" maskUnits="userSpaceOnUse" x="54" y="54" width="900" height="307" fill="black">
<rect fill="white" x="54" y="54" width="900" height="307"/>
<path d="M253.48 180.2H188.2V353H125.8V180.2H60.2V125.8H253.48V180.2ZM469.488 294.76C469.488 308.413 465.754 319.507 458.288 328.04C451.034 336.573 441.221 342.867 428.848 346.92C416.474 350.973 402.821 353 387.888 353H276.208V125.8H408.048C418.714 125.8 427.888 128.68 435.568 134.44C443.461 139.987 449.434 147.24 453.488 156.2C457.754 165.16 459.888 174.44 459.888 184.04C459.888 194.493 457.114 204.627 451.568 214.44C446.234 224.253 438.128 231.613 427.248 236.52C440.261 240.36 450.501 247.08 457.968 256.68C465.648 266.28 469.488 278.973 469.488 294.76ZM406.128 281.96C406.128 278.12 405.381 274.813 403.888 272.04C402.608 269.053 400.794 266.707 398.448 265C396.101 263.293 393.328 262.44 390.128 262.44H338.608V300.52H387.888C391.301 300.52 394.394 299.773 397.168 298.28C399.941 296.787 402.074 294.653 403.568 291.88C405.274 289.107 406.128 285.8 406.128 281.96ZM338.608 178.92V213.8H381.168C383.941 213.8 386.608 213.373 389.168 212.52C391.728 211.453 393.861 209.64 395.568 207.08C397.274 204.52 398.128 200.893 398.128 196.2C398.128 191.933 397.381 188.627 395.888 186.28C394.608 183.72 392.794 181.907 390.448 180.84C388.314 179.56 385.861 178.92 383.088 178.92H338.608ZM599.545 354.92C582.265 354.92 566.585 351.72 552.505 345.32C538.425 338.707 526.265 329.96 516.025 319.08C505.998 307.987 498.212 295.613 492.665 281.96C487.332 268.093 484.665 253.8 484.665 239.08C484.665 223.933 487.545 209.533 493.305 195.88C499.065 182.227 507.065 170.067 517.305 159.4C527.758 148.52 540.025 139.987 554.105 133.8C568.398 127.613 583.972 124.52 600.825 124.52C618.105 124.52 633.785 127.827 647.865 134.44C661.945 140.84 673.998 149.587 684.025 160.68C694.052 171.773 701.732 184.253 707.065 198.12C712.612 211.773 715.385 225.853 715.385 240.36C715.385 255.293 712.505 269.587 706.745 283.24C701.198 296.893 693.198 309.16 682.745 320.04C672.505 330.707 660.345 339.24 646.265 345.64C632.185 351.827 616.612 354.92 599.545 354.92ZM548.025 239.72C548.025 247.4 549.092 254.867 551.225 262.12C553.358 269.16 556.558 275.56 560.825 281.32C565.092 286.867 570.425 291.347 576.825 294.76C583.438 297.96 591.225 299.56 600.185 299.56C609.145 299.56 616.932 297.853 623.545 294.44C630.158 291.027 635.492 286.44 639.545 280.68C643.812 274.707 646.905 268.2 648.825 261.16C650.958 253.907 652.025 246.547 652.025 239.08C652.025 231.4 650.958 224.04 648.825 217C646.692 209.96 643.492 203.667 639.225 198.12C634.958 192.36 629.518 187.88 622.905 184.68C616.292 181.48 608.612 179.88 599.865 179.88C590.905 179.88 583.118 181.587 576.505 185C570.105 188.413 564.772 193 560.505 198.76C556.238 204.307 553.038 210.707 550.905 217.96C548.985 225 548.025 232.253 548.025 239.72ZM743.113 353V125.8H805.513V264.04L889.353 125.8H947.593V353H885.193V214.76L802.312 353H743.113ZM845.513 115.56C832.073 115.56 820.126 113.213 809.673 108.52C799.219 103.827 791.006 97.32 785.033 89C779.059 80.68 776.073 71.1867 776.073 60.52H816.392C816.392 67.56 818.953 73.64 824.073 78.76C829.193 83.88 836.339 86.44 845.513 86.44C854.473 86.44 861.619 83.9866 866.953 79.08C872.286 74.1733 874.953 67.9866 874.953 60.52H915.273C915.273 71.1867 912.286 80.68 906.313 89C900.339 97.32 892.019 103.827 881.353 108.52C870.899 113.213 858.953 115.56 845.513 115.56Z"/>
</mask>
<path d="M253.48 180.2V186.2C256.794 186.2 259.48 183.514 259.48 180.2H253.48ZM188.2 180.2V174.2C184.886 174.2 182.2 176.886 182.2 180.2H188.2ZM188.2 353V359C191.514 359 194.2 356.314 194.2 353H188.2ZM125.8 353H119.8C119.8 356.314 122.486 359 125.8 359V353ZM125.8 180.2H131.8C131.8 176.886 129.114 174.2 125.8 174.2V180.2ZM60.2 180.2H54.2C54.2 183.514 56.8863 186.2 60.2 186.2V180.2ZM60.2 125.8V119.8C56.8863 119.8 54.2 122.486 54.2 125.8H60.2ZM253.48 125.8H259.48C259.48 122.486 256.794 119.8 253.48 119.8V125.8ZM253.48 174.2H188.2V186.2H253.48V174.2ZM182.2 180.2V353H194.2V180.2H182.2ZM188.2 347H125.8V359H188.2V347ZM131.8 353V180.2H119.8V353H131.8ZM125.8 174.2H60.2V186.2H125.8V174.2ZM66.2 180.2V125.8H54.2V180.2H66.2ZM60.2 131.8H253.48V119.8H60.2V131.8ZM247.48 125.8V180.2H259.48V125.8H247.48ZM458.288 328.04L453.772 324.089C453.753 324.111 453.734 324.132 453.716 324.154L458.288 328.04ZM428.848 346.92L430.715 352.622L428.848 346.92ZM276.208 353H270.208C270.208 356.314 272.894 359 276.208 359V353ZM276.208 125.8V119.8C272.894 119.8 270.208 122.486 270.208 125.8H276.208ZM435.568 134.44L431.967 139.24C432.017 139.277 432.067 139.314 432.118 139.349L435.568 134.44ZM453.487 156.2L448.021 158.673C448.037 158.709 448.053 158.744 448.07 158.78L453.487 156.2ZM451.568 214.44L446.344 211.488C446.328 211.517 446.312 211.546 446.296 211.575L451.568 214.44ZM427.248 236.52L424.781 231.05C422.494 232.082 421.09 234.427 421.262 236.93C421.433 239.433 423.143 241.565 425.549 242.275L427.248 236.52ZM457.967 256.68L453.231 260.364C453.248 260.385 453.265 260.407 453.282 260.428L457.967 256.68ZM403.888 272.04L398.373 274.404C398.443 274.567 398.52 274.728 398.605 274.885L403.888 272.04ZM398.448 265L394.918 269.852L398.448 265ZM338.608 262.44V256.44C335.294 256.44 332.608 259.126 332.608 262.44H338.608ZM338.608 300.52H332.608C332.608 303.834 335.294 306.52 338.608 306.52V300.52ZM397.168 298.28L394.323 292.997L397.168 298.28ZM403.568 291.88L398.458 288.735C398.397 288.834 398.339 288.934 398.285 289.035L403.568 291.88ZM338.608 178.92V172.92C335.294 172.92 332.608 175.606 332.608 178.92H338.608ZM338.608 213.8H332.608C332.608 217.114 335.294 219.8 338.608 219.8V213.8ZM389.168 212.52L391.065 218.212C391.203 218.166 391.34 218.115 391.475 218.058L389.168 212.52ZM395.568 207.08L390.575 203.752V203.752L395.568 207.08ZM395.888 186.28L390.521 188.963C390.613 189.148 390.715 189.327 390.826 189.501L395.888 186.28ZM390.448 180.84L387.361 185.985C387.556 186.102 387.757 186.208 387.965 186.302L390.448 180.84ZM463.488 294.76C463.488 307.271 460.095 316.863 453.772 324.089L462.803 331.991C471.413 322.151 475.488 309.556 475.488 294.76H463.488ZM453.716 324.154C447.289 331.715 438.475 337.452 426.98 341.218L430.715 352.622C443.966 348.281 454.779 341.431 462.859 331.926L453.716 324.154ZM426.98 341.218C415.29 345.047 402.278 347 387.888 347V359C403.364 359 417.658 356.899 430.715 352.622L426.98 341.218ZM387.888 347H276.208V359H387.888V347ZM282.208 353V125.8H270.208V353H282.208ZM276.208 131.8H408.048V119.8H276.208V131.8ZM408.048 131.8C417.568 131.8 425.441 134.345 431.967 139.24L439.168 129.64C430.334 123.015 419.861 119.8 408.048 119.8V131.8ZM432.118 139.349C439.115 144.266 444.401 150.671 448.021 158.673L458.954 153.727C454.467 143.809 447.806 135.707 439.017 129.531L432.118 139.349ZM448.07 158.78C451.967 166.962 453.888 175.363 453.888 184.04H465.888C465.888 173.517 463.542 163.358 458.905 153.62L448.07 158.78ZM453.888 184.04C453.888 193.378 451.423 202.502 446.344 211.488L456.791 217.392C462.806 206.751 465.888 195.608 465.888 184.04H453.888ZM446.296 211.575C441.632 220.156 434.554 226.643 424.781 231.05L429.714 241.99C441.701 236.584 450.836 228.351 456.839 217.305L446.296 211.575ZM425.549 242.275C437.504 245.802 446.624 251.868 453.231 260.364L462.704 252.996C454.378 242.292 443.018 234.918 428.946 230.765L425.549 242.275ZM453.282 260.428C459.895 268.694 463.488 279.943 463.488 294.76H475.488C475.488 278.003 471.4 263.866 462.653 252.932L453.282 260.428ZM412.128 281.96C412.128 277.343 411.227 273.015 409.17 269.195L398.605 274.885C399.535 276.612 400.128 278.897 400.128 281.96H412.128ZM409.402 269.676C407.749 265.818 405.299 262.564 401.977 260.148L394.918 269.852C396.29 270.85 397.466 272.288 398.373 274.404L409.402 269.676ZM401.977 260.148C398.499 257.618 394.459 256.44 390.128 256.44V268.44C392.196 268.44 393.703 268.968 394.918 269.852L401.977 260.148ZM390.128 256.44H338.608V268.44H390.128V256.44ZM332.608 262.44V300.52H344.608V262.44H332.608ZM338.608 306.52H387.888V294.52H338.608V306.52ZM387.888 306.52C392.209 306.52 396.292 305.566 400.012 303.563L394.323 292.997C392.496 293.981 390.393 294.52 387.888 294.52V306.52ZM400.012 303.563C403.819 301.513 406.8 298.532 408.85 294.725L398.285 289.035C397.348 290.775 396.062 292.061 394.323 292.997L400.012 303.563ZM408.677 295.025C411.063 291.148 412.128 286.709 412.128 281.96H400.128C400.128 284.891 399.485 287.066 398.458 288.735L408.677 295.025ZM332.608 178.92V213.8H344.608V178.92H332.608ZM338.608 219.8H381.168V207.8H338.608V219.8ZM381.168 219.8C384.568 219.8 387.876 219.275 391.065 218.212L387.27 206.828C385.339 207.472 383.314 207.8 381.168 207.8V219.8ZM391.475 218.058C395.247 216.487 398.271 213.842 400.56 210.408L390.575 203.752C389.451 205.438 388.208 206.42 386.86 206.982L391.475 218.058ZM400.56 210.408C403.185 206.471 404.128 201.498 404.128 196.2H392.128C392.128 200.289 391.364 202.569 390.575 203.752L400.56 210.408ZM404.128 196.2C404.128 191.356 403.301 186.753 400.949 183.059L390.826 189.501C391.461 190.5 392.128 192.51 392.128 196.2H404.128ZM401.254 183.597C399.432 179.952 396.667 177.076 392.93 175.378L387.965 186.302C388.921 186.737 389.783 187.488 390.521 188.963L401.254 183.597ZM393.534 175.695C390.365 173.793 386.82 172.92 383.087 172.92V184.92C384.901 184.92 386.264 185.327 387.361 185.985L393.534 175.695ZM383.087 172.92H338.608V184.92H383.087V172.92ZM552.505 345.32L549.954 350.751C549.977 350.761 549.999 350.772 550.022 350.782L552.505 345.32ZM516.025 319.08L511.574 323.103C511.601 323.133 511.628 323.163 511.656 323.192L516.025 319.08ZM492.665 281.96L487.065 284.114C487.078 284.149 487.092 284.184 487.106 284.218L492.665 281.96ZM493.305 195.88L487.777 193.548L493.305 195.88ZM517.305 159.4L512.978 155.243L512.977 155.245L517.305 159.4ZM554.105 133.8L551.722 128.294C551.712 128.298 551.701 128.302 551.691 128.307L554.105 133.8ZM647.865 134.44L645.314 139.871C645.337 139.881 645.359 139.892 645.382 139.902L647.865 134.44ZM684.025 160.68L679.574 164.703L684.025 160.68ZM707.065 198.12L701.465 200.274C701.478 200.309 701.492 200.344 701.506 200.378L707.065 198.12ZM706.745 283.24L701.217 280.908C701.206 280.932 701.196 280.957 701.186 280.982L706.745 283.24ZM682.745 320.04L678.418 315.883L678.417 315.885L682.745 320.04ZM646.265 345.64L648.679 351.133C648.702 351.123 648.725 351.113 648.748 351.102L646.265 345.64ZM551.225 262.12L545.469 263.813C545.473 263.829 545.478 263.844 545.483 263.86L551.225 262.12ZM560.825 281.32L556.004 284.891C556.025 284.921 556.047 284.949 556.069 284.978L560.825 281.32ZM576.825 294.76L574.001 300.054C574.071 300.091 574.141 300.127 574.212 300.161L576.825 294.76ZM623.545 294.44L626.297 299.772L623.545 294.44ZM639.545 280.68L634.663 277.193C634.654 277.204 634.646 277.216 634.638 277.227L639.545 280.68ZM648.825 261.16L643.069 259.467C643.058 259.505 643.047 259.543 643.036 259.581L648.825 261.16ZM648.825 217L643.083 218.74L648.825 217ZM639.225 198.12L634.404 201.691C634.425 201.721 634.447 201.749 634.469 201.778L639.225 198.12ZM622.905 184.68L625.518 179.279L622.905 184.68ZM576.505 185L573.753 179.668C573.729 179.681 573.705 179.693 573.681 179.706L576.505 185ZM560.505 198.76L565.261 202.418C565.283 202.389 565.305 202.361 565.326 202.331L560.505 198.76ZM550.905 217.96L545.149 216.267C545.138 216.305 545.127 216.343 545.116 216.381L550.905 217.96ZM599.545 348.92C583.021 348.92 568.201 345.864 554.988 339.858L550.022 350.782C564.969 357.576 581.509 360.92 599.545 360.92V348.92ZM555.056 339.889C541.631 333.584 530.095 325.275 520.394 314.968L511.656 323.192C522.435 334.645 535.219 343.83 549.954 350.751L555.056 339.889ZM520.476 315.057C510.912 304.475 503.503 292.697 498.224 279.702L487.106 284.218C492.92 298.53 501.085 311.498 511.574 323.103L520.476 315.057ZM498.265 279.806C493.194 266.62 490.665 253.057 490.665 239.08H478.665C478.665 254.543 481.47 269.566 487.065 284.114L498.265 279.806ZM490.665 239.08C490.665 224.716 493.392 211.111 498.833 198.212L487.777 193.548C481.698 207.956 478.665 223.15 478.665 239.08H490.665ZM498.833 198.212C504.309 185.233 511.902 173.691 521.633 163.555L512.977 155.245C502.228 166.442 493.821 179.22 487.777 193.548L498.833 198.212ZM521.632 163.557C531.53 153.254 543.143 145.17 556.519 139.293L551.691 128.307C536.907 134.803 523.986 143.786 512.978 155.243L521.632 163.557ZM556.488 139.306C569.969 133.471 584.723 130.52 600.825 130.52V118.52C583.22 118.52 566.827 121.755 551.722 128.294L556.488 139.306ZM600.825 130.52C617.322 130.52 632.117 133.672 645.314 139.871L650.416 129.009C635.453 121.981 618.888 118.52 600.825 118.52V130.52ZM645.382 139.902C658.741 145.974 670.117 154.24 679.574 164.703L688.476 156.657C677.88 144.933 665.149 135.706 650.348 128.978L645.382 139.902ZM679.574 164.703C689.109 175.253 696.398 187.1 701.465 200.274L712.665 195.966C707.065 181.406 698.994 168.294 688.476 156.657L679.574 164.703ZM701.506 200.378C706.766 213.326 709.385 226.64 709.385 240.36H721.385C721.385 225.067 718.457 210.221 712.624 195.862L701.506 200.378ZM709.385 240.36C709.385 254.499 706.663 267.998 701.217 280.908L712.273 285.572C718.347 271.175 721.385 256.088 721.385 240.36H709.385ZM701.186 280.982C695.933 293.913 688.357 305.539 678.418 315.883L687.072 324.197C698.04 312.781 706.464 299.874 712.304 285.498L701.186 280.982ZM678.417 315.885C668.728 325.978 657.202 334.078 643.782 340.178L648.748 351.102C663.488 344.402 676.283 335.436 687.073 324.195L678.417 315.885ZM643.851 340.147C630.612 345.964 615.872 348.92 599.545 348.92V360.92C617.351 360.92 633.758 357.689 648.679 351.133L643.851 340.147ZM542.025 239.72C542.025 247.964 543.171 256.001 545.469 263.813L556.981 260.427C555.012 253.732 554.025 246.836 554.025 239.72H542.025ZM545.483 263.86C547.81 271.541 551.317 278.564 556.004 284.891L565.646 277.749C561.8 272.556 558.906 266.779 556.967 260.38L545.483 263.86ZM556.069 284.978C560.875 291.226 566.877 296.254 574.001 300.054L579.649 289.466C573.973 286.439 569.308 282.507 565.581 277.662L556.069 284.978ZM574.212 300.161C581.799 303.832 590.515 305.56 600.185 305.56V293.56C591.935 293.56 585.078 292.088 579.438 289.359L574.212 300.161ZM600.185 305.56C609.909 305.56 618.676 303.705 626.297 299.772L620.793 289.108C615.187 292.002 608.381 293.56 600.185 293.56V305.56ZM626.297 299.772C633.719 295.941 639.81 290.729 644.452 284.133L634.638 277.227C631.173 282.151 626.597 286.113 620.793 289.108L626.297 299.772ZM644.427 284.167C649.104 277.62 652.506 270.468 654.614 262.739L643.036 259.581C641.304 265.932 638.519 271.793 634.663 277.193L644.427 284.167ZM654.581 262.853C656.874 255.057 658.025 247.127 658.025 239.08H646.025C646.025 245.966 645.042 252.756 643.069 259.467L654.581 262.853ZM658.025 239.08C658.025 230.837 656.879 222.889 654.567 215.26L643.083 218.74C645.038 225.191 646.025 231.963 646.025 239.08H658.025ZM654.567 215.26C652.234 207.562 648.712 200.612 643.981 194.462L634.469 201.778C638.272 206.721 641.149 212.358 643.083 218.74L654.567 215.26ZM644.046 194.549C639.188 187.989 632.982 182.891 625.518 179.279L620.292 190.081C626.055 192.869 630.729 196.731 634.404 201.691L644.046 194.549ZM625.518 179.279C617.949 175.617 609.346 173.88 599.865 173.88V185.88C607.877 185.88 614.634 187.343 620.292 190.081L625.518 179.279ZM599.865 173.88C590.141 173.88 581.374 175.735 573.753 179.668L579.257 190.332C584.863 187.438 591.669 185.88 599.865 185.88V173.88ZM573.681 179.706C566.506 183.533 560.487 188.705 555.684 195.189L565.326 202.331C569.057 197.295 573.704 193.294 579.329 190.294L573.681 179.706ZM555.749 195.102C550.995 201.282 547.474 208.36 545.149 216.267L556.661 219.653C558.602 213.053 561.481 207.332 565.261 202.418L555.749 195.102ZM545.116 216.381C543.053 223.948 542.025 231.733 542.025 239.72H554.025C554.025 232.774 554.917 226.052 556.694 219.539L545.116 216.381ZM743.112 353H737.112C737.112 356.314 739.799 359 743.112 359V353ZM743.112 125.8V119.8C739.799 119.8 737.112 122.486 737.112 125.8H743.112ZM805.513 125.8H811.513C811.513 122.486 808.826 119.8 805.513 119.8V125.8ZM805.513 264.04H799.513C799.513 266.732 801.305 269.094 803.897 269.818C806.489 270.543 809.247 269.453 810.643 267.151L805.513 264.04ZM889.352 125.8V119.8C887.255 119.8 885.31 120.895 884.222 122.689L889.352 125.8ZM947.593 125.8H953.593C953.593 122.486 950.906 119.8 947.593 119.8V125.8ZM947.593 353V359C950.906 359 953.593 356.314 953.593 353H947.593ZM885.193 353H879.193C879.193 356.314 881.879 359 885.193 359V353ZM885.193 214.76H891.193C891.193 212.063 889.393 209.697 886.793 208.977C884.194 208.258 881.433 209.361 880.047 211.675L885.193 214.76ZM802.312 353V359C804.421 359 806.374 357.893 807.458 356.085L802.312 353ZM809.672 108.52L812.13 103.046V103.046L809.672 108.52ZM785.033 89L789.906 85.5007V85.5007L785.033 89ZM776.073 60.52V54.52C772.759 54.52 770.073 57.2063 770.073 60.52H776.073ZM816.393 60.52H822.393C822.393 57.2063 819.706 54.52 816.393 54.52V60.52ZM824.073 78.76L828.315 74.5173V74.5173L824.073 78.76ZM874.953 60.52V54.52C871.639 54.52 868.953 57.2063 868.953 60.52H874.953ZM915.273 60.52H921.273C921.273 57.2063 918.586 54.52 915.273 54.52V60.52ZM906.312 89L901.439 85.5007V85.5007L906.312 89ZM881.352 108.52L878.936 103.028C878.922 103.034 878.909 103.04 878.895 103.046L881.352 108.52ZM749.112 353V125.8H737.112V353H749.112ZM743.112 131.8H805.513V119.8H743.112V131.8ZM799.513 125.8V264.04H811.513V125.8H799.513ZM810.643 267.151L894.483 128.911L884.222 122.689L800.382 260.929L810.643 267.151ZM889.352 131.8H947.593V119.8H889.352V131.8ZM941.593 125.8V353H953.593V125.8H941.593ZM947.593 347H885.193V359H947.593V347ZM891.193 353V214.76H879.193V353H891.193ZM880.047 211.675L797.167 349.915L807.458 356.085L890.339 217.845L880.047 211.675ZM802.312 347H743.112V359H802.312V347ZM845.513 109.56C832.775 109.56 821.688 107.338 812.13 103.046L807.215 113.994C818.563 119.089 831.37 121.56 845.513 121.56V109.56ZM812.13 103.046C802.525 98.7339 795.192 92.8623 789.906 85.5007L780.159 92.4992C786.82 101.778 795.913 108.919 807.215 113.994L812.13 103.046ZM789.906 85.5007C784.697 78.2448 782.073 69.9866 782.073 60.52H770.073C770.073 72.3867 773.421 83.1152 780.159 92.4992L789.906 85.5007ZM776.073 66.52H816.393V54.52H776.073V66.52ZM810.393 60.52C810.393 69.2014 813.621 76.7933 819.83 83.0026L828.315 74.5173C824.284 70.4867 822.393 65.9186 822.393 60.52H810.393ZM819.83 83.0026C826.356 89.5285 835.194 92.44 845.513 92.44V80.44C837.484 80.44 832.029 78.2314 828.315 74.5173L819.83 83.0026ZM845.513 92.44C855.605 92.44 864.327 89.6479 871.015 83.4956L862.89 74.6644C858.911 78.3254 853.34 80.44 845.513 80.44V92.44ZM871.015 83.4956C877.625 77.4143 880.953 69.6071 880.953 60.52H868.953C868.953 66.3662 866.947 70.9323 862.89 74.6644L871.015 83.4956ZM874.953 66.52H915.273V54.52H874.953V66.52ZM909.273 60.52C909.273 69.9866 906.648 78.2448 901.439 85.5007L911.186 92.4992C917.924 83.1152 921.273 72.3867 921.273 60.52H909.273ZM901.439 85.5007C896.174 92.8338 888.758 98.7064 878.936 103.028L883.769 114.012C895.28 108.947 904.505 101.806 911.186 92.4992L901.439 85.5007ZM878.895 103.046C869.337 107.338 858.25 109.56 845.513 109.56V121.56C859.655 121.56 872.462 119.089 883.81 113.994L878.895 103.046Z" fill="url(#paint2_linear_0_78)" mask="url(#path-5-outside-3_0_78)"/>
<mask id="path-7-outside-4_0_78" maskUnits="userSpaceOnUse" x="57" y="57" width="894" height="301" fill="black">
<rect fill="white" x="57" y="57" width="894" height="301"/>
<path d="M253.48 180.2H188.2V353H125.8V180.2H60.2V125.8H253.48V180.2ZM469.488 294.76C469.488 308.413 465.754 319.507 458.288 328.04C451.034 336.573 441.221 342.867 428.848 346.92C416.474 350.973 402.821 353 387.888 353H276.208V125.8H408.048C418.714 125.8 427.888 128.68 435.568 134.44C443.461 139.987 449.434 147.24 453.488 156.2C457.754 165.16 459.888 174.44 459.888 184.04C459.888 194.493 457.114 204.627 451.568 214.44C446.234 224.253 438.128 231.613 427.248 236.52C440.261 240.36 450.501 247.08 457.968 256.68C465.648 266.28 469.488 278.973 469.488 294.76ZM406.128 281.96C406.128 278.12 405.381 274.813 403.888 272.04C402.608 269.053 400.794 266.707 398.448 265C396.101 263.293 393.328 262.44 390.128 262.44H338.608V300.52H387.888C391.301 300.52 394.394 299.773 397.168 298.28C399.941 296.787 402.074 294.653 403.568 291.88C405.274 289.107 406.128 285.8 406.128 281.96ZM338.608 178.92V213.8H381.168C383.941 213.8 386.608 213.373 389.168 212.52C391.728 211.453 393.861 209.64 395.568 207.08C397.274 204.52 398.128 200.893 398.128 196.2C398.128 191.933 397.381 188.627 395.888 186.28C394.608 183.72 392.794 181.907 390.448 180.84C388.314 179.56 385.861 178.92 383.088 178.92H338.608ZM599.545 354.92C582.265 354.92 566.585 351.72 552.505 345.32C538.425 338.707 526.265 329.96 516.025 319.08C505.998 307.987 498.212 295.613 492.665 281.96C487.332 268.093 484.665 253.8 484.665 239.08C484.665 223.933 487.545 209.533 493.305 195.88C499.065 182.227 507.065 170.067 517.305 159.4C527.758 148.52 540.025 139.987 554.105 133.8C568.398 127.613 583.972 124.52 600.825 124.52C618.105 124.52 633.785 127.827 647.865 134.44C661.945 140.84 673.998 149.587 684.025 160.68C694.052 171.773 701.732 184.253 707.065 198.12C712.612 211.773 715.385 225.853 715.385 240.36C715.385 255.293 712.505 269.587 706.745 283.24C701.198 296.893 693.198 309.16 682.745 320.04C672.505 330.707 660.345 339.24 646.265 345.64C632.185 351.827 616.612 354.92 599.545 354.92ZM548.025 239.72C548.025 247.4 549.092 254.867 551.225 262.12C553.358 269.16 556.558 275.56 560.825 281.32C565.092 286.867 570.425 291.347 576.825 294.76C583.438 297.96 591.225 299.56 600.185 299.56C609.145 299.56 616.932 297.853 623.545 294.44C630.158 291.027 635.492 286.44 639.545 280.68C643.812 274.707 646.905 268.2 648.825 261.16C650.958 253.907 652.025 246.547 652.025 239.08C652.025 231.4 650.958 224.04 648.825 217C646.692 209.96 643.492 203.667 639.225 198.12C634.958 192.36 629.518 187.88 622.905 184.68C616.292 181.48 608.612 179.88 599.865 179.88C590.905 179.88 583.118 181.587 576.505 185C570.105 188.413 564.772 193 560.505 198.76C556.238 204.307 553.038 210.707 550.905 217.96C548.985 225 548.025 232.253 548.025 239.72ZM743.113 353V125.8H805.513V264.04L889.353 125.8H947.593V353H885.193V214.76L802.312 353H743.113ZM845.513 115.56C832.073 115.56 820.126 113.213 809.673 108.52C799.219 103.827 791.006 97.32 785.033 89C779.059 80.68 776.073 71.1867 776.073 60.52H816.392C816.392 67.56 818.953 73.64 824.073 78.76C829.193 83.88 836.339 86.44 845.513 86.44C854.473 86.44 861.619 83.9866 866.953 79.08C872.286 74.1733 874.953 67.9866 874.953 60.52H915.273C915.273 71.1867 912.286 80.68 906.313 89C900.339 97.32 892.019 103.827 881.353 108.52C870.899 113.213 858.953 115.56 845.513 115.56Z"/>
</mask>
<path d="M253.48 180.2V183.2H256.48V180.2H253.48ZM188.2 180.2V177.2H185.2V180.2H188.2ZM188.2 353V356H191.2V353H188.2ZM125.8 353H122.8V356H125.8V353ZM125.8 180.2H128.8V177.2H125.8V180.2ZM60.2 180.2H57.2V183.2H60.2V180.2ZM60.2 125.8V122.8H57.2V125.8H60.2ZM253.48 125.8H256.48V122.8H253.48V125.8ZM253.48 177.2H188.2V183.2H253.48V177.2ZM185.2 180.2V353H191.2V180.2H185.2ZM188.2 350H125.8V356H188.2V350ZM128.8 353V180.2H122.8V353H128.8ZM125.8 177.2H60.2V183.2H125.8V177.2ZM63.2 180.2V125.8H57.2V180.2H63.2ZM60.2 128.8H253.48V122.8H60.2V128.8ZM250.48 125.8V180.2H256.48V125.8H250.48ZM458.288 328.04L456.03 326.064L456.016 326.081L456.002 326.097L458.288 328.04ZM428.848 346.92L429.781 349.771L428.848 346.92ZM276.208 353H273.208V356H276.208V353ZM276.208 125.8V122.8H273.208V125.8H276.208ZM435.568 134.44L433.768 136.84L433.805 136.868L433.843 136.895L435.568 134.44ZM453.487 156.2L450.754 157.437L450.766 157.463L450.779 157.49L453.487 156.2ZM451.568 214.44L448.956 212.964L448.944 212.986L448.932 213.007L451.568 214.44ZM427.248 236.52L426.014 233.785L418.644 237.109L426.398 239.397L427.248 236.52ZM457.967 256.68L455.599 258.522L455.612 258.538L455.625 258.554L457.967 256.68ZM403.888 272.04L401.13 273.222L401.183 273.345L401.246 273.462L403.888 272.04ZM398.448 265L396.683 267.426L398.448 265ZM338.608 262.44V259.44H335.608V262.44H338.608ZM338.608 300.52H335.608V303.52H338.608V300.52ZM397.168 298.28L395.745 295.639L397.168 298.28ZM403.568 291.88L401.013 290.308L400.967 290.381L400.926 290.458L403.568 291.88ZM338.608 178.92V175.92H335.608V178.92H338.608ZM338.608 213.8H335.608V216.8H338.608V213.8ZM389.168 212.52L390.116 215.366L390.22 215.331L390.321 215.289L389.168 212.52ZM395.568 207.08L393.071 205.416V205.416L395.568 207.08ZM395.888 186.28L393.204 187.622L393.273 187.76L393.357 187.891L395.888 186.28ZM390.448 180.84L388.904 183.412L389.051 183.5L389.206 183.571L390.448 180.84ZM466.488 294.76C466.488 307.842 462.925 318.185 456.03 326.064L460.545 330.016C468.584 320.829 472.488 308.985 472.488 294.76H466.488ZM456.002 326.097C449.162 334.144 439.848 340.16 427.914 344.069L429.781 349.771C442.594 345.574 452.907 339.002 460.573 329.983L456.002 326.097ZM427.914 344.069C415.882 348.01 402.549 350 387.888 350V356C403.092 356 417.066 353.936 429.781 349.771L427.914 344.069ZM387.888 350H276.208V356H387.888V350ZM279.208 353V125.8H273.208V353H279.208ZM276.208 128.8H408.048V122.8H276.208V128.8ZM408.048 128.8C418.141 128.8 426.664 131.513 433.768 136.84L437.367 132.04C429.111 125.847 419.287 122.8 408.048 122.8V128.8ZM433.843 136.895C441.288 142.126 446.918 148.955 450.754 157.437L456.221 154.963C451.951 145.525 445.634 137.847 437.292 131.985L433.843 136.895ZM450.779 157.49C454.86 166.061 456.888 174.902 456.888 184.04H462.888C462.888 173.978 460.648 164.259 456.196 154.91L450.779 157.49ZM456.888 184.04C456.888 193.936 454.269 203.564 448.956 212.964L454.179 215.916C459.96 205.689 462.888 195.051 462.888 184.04H456.888ZM448.932 213.007C443.933 222.205 436.341 229.128 426.014 233.785L428.481 239.255C439.914 234.098 448.535 226.302 454.203 215.873L448.932 213.007ZM426.398 239.397C438.882 243.081 448.562 249.474 455.599 258.522L460.336 254.838C452.439 244.686 441.639 237.639 428.097 233.643L426.398 239.397ZM455.625 258.554C462.771 267.487 466.488 279.458 466.488 294.76H472.488C472.488 278.488 468.524 265.073 460.31 254.806L455.625 258.554ZM409.128 281.96C409.128 277.731 408.304 273.914 406.529 270.618L401.246 273.462C402.458 275.713 403.128 278.509 403.128 281.96H409.128ZM406.645 270.858C405.178 267.436 403.046 264.635 400.212 262.574L396.683 267.426C398.542 268.778 400.037 270.671 401.13 273.222L406.645 270.858ZM400.212 262.574C397.3 260.456 393.893 259.44 390.128 259.44V265.44C392.762 265.44 394.902 266.131 396.683 267.426L400.212 262.574ZM390.128 259.44H338.608V265.44H390.128V259.44ZM335.608 262.44V300.52H341.608V262.44H335.608ZM338.608 303.52H387.888V297.52H338.608V303.52ZM387.888 303.52C391.755 303.52 395.343 302.67 398.59 300.921L395.745 295.639C393.445 296.877 390.847 297.52 387.888 297.52V303.52ZM398.59 300.921C401.88 299.15 404.437 296.593 406.209 293.302L400.926 290.458C399.711 292.714 398.002 294.424 395.745 295.639L398.59 300.921ZM406.122 293.452C408.169 290.127 409.128 286.254 409.128 281.96H403.128C403.128 285.346 402.38 288.086 401.013 290.308L406.122 293.452ZM335.608 178.92V213.8H341.608V178.92H335.608ZM338.608 216.8H381.168V210.8H338.608V216.8ZM381.168 216.8C384.254 216.8 387.242 216.324 390.116 215.366L388.219 209.674C385.973 210.422 383.627 210.8 381.168 210.8V216.8ZM390.321 215.289C393.487 213.97 396.066 211.741 398.064 208.744L393.071 205.416C391.656 207.539 389.968 208.936 388.014 209.751L390.321 215.289ZM398.064 208.744C400.229 205.495 401.128 201.196 401.128 196.2H395.128C395.128 200.591 394.319 203.545 393.071 205.416L398.064 208.744ZM401.128 196.2C401.128 191.645 400.341 187.69 398.418 184.669L393.357 187.891C394.421 189.563 395.128 192.222 395.128 196.2H401.128ZM398.571 184.938C397.02 181.836 394.731 179.492 391.689 178.109L389.206 183.571C390.858 184.322 392.195 185.604 393.204 187.622L398.571 184.938ZM391.991 178.268C389.339 176.677 386.341 175.92 383.087 175.92V181.92C385.381 181.92 387.289 182.443 388.904 183.412L391.991 178.268ZM383.087 175.92H338.608V181.92H383.087V175.92ZM552.505 345.32L551.23 348.035L551.247 348.043L551.264 348.051L552.505 345.32ZM516.025 319.08L513.799 321.092L513.82 321.114L513.84 321.136L516.025 319.08ZM492.665 281.96L489.865 283.037L489.875 283.063L489.886 283.089L492.665 281.96ZM493.305 195.88L490.541 194.714L493.305 195.88ZM517.305 159.4L515.142 157.322L515.141 157.322L517.305 159.4ZM554.105 133.8L552.913 131.047L552.906 131.05L552.898 131.053L554.105 133.8ZM647.865 134.44L646.59 137.155L646.607 137.163L646.624 137.171L647.865 134.44ZM684.025 160.68L681.799 162.692L684.025 160.68ZM707.065 198.12L704.265 199.197L704.275 199.223L704.286 199.249L707.065 198.12ZM706.745 283.24L703.981 282.074L703.973 282.092L703.966 282.111L706.745 283.24ZM682.745 320.04L680.582 317.962L680.581 317.962L682.745 320.04ZM646.265 345.64L647.472 348.387L647.489 348.379L647.506 348.371L646.265 345.64ZM551.225 262.12L548.347 262.966L548.35 262.978L548.354 262.99L551.225 262.12ZM560.825 281.32L558.414 283.106L558.431 283.128L558.447 283.149L560.825 281.32ZM576.825 294.76L575.413 297.407L575.465 297.435L575.518 297.46L576.825 294.76ZM623.545 294.44L624.921 297.106V297.106L623.545 294.44ZM639.545 280.68L637.104 278.936L637.098 278.945L637.092 278.954L639.545 280.68ZM648.825 261.16L645.947 260.314L645.939 260.342L645.931 260.371L648.825 261.16ZM648.825 217L645.954 217.87L648.825 217ZM639.225 198.12L636.814 199.906L636.831 199.928L636.847 199.949L639.225 198.12ZM622.905 184.68L624.212 181.98L622.905 184.68ZM576.505 185L575.129 182.334L575.111 182.343L575.093 182.353L576.505 185ZM560.505 198.76L562.883 200.589L562.899 200.568L562.916 200.546L560.505 198.76ZM550.905 217.96L548.027 217.113L548.019 217.142L548.011 217.171L550.905 217.96ZM599.545 351.92C582.643 351.92 567.393 348.792 553.746 342.589L551.264 348.051C565.777 354.648 581.887 357.92 599.545 357.92V351.92ZM553.78 342.605C540.028 336.145 528.18 327.618 518.21 317.024L513.84 321.136C524.35 332.302 536.822 341.268 551.23 348.035L553.78 342.605ZM518.251 317.068C508.455 306.231 500.857 294.155 495.444 280.831L489.886 283.089C495.566 297.071 503.542 309.743 513.799 321.092L518.251 317.068ZM495.465 280.883C490.263 267.357 487.665 253.428 487.665 239.08H481.665C481.665 254.172 484.401 268.83 489.865 283.037L495.465 280.883ZM487.665 239.08C487.665 224.325 490.468 210.322 496.069 197.046L490.541 194.714C484.622 208.745 481.665 223.542 481.665 239.08H487.665ZM496.069 197.046C501.687 183.73 509.484 171.879 519.469 161.478L515.141 157.322C504.646 168.254 496.443 180.723 490.541 194.714L496.069 197.046ZM519.468 161.478C529.644 150.887 541.584 142.578 555.312 136.547L552.898 131.053C538.466 137.395 525.872 146.153 515.142 157.322L519.468 161.478ZM555.297 136.553C569.184 130.542 584.348 127.52 600.825 127.52V121.52C583.596 121.52 567.613 124.684 552.913 131.047L555.297 136.553ZM600.825 127.52C617.713 127.52 632.951 130.749 646.59 137.155L649.14 131.725C634.619 124.904 618.497 121.52 600.825 121.52V127.52ZM646.624 137.171C660.343 143.407 672.058 151.913 681.799 162.692L686.251 158.668C675.939 147.26 663.547 138.273 649.106 131.709L646.624 137.171ZM681.799 162.692C691.58 173.513 699.065 185.677 704.265 199.197L709.865 197.043C704.398 182.83 696.523 170.034 686.251 158.668L681.799 162.692ZM704.286 199.249C709.689 212.55 712.385 226.247 712.385 240.36H718.385C718.385 225.46 715.534 210.997 709.844 196.991L704.286 199.249ZM712.385 240.36C712.385 254.896 709.584 268.793 703.981 282.074L709.509 284.406C715.426 270.381 718.385 255.691 718.385 240.36H712.385ZM703.966 282.111C698.566 295.403 690.778 307.349 680.582 317.962L684.908 322.118C695.619 310.971 703.831 298.384 709.524 284.369L703.966 282.111ZM680.581 317.962C670.616 328.342 658.774 336.659 645.024 342.909L647.506 348.371C661.917 341.821 674.394 333.071 684.909 322.118L680.581 317.962ZM645.058 342.893C631.398 348.895 616.242 351.92 599.545 351.92V357.92C616.981 357.92 632.972 354.758 647.472 348.387L645.058 342.893ZM545.025 239.72C545.025 247.682 546.131 255.434 548.347 262.966L554.103 261.273C552.052 254.299 551.025 247.118 551.025 239.72H545.025ZM548.354 262.99C550.584 270.351 553.937 277.062 558.414 283.106L563.236 279.534C559.179 274.058 556.132 267.969 554.096 261.25L548.354 262.99ZM558.447 283.149C562.984 289.046 568.651 293.8 575.413 297.407L578.237 292.113C572.199 288.893 567.2 284.687 563.203 279.491L558.447 283.149ZM575.518 297.46C582.619 300.896 590.87 302.56 600.185 302.56V296.56C591.58 296.56 584.258 295.024 578.132 292.06L575.518 297.46ZM600.185 302.56C609.527 302.56 617.804 300.779 624.921 297.106L622.169 291.774C616.06 294.927 608.763 296.56 600.185 296.56V302.56ZM624.921 297.106C631.939 293.484 637.651 288.584 641.998 282.406L637.092 278.954C633.332 284.296 628.378 288.57 622.169 291.774L624.921 297.106ZM641.986 282.424C646.458 276.163 649.705 269.334 651.719 261.949L645.931 260.371C644.105 267.066 641.165 273.25 637.104 278.936L641.986 282.424ZM651.703 262.007C653.916 254.482 655.025 246.837 655.025 239.08H649.025C649.025 246.257 648 253.332 645.947 260.314L651.703 262.007ZM655.025 239.08C655.025 231.118 653.919 223.464 651.696 216.13L645.954 217.87C647.998 224.616 649.025 231.682 649.025 239.08H655.025ZM651.696 216.13C649.463 208.761 646.102 202.139 641.603 196.291L636.847 199.949C640.882 205.194 643.92 211.159 645.954 217.87L651.696 216.13ZM641.636 196.334C637.073 190.175 631.25 185.385 624.212 181.98L621.598 187.38C627.786 190.375 632.844 194.545 636.814 199.906L641.636 196.334ZM624.212 181.98C617.121 178.548 608.979 176.88 599.865 176.88V182.88C608.244 182.88 615.463 184.412 621.598 187.38L624.212 181.98ZM599.865 176.88C590.523 176.88 582.246 178.661 575.129 182.334L577.881 187.666C583.99 184.513 591.287 182.88 599.865 182.88V176.88ZM575.093 182.353C568.305 185.973 562.629 190.852 558.094 196.974L562.916 200.546C566.914 195.148 571.905 190.854 577.917 187.647L575.093 182.353ZM558.127 196.931C553.617 202.794 550.256 209.533 548.027 217.113L553.783 218.806C555.82 211.88 558.86 205.819 562.883 200.589L558.127 196.931ZM548.011 217.171C546.019 224.474 545.025 231.993 545.025 239.72H551.025C551.025 232.514 551.951 225.526 553.799 218.749L548.011 217.171ZM743.112 353H740.112V356H743.112V353ZM743.112 125.8V122.8H740.112V125.8H743.112ZM805.513 125.8H808.513V122.8H805.513V125.8ZM805.513 264.04H802.513V274.772L808.078 265.596L805.513 264.04ZM889.352 125.8V122.8H887.663L886.787 124.244L889.352 125.8ZM947.593 125.8H950.593V122.8H947.593V125.8ZM947.593 353V356H950.593V353H947.593ZM885.193 353H882.193V356H885.193V353ZM885.193 214.76H888.193V203.922L882.62 213.217L885.193 214.76ZM802.312 353V356H804.012L804.885 354.543L802.312 353ZM809.672 108.52L810.901 105.783L809.672 108.52ZM785.033 89L787.469 87.2504V87.2504L785.033 89ZM776.073 60.52V57.52H773.073V60.52H776.073ZM816.393 60.52H819.393V57.52H816.393V60.52ZM824.073 78.76L826.194 76.6387V76.6387L824.073 78.76ZM874.953 60.52V57.52H871.953V60.52H874.953ZM915.273 60.52H918.273V57.52H915.273V60.52ZM906.312 89L903.876 87.2504V87.2504L906.312 89ZM881.352 108.52L880.144 105.774L880.134 105.779L880.124 105.783L881.352 108.52ZM746.112 353V125.8H740.112V353H746.112ZM743.112 128.8H805.513V122.8H743.112V128.8ZM802.513 125.8V264.04H808.513V125.8H802.513ZM808.078 265.596L891.918 127.356L886.787 124.244L802.947 262.484L808.078 265.596ZM889.352 128.8H947.593V122.8H889.352V128.8ZM944.593 125.8V353H950.593V125.8H944.593ZM947.593 350H885.193V356H947.593V350ZM888.193 353V214.76H882.193V353H888.193ZM882.62 213.217L799.74 351.457L804.885 354.543L887.766 216.303L882.62 213.217ZM802.312 350H743.112V356H802.312V350ZM845.513 112.56C832.424 112.56 820.907 110.276 810.901 105.783L808.444 111.257C819.345 116.151 831.721 118.56 845.513 118.56V112.56ZM810.901 105.783C800.872 101.28 793.099 95.0911 787.469 87.2504L782.596 90.7496C788.913 99.5488 797.566 106.373 808.444 111.257L810.901 105.783ZM787.469 87.2504C781.878 79.4624 779.073 70.5866 779.073 60.52H773.073C773.073 71.7867 776.24 81.8976 782.596 90.7496L787.469 87.2504ZM776.073 63.52H816.393V57.52H776.073V63.52ZM813.393 60.52C813.393 68.3807 816.286 75.2167 821.951 80.8813L826.194 76.6387C821.618 72.0633 819.393 66.7393 819.393 60.52H813.393ZM821.951 80.8813C827.774 86.7043 835.767 89.44 845.513 89.44V83.44C836.911 83.44 830.611 81.0557 826.194 76.6387L821.951 80.8813ZM845.513 89.44C855.039 89.44 862.973 86.8173 868.984 81.2878L864.921 76.8722C860.265 81.156 853.906 83.44 845.513 83.44V89.44ZM868.984 81.2878C874.955 75.7938 877.953 68.7969 877.953 60.52H871.953C871.953 67.1764 869.616 72.5528 864.921 76.8722L868.984 81.2878ZM874.953 63.52H915.273V57.52H874.953V63.52ZM912.273 60.52C912.273 70.5866 909.467 79.4624 903.876 87.2504L908.75 90.7496C915.105 81.8976 918.273 71.7867 918.273 60.52H912.273ZM903.876 87.2504C898.257 95.0769 890.389 101.267 880.144 105.774L882.561 111.266C893.65 106.387 902.422 99.5631 908.75 90.7496L903.876 87.2504ZM880.124 105.783C870.118 110.276 858.601 112.56 845.513 112.56V118.56C859.304 118.56 871.68 116.151 882.581 111.257L880.124 105.783Z" fill="white" mask="url(#path-7-outside-4_0_78)"/>
<defs>
<filter id="filter0_f_0_78" x="0.200012" y="0.52002" width="1007.39" height="414.4" filterUnits="userSpaceOnUse" color-interpolation-filters="sRGB">
<feFlood flood-opacity="0" result="BackgroundImageFix"/>
<feBlend mode="normal" in="SourceGraphic" in2="BackgroundImageFix" result="shape"/>
<feGaussianBlur stdDeviation="30" result="effect1_foregroundBlur_0_78"/>
</filter>
<filter id="filter1_f_0_78" x="45.2" y="45.52" width="917.393" height="324.4" filterUnits="userSpaceOnUse" color-interpolation-filters="sRGB">
<feFlood flood-opacity="0" result="BackgroundImageFix"/>
<feBlend mode="normal" in="SourceGraphic" in2="BackgroundImageFix" result="shape"/>
<feGaussianBlur stdDeviation="7.5" result="effect1_foregroundBlur_0_78"/>
</filter>
<linearGradient id="paint0_linear_0_78" x1="57" y1="80" x2="991.484" y2="172.258" gradientUnits="userSpaceOnUse">
<stop stop-color="#BC000B"/>
<stop offset="1" stop-color="#BD6600"/>
</linearGradient>
<linearGradient id="paint1_linear_0_78" x1="57" y1="80" x2="991.484" y2="172.258" gradientUnits="userSpaceOnUse">
<stop stop-color="#BC000B"/>
<stop offset="1" stop-color="#BD6600"/>
</linearGradient>
<linearGradient id="paint2_linear_0_78" x1="57" y1="80" x2="991.484" y2="172.258" gradientUnits="userSpaceOnUse">
<stop stop-color="#BC000B"/>
<stop offset="1" stop-color="#BD6600"/>
</linearGradient>
</defs>
</svg>
